<svg width="628" height="407" viewBox="0 0 628 407" fill="none" xmlns="http://www.w3.org/2000/svg">
  <path fill-rule="evenodd" clip-rule="evenodd" d="M310.007 63.8195C310.615 63.6172 311.122 63.3138 311.73 63.0103C316.189 60.7852 319.026 57.3463 318.013 55.4246C317 53.5029 312.541 53.7052 307.98 55.9303C307.473 56.1326 307.068 56.4361 306.561 56.6383C306.359 56.1326 306.156 55.7281 305.852 55.2223C303.521 50.7721 300.076 48.0412 298.049 48.9515C296.022 49.9629 296.326 54.3121 298.657 58.7623C298.961 59.3692 299.265 59.8749 299.569 60.3806C298.961 60.5829 298.454 60.8863 297.846 61.1898C293.387 63.4149 290.549 66.8538 291.563 68.7755C292.576 70.6972 297.035 70.4949 301.596 68.2698C302.102 68.0675 302.508 67.7641 303.014 67.5618C303.217 68.0675 303.42 68.4721 303.724 68.9778C306.055 73.4281 309.5 76.1589 311.527 75.2486C313.554 74.2372 313.25 69.8881 310.919 65.4378C310.716 64.8309 310.412 64.3252 310.007 63.8195Z" fill="white"/>
  <path d="M310.717 75.9556C308.387 75.9556 305.448 73.3259 303.32 69.2802C303.117 68.9768 302.914 68.6733 302.813 68.2688C302.712 68.2688 302.712 68.3699 302.61 68.3699C302.407 68.471 302.103 68.6733 301.799 68.7745C297.036 71.1008 292.273 71.2019 291.159 69.0779C290.855 68.471 290.855 67.763 291.057 66.9539C291.767 64.931 294.3 62.5036 297.644 60.7842L298.05 60.5819C298.354 60.4808 298.557 60.2785 298.861 60.1773C298.658 59.7728 298.455 59.4693 298.253 59.0648C296.53 55.727 295.82 52.3893 296.53 50.2653C296.834 49.4562 297.239 48.8493 297.948 48.5459C300.279 47.5345 303.928 50.2653 306.461 55.019C306.664 55.3225 306.867 55.6259 306.968 56.0305C307.069 56.0305 307.069 55.9293 307.171 55.9293C307.373 55.8282 307.677 55.6259 307.981 55.5248C312.744 53.1985 317.507 53.0973 318.622 55.2213C318.926 55.8282 318.926 56.5362 318.723 57.3453C318.014 59.3682 315.481 61.7956 312.136 63.515L311.731 63.7173C311.528 63.8185 311.224 63.9196 311.022 64.1219C311.326 64.5265 311.528 64.931 311.63 65.3356C313.352 68.5722 314.062 72.011 313.352 74.0339C313.048 74.843 312.643 75.4499 311.934 75.7533C311.427 75.8545 311.022 75.9556 310.717 75.9556ZM303.016 67.055C303.218 67.055 303.421 67.1562 303.522 67.3585C303.725 67.8642 303.928 68.2688 304.232 68.6733C306.562 73.2248 309.805 75.4499 311.427 74.7419C311.832 74.5396 312.136 74.135 312.238 73.6293C312.846 71.8088 312.136 68.6733 310.515 65.639C310.312 65.0322 310.008 64.6276 309.704 64.1219C309.603 64.0208 309.603 63.8185 309.603 63.6162C309.603 63.4139 309.805 63.3128 309.907 63.3128C310.312 63.2116 310.717 63.0093 311.123 62.807L311.63 62.6048C314.67 61.0876 317.102 58.8625 317.71 57.0419C317.913 56.5362 317.913 56.0305 317.71 55.727C316.899 54.2099 312.947 54.2099 308.387 56.435C308.083 56.5362 307.88 56.6373 307.677 56.7385C307.475 56.8396 307.171 57.0419 306.867 57.143C306.765 57.143 306.562 57.143 306.461 57.143C306.36 57.0419 306.258 56.9408 306.157 56.8396C305.954 56.3339 305.752 56.0305 305.448 55.5248C303.117 50.9733 299.874 48.7482 298.253 49.4562C297.847 49.6585 297.543 50.063 297.442 50.5688C296.834 52.3893 297.543 55.5248 299.165 58.559C299.469 59.1659 299.773 59.6716 300.077 60.1773C300.178 60.2785 300.178 60.4808 300.077 60.5819C299.975 60.683 299.874 60.8853 299.773 60.8853C299.367 60.9865 298.962 61.1888 298.557 61.391L298.05 61.5933C295.01 63.1105 292.577 65.3356 291.969 67.1562C291.767 67.6619 291.767 68.1676 291.969 68.471C292.78 69.9882 296.732 69.9882 301.293 67.763C301.597 67.6619 301.799 67.5608 302.002 67.4596C302.205 67.3585 302.509 67.1562 302.813 67.055C302.914 67.055 302.914 67.055 303.016 67.055Z" fill="black"/>
  <path fill-rule="evenodd" clip-rule="evenodd" d="M526.778 198.036C523.536 201.07 519.989 202.284 517.658 200.969C514.212 198.946 514.82 191.765 518.874 185.09C522.927 178.414 529.008 174.571 532.352 176.695C534.683 178.111 535.19 181.752 533.974 186.101C537.217 183.067 540.764 181.853 543.094 183.168C545.425 184.584 545.932 188.225 544.716 192.574C547.959 189.54 551.506 188.326 553.837 189.641C557.282 191.664 556.674 198.845 552.621 205.521C548.567 212.196 542.486 216.04 539.142 213.916C536.811 212.5 536.305 208.858 537.521 204.509C534.278 207.543 530.731 208.757 528.4 207.442C526.069 206.128 525.562 202.385 526.778 198.036Z" fill="white"/>
  <path d="M541.268 215.028C540.356 215.028 539.545 214.825 538.836 214.319C536.607 213.005 535.897 209.869 536.607 205.925C533.465 208.352 530.323 209.161 528.094 207.846C525.864 206.633 525.054 203.396 525.864 199.452C522.723 201.879 519.581 202.688 517.352 201.373C516.237 200.766 515.528 199.654 515.122 198.137C514.21 194.698 515.528 189.54 518.365 184.786C521.304 180.032 525.256 176.593 528.702 175.784C530.222 175.481 531.539 175.582 532.553 176.29C534.782 177.605 535.492 180.74 534.782 184.685C537.924 182.257 541.066 181.448 543.295 182.763C545.525 184.078 546.335 187.213 545.525 191.158C548.666 188.73 551.808 187.921 554.037 189.236C555.152 189.843 555.861 190.956 556.267 192.473C557.179 195.912 555.861 201.07 553.024 205.824C550.085 210.577 546.133 214.016 542.687 214.825C542.18 214.926 541.775 215.028 541.268 215.028ZM537.519 204.003C537.62 204.003 537.721 204.003 537.823 204.104C538.025 204.205 538.127 204.407 538.025 204.711C536.809 208.959 537.417 212.297 539.444 213.51C540.255 214.016 541.268 214.117 542.484 213.915C545.626 213.207 549.477 209.768 552.213 205.318C554.949 200.868 556.165 195.912 555.355 192.776C555.051 191.562 554.443 190.652 553.632 190.146C551.605 188.933 548.261 190.146 545.119 192.978C544.917 193.181 544.714 193.181 544.511 193.08C544.308 192.978 544.207 192.776 544.308 192.473C545.525 188.225 544.917 184.887 542.89 183.673C540.863 182.561 537.519 183.673 534.377 186.505C534.174 186.708 533.972 186.708 533.769 186.606C533.566 186.505 533.465 186.303 533.566 186C534.782 181.752 534.174 178.414 532.147 177.2C531.337 176.694 530.323 176.593 529.107 176.796C525.966 177.504 522.115 180.942 519.378 185.393C516.642 189.843 515.426 194.799 516.237 197.934C516.541 199.148 517.149 200.058 517.96 200.564C519.987 201.778 523.331 200.564 526.472 197.732C526.675 197.53 526.878 197.53 527.08 197.631C527.283 197.732 527.384 197.934 527.283 198.238C526.067 202.486 526.675 205.925 528.702 207.037C530.729 208.251 534.073 207.037 537.215 204.205C537.316 204.003 537.417 204.003 537.519 204.003Z" fill="black"/>
  <path d="M460.296 84.7564C460.6 84.7564 460.803 84.5541 460.904 84.3518C465.87 72.8215 476.916 65.5393 481.173 62.8084C481.477 62.6061 481.578 62.1004 481.375 61.797L461.31 30.9484C461.107 30.645 460.6 30.5438 460.296 30.7461C456.04 33.477 444.588 40.9615 439.42 52.9975" fill="white"/>
  <path d="M460.298 85.2605V84.2491C460.399 84.2491 460.399 84.148 460.5 84.148C465.669 72.2131 477.12 64.8297 480.971 62.4023L481.072 62.3011C481.072 62.2 481.072 62.2 481.072 62.0988L461.007 31.2503C461.007 31.1491 460.804 31.1491 460.703 31.1491C456.852 33.5765 445.198 41.0611 440.029 53.1983L439.117 52.7937C444.387 40.4543 456.244 32.7674 460.196 30.34C460.703 29.9354 461.514 30.1377 461.919 30.6434L481.985 61.492C482.187 61.6943 482.187 62.0988 482.187 62.4023C482.086 62.7057 481.985 63.0091 481.681 63.2114C477.931 65.6388 466.581 72.9211 461.615 84.5525C461.108 84.9571 460.703 85.2605 460.298 85.2605Z" fill="black"/>
  <path d="M439.32 53.0975C426.246 52.9963 414.795 60.4809 410.539 63.3129C410.235 63.5152 410.133 64.0209 410.336 64.3243L430.503 95.0717C430.706 95.3752 431.212 95.4763 431.516 95.274C435.773 92.442 446.92 85.2609 459.486 85.2609C459.79 85.2609 459.993 85.1597 460.094 84.8563C460.196 84.654 460.196 84.3506 460.094 84.1483L439.928 53.4009C439.725 53.1986 439.522 53.0975 439.32 53.0975Z" fill="white"/>
  <path d="M431.112 95.8802C430.706 95.8802 430.301 95.6779 430.098 95.3745L409.931 64.6271C409.728 64.4248 409.729 64.0202 409.729 63.7168C409.83 63.4134 409.931 63.1099 410.235 62.9076C414.086 60.3791 425.74 52.5911 439.016 52.5911C439.422 52.5911 439.827 52.6922 440.232 52.9956C440.232 52.9956 440.232 53.0968 440.334 53.0968L460.501 83.8442C460.703 84.2488 460.703 84.7545 460.501 85.0579C460.399 85.3614 460.095 85.7659 459.487 85.7659C446.718 85.7659 435.469 93.2505 431.821 95.6779C431.618 95.7791 431.416 95.8802 431.112 95.8802ZM439.016 53.6025C426.044 53.6025 414.593 61.1882 410.742 63.7168L410.641 63.8179C410.641 63.9191 410.641 63.9191 410.641 64.0202L430.909 94.7676C430.909 94.8688 431.112 94.8688 431.213 94.8688C434.963 92.3402 446.414 84.7545 459.487 84.7545C459.589 84.7545 459.588 84.7545 459.588 84.7545V84.6533C459.588 84.5522 459.588 84.4511 459.588 84.4511L439.523 53.8048C439.422 53.7036 439.32 53.7036 439.32 53.7036C439.219 53.6025 439.118 53.6025 439.016 53.6025Z" fill="black"/>
  <path fill-rule="evenodd" clip-rule="evenodd" d="M446.512 299.784C446.512 311.112 437.29 320.316 425.939 320.316C437.29 320.316 446.512 329.52 446.512 340.848C446.512 329.52 455.734 320.316 467.084 320.316C455.734 320.316 446.512 311.112 446.512 299.784Z" fill="white"/>
  <path d="M447.018 340.848H446.005C446.005 329.824 436.986 320.822 425.939 320.822V319.81C436.986 319.81 446.005 310.809 446.005 299.784H447.018C447.018 310.809 456.038 319.81 467.084 319.81V320.822C456.038 320.822 447.018 329.824 447.018 340.848ZM430.5 320.316C438.404 322.137 444.688 328.306 446.512 336.297C448.336 328.408 454.518 322.137 462.524 320.316C454.619 318.496 448.336 312.326 446.512 304.336C444.688 312.326 438.506 318.496 430.5 320.316Z" fill="black"/>
  <path d="M104.284 133.506L103.676 132.697C103.777 132.595 111.074 127.538 116.445 120.762L117.256 121.369C111.783 128.246 104.385 133.506 104.284 133.506Z" fill="white"/>
  <path d="M230.553 183.47C230.553 183.47 266.022 186.1 289.331 160.915L269.569 145.946L231.262 156.465L230.553 183.47Z" fill="black"/>
  <path d="M233.19 184.077C231.467 184.077 230.555 183.976 230.454 183.976C230.15 183.976 229.947 183.774 229.947 183.47L230.657 156.465C230.657 156.263 230.859 156.06 231.062 155.959L269.369 145.44C269.47 145.44 269.673 145.44 269.774 145.542L289.536 160.511C289.637 160.612 289.739 160.713 289.739 160.915C289.739 161.118 289.739 161.219 289.637 161.32C270.18 182.256 242.007 184.077 233.19 184.077ZM231.062 182.964C235.318 183.167 267.14 183.672 288.523 160.915L269.369 146.452L231.67 156.768L231.062 182.964Z" fill="black"/>
  <path d="M289.333 160.916L270.99 113.379C264.707 97.1957 246.567 89.1043 230.352 95.3751C214.138 101.646 206.03 119.751 212.314 135.933L230.656 183.471L233.494 181.448C249.709 169.412 269.166 162.332 289.333 160.916Z" fill="white"/>
  <path d="M230.654 183.976H230.553C230.452 183.976 230.249 183.774 230.249 183.673L211.906 136.136C205.522 119.751 213.73 101.242 230.249 94.9707C246.666 88.5987 265.212 96.7912 271.495 113.278L289.838 160.815C289.939 160.916 289.838 161.118 289.838 161.219C289.838 161.32 289.635 161.422 289.432 161.422C269.164 162.838 249.909 169.918 233.897 181.852L231.06 183.875C230.857 183.976 230.756 183.976 230.654 183.976ZM241.599 93.7569C237.951 93.7569 234.201 94.465 230.553 95.881C214.642 102.051 206.636 119.953 212.818 135.832L230.958 182.763L233.289 181.144C249.301 169.21 268.455 162.13 288.723 160.612L270.583 113.682C265.718 101.343 253.963 93.7569 241.599 93.7569Z" fill="black"/>
  <path d="M119.891 212.398C119.891 212.398 162.961 229.592 205.524 235.863C248.087 242.134 265.011 235.155 265.011 227.468C265.011 219.781 229.339 195.507 229.339 195.507L151.306 193.282L119.891 212.398Z" fill="black"/>
  <path d="M234.711 238.795C227.111 238.795 217.483 238.087 205.424 236.368C163.266 230.198 120.094 213.004 119.689 212.903C119.486 212.802 119.385 212.701 119.385 212.498C119.385 212.296 119.486 212.094 119.587 211.993L151.003 192.877C151.105 192.775 151.206 192.775 151.307 192.775L229.34 195.001C229.442 195.001 229.543 195.001 229.644 195.102C231.063 196.113 265.519 219.578 265.519 227.467C265.519 229.389 264.607 231.109 262.783 232.727C260.249 234.851 253.054 238.795 234.711 238.795ZM121.006 212.296C127.593 214.825 167.015 229.693 205.626 235.357C233.698 239.503 254.878 238.189 262.175 231.918C263.796 230.603 264.506 229.086 264.506 227.467C264.506 221.399 239.17 202.789 229.137 196.012L151.409 193.787L121.006 212.296Z" fill="black"/>
  <path d="M119.891 212.399L152.32 206.633C168.636 203.7 185.357 202.891 201.774 204.813C223.056 207.24 251.837 208.252 265.012 227.57L259.032 117.931C260.046 104.176 249.709 92.2409 235.927 91.2294L160.529 85.6666C146.746 84.6552 134.788 94.9717 133.774 108.727L119.891 212.399Z" fill="white"/>
  <path d="M265.011 228.075C264.809 228.075 264.707 227.974 264.606 227.872C252.85 210.678 228.123 208.048 208.26 206.026C206.031 205.823 203.801 205.52 201.673 205.318C185.965 203.497 169.345 204.104 152.32 207.138L119.89 212.903C119.688 212.903 119.586 212.903 119.485 212.802C119.384 212.701 119.282 212.499 119.384 212.398L133.268 108.625C133.774 101.848 136.916 95.6787 141.983 91.2285C147.151 86.7782 153.738 84.6542 160.528 85.1599L235.926 90.7227C242.716 91.2285 248.898 94.3639 253.357 99.421C257.816 104.579 259.944 111.154 259.438 117.93L265.417 227.468C265.417 227.67 265.315 227.872 265.113 227.974C265.113 228.075 265.113 228.075 265.011 228.075ZM183.634 203.295C189.816 203.295 195.897 203.598 201.876 204.306C204.004 204.508 206.132 204.812 208.361 205.014C227.92 207.037 252.04 209.566 264.403 225.85L258.525 117.93C259.032 111.356 256.904 105.085 252.648 100.129C248.391 95.173 242.412 92.2399 235.926 91.7342L160.528 86.1713C153.941 85.6656 147.658 87.7896 142.692 92.0376C137.727 96.2856 134.788 102.253 134.281 108.726L120.499 211.791L152.218 206.127C162.859 204.205 173.399 203.295 183.634 203.295Z" fill="black"/>
  <path d="M182.622 58.0538C188.331 58.0538 192.959 53.4349 192.959 47.7372C192.959 42.0395 188.331 37.4207 182.622 37.4207C176.913 37.4207 172.285 42.0395 172.285 47.7372C172.285 53.4349 176.913 58.0538 182.622 58.0538Z" fill="black"/>
  <path d="M182.621 58.5591C176.642 58.5591 171.777 53.7043 171.777 47.7368C171.777 41.7694 176.642 36.9146 182.621 36.9146C188.6 36.9146 193.464 41.7694 193.464 47.7368C193.464 53.7043 188.6 58.5591 182.621 58.5591ZM182.621 37.926C177.25 37.926 172.791 42.3763 172.791 47.7368C172.791 53.0974 177.25 57.5477 182.621 57.5477C187.992 57.5477 192.451 53.0974 192.451 47.7368C192.451 42.3763 187.992 37.926 182.621 37.926Z" fill="black"/>
  <path d="M189.815 72.4168C195.524 72.4168 200.152 67.798 200.152 62.1003C200.152 56.4026 195.524 51.7837 189.815 51.7837C184.106 51.7837 179.479 56.4026 179.479 62.1003C179.479 67.798 184.106 72.4168 189.815 72.4168Z" fill="black"/>
  <path d="M189.816 72.9222C183.837 72.9222 178.973 68.0673 178.973 62.0999C178.973 56.1324 183.837 51.2776 189.816 51.2776C195.795 51.2776 200.66 56.1324 200.66 62.0999C200.66 68.0673 195.795 72.9222 189.816 72.9222ZM189.816 52.289C184.445 52.289 179.986 56.7393 179.986 62.0999C179.986 67.4604 184.445 71.9107 189.816 71.9107C195.187 71.9107 199.646 67.4604 199.646 62.0999C199.646 56.7393 195.187 52.289 189.816 52.289Z" fill="black"/>
  <path d="M235.723 63.0107C239.585 63.0107 242.716 59.8862 242.716 56.0318C242.716 52.1775 239.585 49.053 235.723 49.053C231.861 49.053 228.73 52.1775 228.73 56.0318C228.73 59.8862 231.861 63.0107 235.723 63.0107Z" fill="white"/>
  <path d="M235.722 63.516C231.567 63.516 228.223 60.1783 228.223 56.0314C228.223 51.8846 231.567 48.5469 235.722 48.5469C239.877 48.5469 243.221 51.8846 243.221 56.0314C243.221 60.1783 239.877 63.516 235.722 63.516ZM235.722 49.5583C232.175 49.5583 229.236 52.4914 229.236 56.0314C229.236 59.5714 232.175 62.5046 235.722 62.5046C239.269 62.5046 242.208 59.5714 242.208 56.0314C242.208 52.4914 239.269 49.5583 235.722 49.5583Z" fill="black"/>
  <path d="M199.742 105.693C208.153 105.794 215.145 99.1185 215.247 90.7236L215.652 63.8196C215.652 63.3139 215.247 62.8082 214.639 62.8082L186.061 62.3025C185.554 62.3025 185.047 62.7071 185.047 63.3139L184.642 90.2179C184.54 98.6128 191.33 105.592 199.742 105.693Z" fill="white"/>
  <path d="M199.945 106.198C199.843 106.198 199.843 106.198 199.742 106.198C195.587 106.198 191.635 104.479 188.594 101.444C185.655 98.4101 184.034 94.4655 184.135 90.2175L184.541 63.3135C184.541 62.5044 185.25 61.7964 186.061 61.7964L214.639 62.3021C215.45 62.3021 216.159 63.0101 216.159 63.8192L215.754 90.7232C215.652 99.3204 208.559 106.198 199.945 106.198ZM199.742 105.187C207.951 105.288 214.639 98.8147 214.74 90.7232L215.146 63.8192C215.146 63.617 214.943 63.3135 214.639 63.3135L186.061 62.8078C185.858 62.8078 185.554 63.0101 185.554 63.3135L185.149 90.2175C185.149 94.1621 186.568 97.9044 189.405 100.736C192.141 103.568 195.79 105.187 199.742 105.187Z" fill="black"/>
  <path d="M187.382 63.7181C186.875 64.0215 186.267 64.2238 185.659 64.325C185.659 64.325 185.659 64.325 185.558 64.325V64.1227C185.153 62.201 184.95 60.1781 185.051 58.1552C185.051 55.121 185.659 52.289 186.571 49.5581C189.612 50.5695 191.841 53.5027 191.74 56.9415C191.638 59.8747 189.814 62.5044 187.382 63.7181Z" fill="black"/>
  <path d="M185.557 64.8306C185.253 64.8306 185.05 64.6283 185.05 64.3249V64.2238C184.645 62.2009 184.442 60.0769 184.543 58.1552C184.543 55.4244 185.05 52.4912 186.064 49.4569C186.064 49.3558 186.165 49.2546 186.368 49.1535C186.469 49.0524 186.672 49.0524 186.773 49.1535C190.117 50.2661 192.347 53.5026 192.245 57.0426C192.144 60.0769 190.32 62.9089 187.584 64.2238C187.077 64.5272 186.368 64.7295 185.658 64.9318L185.557 64.8306ZM186.874 50.2661C185.962 53.0981 185.557 55.7278 185.557 58.1552C185.455 59.9758 185.658 61.7963 185.962 63.7181C186.368 63.6169 186.773 63.4146 187.077 63.2123C189.408 61.9986 191.029 59.4701 191.131 56.8404C191.333 54.0084 189.509 51.2775 186.874 50.2661Z" fill="black"/>
  <path d="M202.281 84.0491C204.814 84.9594 207.449 85.364 210.287 85.4651C224.576 85.6674 236.433 74.3394 236.635 60.0783C236.838 45.8171 225.488 33.9834 211.097 33.7811C200.558 33.5788 191.336 39.8497 187.181 48.8514C185.863 48.3457 184.343 48.1434 182.722 48.548C180.188 49.1548 178.161 51.2788 177.655 53.9085C176.743 58.3588 180.087 62.3034 184.445 62.4045C184.647 62.4045 184.85 62.4045 184.951 62.4045C185.053 63.2137 184.749 90.4211 184.749 90.4211" fill="white"/>
  <path d="M185.254 90.4196H184.241C184.342 80.4064 184.443 65.7407 184.443 62.9087C182.113 62.8076 180.086 61.7962 178.667 60.0767C177.248 58.3573 176.741 56.031 177.147 53.8059C177.654 50.9739 179.883 48.7487 182.619 48.0407C184.038 47.6362 185.457 47.7373 186.977 48.243C191.436 38.9379 200.861 33.0716 211.198 33.2739C218.291 33.375 224.879 36.207 229.743 41.2642C234.607 46.3213 237.242 52.9967 237.141 60.0767C237.04 67.0556 234.202 73.6299 229.135 78.5859C224.068 83.4407 217.379 86.0704 210.285 85.9693C207.144 85.8681 204.509 85.3624 202.077 84.5533L202.381 83.643C204.712 84.4521 207.245 84.9579 210.184 85.059C216.974 85.1601 223.359 82.6316 228.223 77.979C233.087 73.3264 235.824 66.9544 235.925 60.1779C236.026 53.4013 233.493 47.0293 228.73 42.0733C223.967 37.2184 217.683 34.4876 210.894 34.3864C200.861 34.1842 191.639 39.9493 187.484 49.1533C187.382 49.3556 187.078 49.5579 186.876 49.4567C185.457 48.951 184.139 48.8499 182.721 49.1533C180.39 49.7602 178.464 51.6819 178.059 54.1093C177.654 56.031 178.16 57.9527 179.376 59.571C180.592 61.0882 182.417 61.9984 184.443 62.0996H184.95C185.254 62.0996 185.457 62.3019 185.457 62.5042C185.558 63.111 185.254 87.5876 185.254 90.4196Z" fill="black"/>
  <path d="M185.557 51.7837C183.631 51.7837 182.01 53.3008 182.01 55.2225C182.01 57.1443 183.53 58.7625 185.455 58.7625" fill="white"/>
  <path d="M185.458 59.2679C183.229 59.2679 181.506 57.4473 181.506 55.2222C181.506 52.997 183.33 51.2776 185.56 51.2776V52.289C183.837 52.289 182.519 53.6039 182.519 55.2222C182.519 56.9416 183.837 58.2564 185.458 58.2564V59.2679Z" fill="black"/>
  <path d="M223.298 61.3896C224.305 61.3692 225.105 60.4925 225.083 59.4314C225.061 58.3703 224.228 57.5266 223.22 57.5469C222.213 57.5672 221.414 58.4439 221.435 59.5051C221.457 60.5662 222.291 61.4099 223.298 61.3896Z" fill="black"/>
  <path d="M226.806 54.1084C226.705 54.0073 224.374 51.4787 220.725 53.4004L220.219 52.4901C224.576 50.1638 227.515 53.4004 227.515 53.4004L226.806 54.1084Z" fill="black"/>
  <path d="M205.97 61.6918C206.977 61.6715 207.776 60.7948 207.755 59.7336C207.733 58.6725 206.899 57.8288 205.892 57.8491C204.885 57.8695 204.086 58.7462 204.107 59.8073C204.129 60.8684 204.963 61.7122 205.97 61.6918Z" fill="black"/>
  <path d="M209.478 54.4124C209.376 54.3112 207.046 51.7827 203.397 53.7044L202.891 52.7941C207.248 50.4678 210.187 53.7044 210.187 53.7044L209.478 54.4124Z" fill="black"/>
  <path d="M210.793 77.1689C205.524 76.0563 206.233 71.2015 206.233 71.1003L207.246 71.3026C207.246 71.5049 206.638 75.2472 210.996 76.1575L210.793 77.1689Z" fill="black"/>
  <path d="M217.28 57.8508L217.888 66.8525C217.888 68.2685 216.773 69.4823 215.253 69.4823H214.848" fill="white"/>
  <path d="M215.253 69.9883H214.848V68.9769H215.253C216.469 68.9769 217.381 68.0666 217.381 66.8529L216.773 57.8511L217.787 57.75L218.395 66.7517C218.395 68.5723 216.976 69.9883 215.253 69.9883Z" fill="black"/>
  <path d="M214.646 41.8708C222.594 41.8708 229.037 35.4406 229.037 27.5085C229.037 19.5765 222.594 13.1462 214.646 13.1462C206.699 13.1462 200.256 19.5765 200.256 27.5085C200.256 35.4406 206.699 41.8708 214.646 41.8708Z" fill="black"/>
  <path d="M214.645 42.3761C206.437 42.3761 199.748 35.7007 199.748 27.5081C199.748 19.3156 206.437 12.6401 214.645 12.6401C222.854 12.6401 229.542 19.3156 229.542 27.5081C229.542 35.7007 222.854 42.3761 214.645 42.3761ZM214.645 13.6516C206.943 13.6516 200.761 19.8213 200.761 27.5081C200.761 35.195 206.943 41.3647 214.645 41.3647C222.347 41.3647 228.529 35.195 228.529 27.5081C228.529 19.8213 222.347 13.6516 214.645 13.6516Z" fill="black"/>
  <path d="M194.278 51.9858C203.009 51.9858 210.087 44.9216 210.087 36.2075C210.087 27.4934 203.009 20.4292 194.278 20.4292C185.547 20.4292 178.469 27.4934 178.469 36.2075C178.469 44.9216 185.547 51.9858 194.278 51.9858Z" fill="black"/>
  <path d="M194.277 52.4909C185.258 52.4909 177.961 45.2086 177.961 36.2069C177.961 27.2051 185.258 19.9229 194.277 19.9229C203.296 19.9229 210.593 27.2051 210.593 36.2069C210.593 45.2086 203.296 52.4909 194.277 52.4909ZM194.277 20.9343C185.866 20.9343 178.974 27.812 178.974 36.2069C178.974 44.6017 185.866 51.4794 194.277 51.4794C202.688 51.4794 209.579 44.6017 209.579 36.2069C209.579 27.812 202.688 20.9343 194.277 20.9343Z" fill="black"/>
  <path d="M229.746 50.1645C237.301 50.1645 243.427 44.0513 243.427 36.5102C243.427 28.9692 237.301 22.856 229.746 22.856C222.19 22.856 216.064 28.9692 216.064 36.5102C216.064 44.0513 222.19 50.1645 229.746 50.1645Z" fill="black"/>
  <path d="M229.746 50.6701C221.943 50.6701 215.559 44.2981 215.559 36.5101C215.559 28.7221 221.943 22.3501 229.746 22.3501C237.55 22.3501 243.934 28.7221 243.934 36.5101C243.934 44.2981 237.55 50.6701 229.746 50.6701ZM229.746 23.3615C222.45 23.3615 216.572 29.2278 216.572 36.5101C216.572 43.7924 222.45 49.6587 229.746 49.6587C237.043 49.6587 242.921 43.7924 242.921 36.5101C242.921 29.2278 237.043 23.3615 229.746 23.3615Z" fill="black"/>
  <path d="M498.807 146.149V374.328C498.807 380.902 493.436 386.262 486.849 386.262H116.243C109.656 386.262 104.285 380.902 104.285 374.328V146.149C104.285 139.575 109.656 134.214 116.243 134.214H486.849C493.436 134.214 498.807 139.575 498.807 146.149Z" fill="white"/>
  <path d="M486.848 386.768H116.242C109.351 386.768 103.777 381.205 103.777 374.327V146.149C103.777 139.271 109.351 133.708 116.242 133.708H486.848C493.739 133.708 499.313 139.271 499.313 146.149V374.327C499.313 381.205 493.739 386.768 486.848 386.768ZM116.242 134.72C109.959 134.72 104.791 139.878 104.791 146.149V374.327C104.791 380.598 109.959 385.756 116.242 385.756H486.848C493.131 385.756 498.299 380.598 498.299 374.327V146.149C498.299 139.878 493.131 134.72 486.848 134.72H116.242Z" fill="black"/>
  <path d="M498.807 156.87H104.285V144.834C104.285 138.968 109.048 134.214 114.926 134.214H488.166C494.044 134.214 498.807 138.968 498.807 144.834V156.87Z" fill="#3F2AFF"/>
  <path d="M499.313 157.376H103.777V144.834C103.777 138.664 108.743 133.708 114.925 133.708H488.165C494.347 133.708 499.313 138.664 499.313 144.834V157.376ZM104.791 156.364H498.299V144.834C498.299 139.271 493.739 134.72 488.165 134.72H114.925C109.351 134.72 104.791 139.271 104.791 144.834V156.364Z" fill="#3F2AFF"/>
  <path d="M472.762 151.206H463.337C463.033 151.206 462.83 151.003 462.83 150.7V140.788C462.83 140.485 463.033 140.282 463.337 140.282H472.762C473.066 140.282 473.268 140.485 473.268 140.788V150.7C473.268 151.003 473.066 151.206 472.762 151.206ZM463.843 150.194H472.255V141.294H463.843V150.194Z" fill="black"/>
  <path d="M455.839 150.195H446.414V151.206H455.839V150.195Z" fill="black"/>
  <path d="M489.22 140.426L479.797 150.326L480.532 151.022L489.955 141.123L489.22 140.426Z" fill="black"/>
  <path d="M480.518 140.368L479.783 141.064L489.201 150.967L489.936 150.271L480.518 140.368Z" fill="black"/>
  <path d="M347.809 284.513H137.728C131.141 284.513 125.77 279.153 125.77 272.578V192.676C125.77 186.101 131.141 180.741 137.728 180.741H347.809C354.396 180.741 359.767 186.101 359.767 192.676V272.578C359.767 279.153 354.396 284.513 347.809 284.513Z" fill="white"/>
  <path d="M347.809 285.018H137.729C130.837 285.018 125.264 279.456 125.264 272.578V192.675C125.264 185.797 130.837 180.234 137.729 180.234H347.809C354.701 180.234 360.274 185.797 360.274 192.675V272.578C360.274 279.456 354.701 285.018 347.809 285.018ZM137.729 181.246C131.445 181.246 126.277 186.404 126.277 192.675V272.578C126.277 278.849 131.445 284.007 137.729 284.007H347.809C354.093 284.007 359.261 278.849 359.261 272.578V192.675C359.261 186.404 354.093 181.246 347.809 181.246H137.729Z" fill="black"/>
  <path d="M175.932 202.284H142.692C140.766 202.284 139.246 200.767 139.246 198.846C139.246 196.924 140.766 195.407 142.692 195.407H175.932C177.857 195.407 179.377 196.924 179.377 198.846C179.377 200.767 177.857 202.284 175.932 202.284Z" fill="white"/>
  <path d="M175.931 202.789H142.691C140.461 202.789 138.738 201.07 138.738 198.844C138.738 196.619 140.461 194.9 142.691 194.9H175.931C178.16 194.9 179.883 196.619 179.883 198.844C179.883 201.07 178.16 202.789 175.931 202.789ZM142.691 195.911C141.069 195.911 139.752 197.226 139.752 198.844C139.752 200.463 141.069 201.778 142.691 201.778H175.931C177.552 201.778 178.869 200.463 178.869 198.844C178.869 197.226 177.552 195.911 175.931 195.911H142.691Z" fill="black"/>
  <path d="M168.027 269.342H142.692C140.766 269.342 139.246 267.824 139.246 265.903C139.246 263.981 140.766 262.464 142.692 262.464H168.027C169.953 262.464 171.473 263.981 171.473 265.903C171.473 267.824 169.953 269.342 168.027 269.342Z" fill="white"/>
  <path d="M168.026 269.847H142.691C140.461 269.847 138.738 268.127 138.738 265.902C138.738 263.677 140.461 261.958 142.691 261.958H168.026C170.255 261.958 171.978 263.677 171.978 265.902C171.978 268.127 170.255 269.847 168.026 269.847ZM142.691 262.969C141.069 262.969 139.752 264.284 139.752 265.902C139.752 267.52 141.069 268.835 142.691 268.835H168.026C169.647 268.835 170.965 267.52 170.965 265.902C170.965 264.284 169.647 262.969 168.026 262.969H142.691Z" fill="black"/>
  <path d="M211.707 269.342H186.371C184.446 269.342 182.926 267.824 182.926 265.903C182.926 263.981 184.446 262.464 186.371 262.464H211.707C213.632 262.464 215.152 263.981 215.152 265.903C215.254 267.824 213.632 269.342 211.707 269.342Z" fill="white"/>
  <path d="M211.708 269.847H186.372C184.143 269.847 182.42 268.127 182.42 265.902C182.42 263.677 184.143 261.958 186.372 261.958H211.708C213.937 261.958 215.66 263.677 215.66 265.902C215.761 266.914 215.356 267.824 214.646 268.633C213.937 269.442 212.822 269.847 211.708 269.847ZM186.372 262.969C184.751 262.969 183.433 264.284 183.433 265.902C183.433 267.52 184.751 268.835 186.372 268.835H211.708C212.518 268.835 213.329 268.532 213.937 267.925C214.444 267.419 214.748 266.711 214.646 265.902C214.646 264.183 213.329 262.969 211.708 262.969H186.372Z" fill="black"/>
  <path d="M340.613 242.336H304.839C301.698 242.336 299.164 239.808 299.164 236.672V200.969C299.164 197.833 301.698 195.305 304.839 195.305H340.613C343.754 195.305 346.288 197.833 346.288 200.969V236.672C346.288 239.808 343.754 242.336 340.613 242.336Z" fill="#FEBCB4"/>
  <path d="M359.767 316.271V386.262H125.668V316.271C125.668 309.697 131.039 304.336 137.626 304.336H347.808C354.395 304.336 359.767 309.697 359.767 316.271Z" fill="white"/>
  <path d="M359.765 386.767H125.667C125.363 386.767 125.16 386.565 125.16 386.262V316.271C125.16 309.393 130.734 303.83 137.625 303.83H347.807C354.698 303.83 360.272 309.393 360.272 316.271V386.262C360.272 386.565 360.069 386.767 359.765 386.767ZM126.174 385.756H359.259V316.271C359.259 310 354.09 304.842 347.807 304.842H137.625C131.342 304.842 126.174 310 126.174 316.271V385.756Z" fill="black"/>
  <path d="M175.932 325.88H142.692C140.766 325.88 139.246 324.363 139.246 322.442C139.246 320.52 140.766 319.003 142.692 319.003H175.932C177.857 319.003 179.377 320.52 179.377 322.442C179.377 324.363 177.857 325.88 175.932 325.88Z" fill="white"/>
  <path d="M175.931 326.385H142.691C140.461 326.385 138.738 324.666 138.738 322.441C138.738 320.216 140.461 318.496 142.691 318.496H175.931C178.16 318.496 179.883 320.216 179.883 322.441C179.883 324.666 178.16 326.385 175.931 326.385ZM142.691 319.508C141.069 319.508 139.752 320.823 139.752 322.441C139.752 324.059 141.069 325.374 142.691 325.374H175.931C177.552 325.374 178.869 324.059 178.869 322.441C178.869 320.823 177.552 319.508 175.931 319.508H142.691Z" fill="black"/>
  <path d="M340.613 365.932H304.839C301.698 365.932 299.164 363.403 299.164 360.268V324.564C299.164 321.429 301.698 318.9 304.839 318.9H340.613C343.754 318.9 346.288 321.429 346.288 324.564V360.268C346.288 363.403 343.754 365.932 340.613 365.932Z" fill="#FEBCB4"/>
  <path d="M180.999 195.71C180.999 195.71 179.074 228.885 149.786 239.808L143.098 219.58L154.752 197.834L172.791 197.328L180.999 195.71Z" fill="black"/>
  <path d="M149.785 240.313C149.684 240.313 149.684 240.313 149.582 240.313C149.481 240.212 149.38 240.111 149.278 240.01L142.59 219.781C142.59 219.68 142.59 219.478 142.59 219.377L154.244 197.631C154.345 197.429 154.447 197.327 154.649 197.327L172.688 196.822L180.796 195.203C180.998 195.203 181.1 195.203 181.201 195.305C181.302 195.406 181.404 195.608 181.404 195.709C181.404 196.013 179.073 229.39 149.886 240.212C149.886 240.313 149.886 240.313 149.785 240.313ZM143.603 219.579L150.089 239.099C176.032 229.086 179.985 200.969 180.39 196.316L172.891 197.833L155.055 198.339L143.603 219.579Z" fill="black"/>
  <path d="M193.261 219.983C194.376 219.781 195.49 219.174 196.2 218.162C197.72 216.038 197.213 213.206 195.186 211.689C194.781 211.386 185.66 204.913 172.182 207.239C169.648 207.644 167.926 210.071 168.432 212.6C168.838 215.128 171.27 216.848 173.803 216.443C183.33 214.825 189.815 219.275 189.917 219.275C190.829 219.882 192.146 220.185 193.261 219.983Z" fill="white"/>
  <path d="M192.552 220.589C191.539 220.589 190.525 220.286 189.715 219.78C189.715 219.78 189.613 219.679 189.512 219.679C187.384 218.465 181.607 215.633 173.905 216.948C172.588 217.15 171.169 216.847 170.054 216.038C168.94 215.229 168.129 214.015 167.926 212.7C167.622 211.385 167.926 209.969 168.737 208.857C169.548 207.744 170.764 206.935 172.081 206.733C185.965 204.305 195.39 211.183 195.491 211.284C197.822 213.003 198.227 216.139 196.606 218.465C195.896 219.477 194.68 220.286 193.363 220.488C193.059 220.488 192.856 220.589 192.552 220.589ZM190.12 218.769C190.12 218.87 190.221 218.87 190.12 218.769C191.032 219.375 192.248 219.578 193.16 219.477C194.275 219.274 195.187 218.667 195.795 217.858C197.113 216.038 196.707 213.408 194.883 212.093C194.782 211.992 185.762 205.418 172.284 207.744C171.169 207.946 170.257 208.553 169.548 209.463C168.94 210.374 168.737 211.486 168.94 212.498C169.142 213.61 169.75 214.521 170.662 215.229C171.574 215.835 172.689 216.139 173.804 215.937C181.81 214.622 187.89 217.454 190.12 218.769Z" fill="black"/>
  <path d="M144.652 206.186L144.078 207.02L181.845 232.891L182.419 232.057L144.652 206.186Z" fill="black"/>
  <path d="M191.031 238.594C196.504 230.704 194.477 219.882 186.572 214.42L148.772 188.528C140.867 183.066 130.024 185.089 124.552 192.978C119.079 200.867 121.106 211.69 129.011 217.151L167.52 243.347" fill="white"/>
  <path d="M167.216 243.751L128.707 217.555C120.599 211.891 118.471 200.766 124.146 192.674C129.821 184.583 140.969 182.459 149.076 188.123L186.877 214.015C194.984 219.679 197.112 230.805 191.437 238.896L190.626 238.29C195.896 230.704 193.971 220.084 186.269 214.825L148.468 188.932C140.868 183.673 130.227 185.594 124.957 193.281C119.687 200.867 121.613 211.487 129.315 216.746L167.825 242.942L167.216 243.751Z" fill="black"/>
  <path d="M163.771 240.919L183.634 254.27C184.445 254.877 185.459 255.079 186.371 255.079C187.789 255.079 189.208 254.371 190.019 253.056C191.438 250.932 190.931 248.1 188.803 246.583L175.223 237.278" fill="white"/>
  <path d="M186.37 255.585C185.559 255.585 184.343 255.382 183.33 254.674L163.467 241.324L164.075 240.514L183.938 253.865C184.748 254.472 185.762 254.573 186.37 254.573C187.687 254.573 188.903 253.865 189.613 252.753C190.93 250.831 190.424 248.302 188.498 246.988L174.918 237.682L175.526 236.873L189.106 246.178C191.437 247.797 192.045 251.033 190.424 253.36C189.613 254.674 187.991 255.585 186.37 255.585Z" fill="black"/>
  <path d="M172.789 237.683L191.74 250.022C192.551 250.629 193.564 250.831 194.476 250.831C195.895 250.831 197.314 250.123 198.124 248.808C199.543 246.684 199.036 243.852 196.908 242.335L175.931 228.681" fill="white"/>
  <path d="M194.477 251.337C193.667 251.337 192.451 251.135 191.437 250.427L172.486 238.087L172.993 237.278L191.944 249.618C192.755 250.224 193.768 250.326 194.376 250.326C195.694 250.326 196.91 249.617 197.619 248.505C198.936 246.583 198.43 244.055 196.504 242.74L175.527 229.086L176.033 228.276L197.011 241.931C199.342 243.65 199.95 246.786 198.328 249.112C197.72 250.427 196.099 251.337 194.477 251.337Z" fill="black"/>
  <path d="M183.939 223.928L198.836 234.244C199.647 234.851 200.66 235.053 201.572 235.053C202.991 235.053 204.41 234.345 205.221 233.031C206.639 230.907 206.133 228.075 204.004 226.557L183.635 212.499" fill="white"/>
  <path d="M201.57 235.558C200.759 235.558 199.543 235.356 198.529 234.648L183.632 224.331L184.24 223.522L199.137 233.839C199.948 234.446 200.86 234.547 201.57 234.547C202.887 234.547 204.103 233.839 204.813 232.726C206.13 230.804 205.623 228.276 203.698 226.961L183.328 212.902L183.936 212.093L204.306 226.152C206.637 227.77 207.245 231.007 205.623 233.333C204.813 234.648 203.191 235.558 201.57 235.558Z" fill="black"/>
  <path d="M176.033 228.783L196.301 242.639C197.112 243.246 198.126 243.448 199.038 243.448C200.456 243.448 201.875 242.74 202.686 241.425C204.105 239.301 203.598 236.469 201.47 234.952L180.594 221.399" fill="white"/>
  <path d="M199.037 243.954C198.226 243.954 197.01 243.751 195.997 243.043L175.729 229.187L176.337 228.378L196.605 242.234C197.416 242.841 198.328 242.942 199.037 242.942C200.354 242.942 201.571 242.234 202.28 241.122C203.597 239.2 203.091 236.671 201.165 235.356L180.289 221.803L180.796 220.994L201.672 234.547C204.003 236.267 204.611 239.402 202.989 241.728C202.28 243.043 200.659 243.954 199.037 243.954Z" fill="black"/>
  <path d="M149.786 239.806L80.3676 191.865C73.9831 187.313 69.8281 180.233 69.0173 172.445C68.2066 164.657 70.9428 156.869 76.3139 151.205L131.849 93.655C142.388 82.7315 159.921 82.7315 170.46 93.655C180.391 103.972 180.493 120.256 170.561 130.673L137.119 165.77L180.898 195.708C167.622 206.429 157.286 220.488 151.104 236.368L149.786 239.806Z" fill="white"/>
  <path d="M149.787 240.312C149.686 240.312 149.584 240.312 149.483 240.211L80.0642 192.269C73.5784 187.617 69.322 180.436 68.5113 172.445C67.7006 164.556 70.4368 156.667 75.9092 150.801L131.444 93.2506C136.613 87.89 143.605 84.8557 151.105 84.8557C158.604 84.8557 165.596 87.7889 170.765 93.2506C180.899 103.769 181 120.357 170.866 130.977L137.829 165.669L181.102 195.304C181.203 195.405 181.304 195.506 181.304 195.708C181.304 195.911 181.203 196.012 181.102 196.113C167.826 206.834 157.59 220.792 151.51 236.57L150.192 240.009C150.091 240.11 149.99 240.312 149.888 240.312H149.787ZM151.206 85.9683C144.011 85.9683 137.221 88.8003 132.255 93.9586L76.72 151.509C71.3489 157.173 68.8153 164.759 69.5247 172.344C70.3355 179.93 74.3891 186.909 80.6723 191.359L149.584 238.896L150.699 236.064C156.78 220.387 167.015 206.429 180.088 195.607L136.917 166.073C136.815 165.972 136.714 165.871 136.714 165.669C136.714 165.568 136.714 165.365 136.815 165.264L170.258 130.168C179.987 119.952 179.987 103.972 170.157 93.8574C165.09 88.8003 158.401 85.9683 151.206 85.9683Z" fill="black"/>
  <path d="M124.35 170.119L123.539 169.512C124.856 167.995 128.91 167.591 132.558 167.186C134.281 166.984 136.612 166.781 137.22 166.478C137.119 166.377 137.119 166.377 136.916 166.276C133.471 163.949 126.377 165.264 126.377 165.264L126.174 164.253C126.478 164.152 133.673 162.938 137.524 165.467C137.727 165.669 138.436 166.073 138.335 166.781C138.132 167.692 136.409 167.894 132.761 168.299C129.62 168.501 125.363 168.905 124.35 170.119Z" fill="black"/>
  <path d="M290.146 144.53C289.639 146.553 287.409 147.767 284.977 147.362C282.342 146.958 280.518 144.733 280.822 142.406C280.822 142.305 281.937 134.214 280.62 123.695C280.315 121.369 282.241 119.447 284.775 119.346C287.409 119.245 289.74 121.065 290.044 123.392C291.463 135.023 290.348 143.721 290.247 144.025C290.247 144.227 290.247 144.429 290.146 144.53Z" fill="white"/>
  <path d="M285.891 147.969C285.587 147.969 285.182 147.969 284.878 147.868C282.04 147.463 280.013 144.935 280.317 142.305V142.204C280.52 140.181 281.229 132.798 280.115 123.695C280.013 122.582 280.317 121.368 281.027 120.458C281.939 119.447 283.256 118.84 284.675 118.739C287.513 118.638 290.148 120.66 290.452 123.189C291.769 134.315 290.857 142.811 290.654 143.923C290.654 144.126 290.654 144.429 290.553 144.631C290.046 146.654 288.121 147.969 285.891 147.969ZM284.979 119.851C284.878 119.851 284.878 119.851 284.776 119.851C283.56 119.851 282.547 120.357 281.838 121.166C281.229 121.874 281.027 122.683 281.128 123.594C282.243 132.798 281.635 140.282 281.331 142.305V142.406C281.027 144.429 282.75 146.452 285.08 146.755C287.31 147.16 289.235 146.047 289.641 144.328C289.641 144.227 289.641 144.227 289.742 144.126C289.742 144.024 289.742 144.024 289.742 143.923C289.742 143.822 289.742 143.822 289.742 143.721C289.945 143.013 290.857 134.416 289.539 123.29C289.235 121.47 287.209 119.851 284.979 119.851Z" fill="black"/>
  <path d="M281.532 143.924C281.026 145.947 278.796 147.161 276.364 146.756C273.729 146.352 271.905 144.127 272.209 141.8C272.209 141.699 273.324 133.608 272.006 123.089C271.702 120.763 273.628 118.841 276.161 118.74C278.796 118.639 281.127 120.459 281.431 122.786C282.85 134.417 281.735 143.115 281.634 143.419C281.634 143.621 281.634 143.722 281.532 143.924Z" fill="white"/>
  <path d="M277.278 147.363C276.974 147.363 276.568 147.363 276.264 147.261C273.427 146.857 271.4 144.328 271.704 141.699V141.597C271.907 139.575 272.616 132.191 271.501 123.088C271.4 121.976 271.704 120.762 272.414 119.852C273.326 118.84 274.643 118.233 276.062 118.132C279.001 118.031 281.534 120.054 281.838 122.583C283.156 133.708 282.244 142.204 282.041 143.317C282.041 143.519 282.041 143.721 281.94 143.924C281.534 146.048 279.609 147.363 277.278 147.363ZM276.366 119.245C276.264 119.245 276.264 119.245 276.163 119.245C274.947 119.245 273.934 119.751 273.224 120.56C272.616 121.268 272.413 122.077 272.515 122.987C273.63 132.191 273.022 139.676 272.718 141.699V141.8C272.413 143.823 274.136 145.845 276.467 146.149C278.697 146.553 280.622 145.441 281.028 143.721V143.62C281.028 143.519 281.028 143.519 281.028 143.317C281.028 143.216 281.028 143.216 281.028 143.115C281.23 142.407 282.142 133.809 280.825 122.684C280.622 120.863 278.595 119.245 276.366 119.245Z" fill="black"/>
  <path d="M272.818 143.924C272.311 145.947 270.081 147.161 267.649 146.756C265.014 146.352 263.19 144.127 263.494 141.8C263.494 141.699 264.609 133.608 263.291 123.089C262.987 120.763 264.913 118.841 267.446 118.74C270.081 118.639 272.412 120.459 272.716 122.786C274.135 134.417 273.02 143.115 272.919 143.419C272.919 143.621 272.919 143.823 272.818 143.924Z" fill="white"/>
  <path d="M268.559 147.363C268.255 147.363 267.85 147.363 267.546 147.261C264.708 146.857 262.681 144.328 262.985 141.699V141.597C263.188 139.575 263.897 132.191 262.783 123.088C262.681 121.976 262.985 120.762 263.695 119.852C264.607 118.84 265.924 118.233 267.343 118.132C270.282 118.031 272.815 120.054 273.119 122.583C274.437 133.708 273.525 142.204 273.322 143.317C273.322 143.519 273.322 143.823 273.221 144.025C272.714 146.048 270.789 147.363 268.559 147.363ZM267.647 119.245C267.546 119.245 267.546 119.245 267.444 119.245C266.228 119.245 265.215 119.751 264.505 120.56C263.897 121.268 263.695 122.077 263.796 122.987C264.911 132.191 264.303 139.676 263.999 141.699V141.8C263.695 143.823 265.418 145.845 267.748 146.149C269.978 146.553 271.903 145.441 272.309 143.721C272.309 143.62 272.309 143.62 272.41 143.519C272.41 143.418 272.41 143.418 272.41 143.317C272.41 143.216 272.41 143.216 272.41 143.115C272.613 142.407 273.525 133.809 272.207 122.684C271.903 120.863 269.877 119.245 267.647 119.245Z" fill="black"/>
  <path d="M264.204 144.53C263.697 146.553 261.468 147.767 259.036 147.362C256.401 146.958 254.577 144.733 254.881 142.406C254.881 142.305 255.996 134.214 254.678 123.695C254.374 121.369 256.3 119.447 258.833 119.346C261.468 119.245 263.799 121.065 264.103 123.392C265.522 135.023 264.407 143.721 264.306 144.025C264.306 144.227 264.306 144.429 264.204 144.53Z" fill="white"/>
  <path d="M259.946 147.969C259.642 147.969 259.236 147.969 258.932 147.868C256.095 147.463 254.068 144.935 254.372 142.305V142.204C254.575 140.181 255.284 132.798 254.169 123.695C254.068 122.582 254.372 121.368 255.081 120.458C255.994 119.447 257.311 118.84 258.73 118.739C261.567 118.638 264.202 120.66 264.506 123.189C265.824 134.315 264.912 142.811 264.709 143.923C264.709 144.126 264.709 144.429 264.608 144.631C264.101 146.654 262.175 147.969 259.946 147.969ZM259.034 119.851C258.932 119.851 258.932 119.851 258.831 119.851C257.615 119.851 256.602 120.357 255.892 121.166C255.284 121.874 255.081 122.683 255.183 123.594C256.298 132.798 255.69 140.282 255.385 142.305V142.406C255.081 144.429 256.804 146.452 259.135 146.755C261.365 147.16 263.29 146.047 263.695 144.328C263.695 144.227 263.695 144.227 263.797 144.126C263.797 144.024 263.797 144.024 263.797 143.923C263.797 143.822 263.797 143.822 263.797 143.721C264 143.013 264.912 134.416 263.594 123.29C263.29 121.47 261.263 119.851 259.034 119.851Z" fill="black"/>
  <path d="M426.143 336.5L386.012 367.652L385.809 367.854L383.782 369.472C383.478 369.776 383.073 369.978 382.769 370.281C382.87 370.989 382.971 371.596 383.073 372.304C383.174 372.608 383.174 372.911 383.275 373.215C383.782 376.249 384.492 379.384 385.201 382.722C385.404 383.936 385.708 385.048 386.012 386.262H327.031L325.916 379.485C325.106 374.53 325.004 369.472 325.511 364.617C327.132 349.041 335.037 334.477 347.603 324.666C348.009 324.363 348.515 323.958 348.921 323.655L390.876 291.087C395.538 287.445 401.01 285.423 406.483 285.119C407.192 285.018 407.901 285.018 408.611 285.018C408.712 285.018 408.712 285.018 408.814 285.018H408.915C416.414 285.119 423.812 288.052 429.284 293.716C429.994 294.424 430.703 295.234 431.311 296.043C441.04 308.686 438.709 326.79 426.143 336.5Z" fill="white"/>
  <path d="M386.013 386.769H327.032C326.829 386.769 326.525 386.566 326.525 386.364L325.41 379.587C324.6 374.732 324.498 369.675 325.005 364.618C326.626 348.739 334.734 334.073 347.3 324.363C347.503 324.161 347.706 324.06 348.01 323.858C348.212 323.655 348.415 323.554 348.618 323.352L390.573 290.784C395.235 287.143 400.707 285.019 406.483 284.715C407.193 284.614 407.902 284.614 408.612 284.614H408.814H408.916C416.82 284.715 424.218 287.851 429.691 293.515C430.4 294.223 431.109 295.032 431.717 295.841C441.548 308.686 439.217 327.094 426.448 337.006L386.317 368.057L386.114 368.259L384.087 369.878C383.986 369.979 383.783 370.181 383.58 370.282C383.479 370.383 383.378 370.383 383.276 370.484C383.276 370.788 383.378 370.99 383.378 371.193C383.479 371.496 383.479 371.901 383.58 372.204C383.58 372.305 383.682 372.507 383.682 372.609C383.682 372.71 383.682 372.811 383.783 373.013C384.188 375.542 384.695 377.969 385.303 380.599L385.708 382.521C385.911 383.532 386.114 384.442 386.317 385.454L386.519 386.061C386.519 386.162 386.519 386.364 386.418 386.465C386.317 386.667 386.215 386.769 386.013 386.769ZM327.437 385.757H385.303C385.1 384.746 384.796 383.835 384.594 382.824L384.188 380.902C383.58 378.273 383.074 375.744 382.668 373.317C382.668 373.215 382.567 373.013 382.567 372.912C382.567 372.811 382.567 372.71 382.466 372.507C382.364 372.103 382.364 371.698 382.263 371.395C382.162 371.091 382.162 370.687 382.06 370.383C382.06 370.181 382.06 370.08 382.162 369.979C382.364 369.776 382.567 369.675 382.77 369.473C382.972 369.372 383.074 369.271 383.175 369.17L385.404 367.349L425.536 336.197C437.899 326.69 440.129 308.787 430.603 296.448C429.995 295.639 429.285 294.931 428.576 294.122C423.306 288.66 416.212 285.626 408.51 285.525H408.612C407.902 285.525 407.193 285.525 406.585 285.626C401.011 285.929 395.741 287.952 391.181 291.492L349.226 324.06C349.023 324.262 348.82 324.363 348.618 324.566C348.415 324.768 348.111 324.97 347.908 325.071C335.646 334.68 327.64 349.143 326.018 364.719C325.512 369.675 325.613 374.631 326.424 379.486L327.437 385.757Z" fill="black"/>
  <path d="M372.838 382.015L371.926 381.61C373.75 377.059 380.236 373.923 383.073 372.71C381.148 372.204 377.297 371.9 372.331 374.429L371.824 373.519C379.323 369.574 384.492 372.103 384.796 372.204C384.999 372.305 385.1 372.507 385.1 372.71C385.1 372.912 384.999 373.114 384.796 373.114C384.593 373.215 374.966 376.654 372.838 382.015Z" fill="black"/>
  <path d="M505.191 311.113L502.657 365.832L501.948 380.093V380.7V380.801V381.307L501.745 386.263H385L385.203 382.723L385.912 367.956V367.652L387.331 338.017L388.851 305.753C389.358 295.335 397.06 287.041 406.89 285.322C407.498 285.221 408.106 285.12 408.714 285.12H408.815C409.727 285.019 410.741 285.019 411.653 285.019L429.185 285.828L458.777 287.244L462.729 287.446L471.85 287.851L481.173 288.255L484.517 288.457C486.037 288.559 487.456 288.761 488.875 289.165C489.584 289.368 490.192 289.57 490.902 289.772C491.307 289.873 491.712 290.076 492.219 290.278C492.827 290.581 493.537 290.885 494.145 291.188C501.036 294.931 505.596 302.617 505.191 311.113Z" fill="white"/>
  <path d="M501.744 386.769H384.999C384.898 386.769 384.695 386.667 384.594 386.566C384.492 386.465 384.492 386.364 384.492 386.162L384.695 382.622L385.404 367.855V367.551L388.343 305.652C388.85 295.133 396.45 286.536 406.787 284.716C407.395 284.614 408.003 284.513 408.713 284.513H408.814C409.726 284.412 410.74 284.412 411.652 284.412L429.184 285.221L471.848 287.244L481.172 287.649L484.516 287.851C486.239 287.952 487.658 288.154 488.975 288.559C489.38 288.66 489.684 288.761 489.988 288.862C490.293 288.964 490.597 289.065 491.002 289.166C491.306 289.267 491.61 289.368 491.914 289.469L492.319 289.672C492.623 289.874 492.927 289.975 493.333 290.177C493.637 290.38 494.042 290.481 494.346 290.683C501.643 294.628 506.102 302.618 505.696 311.114L503.163 365.832L502.453 380.093V381.307L502.251 386.263C502.251 386.566 502.048 386.769 501.744 386.769ZM385.506 385.757H501.237L501.44 380.093L502.149 365.832L504.683 311.114C505.088 303.022 500.832 295.437 493.941 291.694C493.637 291.593 493.333 291.391 493.029 291.29C492.725 291.088 492.319 290.986 492.015 290.784C491.914 290.784 491.711 290.683 491.61 290.582C491.306 290.481 491.002 290.38 490.799 290.278C490.394 290.177 490.09 290.076 489.786 289.975C489.482 289.874 489.076 289.773 488.772 289.672C487.455 289.267 486.138 289.065 484.516 288.964L481.172 288.761L458.775 287.75L411.652 285.525C410.74 285.525 409.827 285.525 408.915 285.626H408.713C408.105 285.626 407.598 285.727 406.99 285.828C397.058 287.548 389.863 295.74 389.357 305.753L386.418 367.653V367.956L385.506 385.757Z" fill="black"/>
  <path d="M559.509 386.163H498.806C499.92 384.342 500.934 382.421 501.947 380.701C502.049 380.6 502.049 380.499 502.15 380.297C502.049 380.196 502.049 380.095 501.947 379.993C501.745 379.69 501.542 379.488 501.441 379.184L472.356 334.176C463.742 320.825 467.593 303.024 480.97 294.325C484.517 292.1 488.266 290.684 492.117 290.077C493.536 289.875 495.056 289.774 496.576 289.774C506.001 289.774 515.324 294.426 520.898 302.922L549.679 347.527C557.482 358.956 560.928 372.711 559.509 386.163Z" fill="white"/>
  <path d="M559.509 386.667H498.806C498.603 386.667 498.502 386.566 498.4 386.364C498.299 386.162 498.299 385.959 498.4 385.858C499.008 384.847 499.616 383.734 500.224 382.622C500.63 381.813 501.035 381.105 501.542 380.397C501.542 380.397 501.542 380.295 501.643 380.295C501.643 380.295 501.643 380.194 501.542 380.194C501.441 380.093 501.441 379.992 501.339 379.992C501.238 379.79 501.035 379.588 500.934 379.385L471.849 334.377C463.133 320.823 467.086 302.618 480.564 293.818C484.111 291.593 487.962 290.076 491.914 289.469C493.333 289.267 494.853 289.166 496.475 289.166C506.508 289.166 515.73 294.122 521.202 302.517L549.983 347.121C557.786 358.55 561.333 372.406 559.914 386.061C560.016 386.465 559.813 386.667 559.509 386.667ZM499.718 385.656H559.104C560.421 372.406 556.976 358.954 549.274 347.829L520.493 303.225C515.223 295.133 506.204 290.278 496.576 290.278C495.056 290.278 493.536 290.379 492.218 290.582C488.367 291.189 484.719 292.605 481.274 294.729C468.201 303.225 464.35 320.823 472.862 333.871L501.947 378.88C501.947 378.88 501.947 378.981 502.049 378.981C502.049 379.082 502.15 379.284 502.353 379.385C502.454 379.486 502.454 379.587 502.555 379.587C502.657 379.689 502.657 379.79 502.758 379.79C502.961 379.992 502.961 380.194 502.859 380.397C502.859 380.498 502.859 380.498 502.758 380.498C502.758 380.599 502.657 380.7 502.555 380.801C502.15 381.509 501.745 382.217 501.339 383.026C500.63 384.038 500.224 384.847 499.718 385.656Z" fill="black"/>
  <path d="M506.302 382.419C503.161 382.419 501.235 381.509 501.033 381.408C500.83 381.306 500.729 381.104 500.729 380.902C500.729 380.7 500.83 380.497 501.033 380.497C501.134 380.497 512.079 376.553 514.511 370.383L515.423 370.788C513.295 376.148 505.694 379.688 502.654 381.003C504.681 381.61 509.343 382.116 515.119 379.081L515.626 379.992C511.977 381.913 508.734 382.419 506.302 382.419Z" fill="black"/>
  <path d="M414.692 248.506C420.009 248.506 424.319 244.204 424.319 238.897C424.319 233.591 420.009 229.289 414.692 229.289C409.375 229.289 405.064 233.591 405.064 238.897C405.064 244.204 409.375 248.506 414.692 248.506Z" fill="black"/>
  <path d="M468.301 268.43C475.633 268.43 481.577 262.498 481.577 255.18C481.577 247.863 475.633 241.93 468.301 241.93C460.969 241.93 455.025 247.863 455.025 255.18C455.025 262.498 460.969 268.43 468.301 268.43Z" fill="black"/>
  <path d="M468.3 268.935C460.699 268.935 454.518 262.766 454.518 255.18C454.518 247.594 460.699 241.425 468.3 241.425C475.901 241.425 482.082 247.594 482.082 255.18C482.082 262.766 475.901 268.935 468.3 268.935ZM468.3 242.436C461.307 242.436 455.531 248.201 455.531 255.18C455.531 262.159 461.307 267.924 468.3 267.924C475.293 267.924 481.069 262.159 481.069 255.18C481.069 248.201 475.293 242.436 468.3 242.436Z" fill="black"/>
  <path d="M474.482 279.354C478.96 279.354 482.59 275.732 482.59 271.263C482.59 266.794 478.96 263.171 474.482 263.171C470.005 263.171 466.375 266.794 466.375 271.263C466.375 275.732 470.005 279.354 474.482 279.354Z" fill="black"/>
  <path d="M474.481 279.859C469.718 279.859 465.867 276.016 465.867 271.262C465.867 266.508 469.718 262.665 474.481 262.665C479.244 262.665 483.095 266.508 483.095 271.262C483.095 276.016 479.244 279.859 474.481 279.859ZM474.481 263.676C470.326 263.676 466.881 267.115 466.881 271.262C466.881 275.409 470.326 278.848 474.481 278.848C478.636 278.848 482.082 275.409 482.082 271.262C482.082 267.115 478.636 263.676 474.481 263.676Z" fill="black"/>
  <path d="M476.613 289.873C480.251 289.873 483.2 286.93 483.2 283.299C483.2 279.668 480.251 276.725 476.613 276.725C472.975 276.725 470.025 279.668 470.025 283.299C470.025 286.93 472.975 289.873 476.613 289.873Z" fill="black"/>
  <path d="M476.611 290.378C472.659 290.378 469.518 287.242 469.518 283.298C469.518 279.353 472.659 276.218 476.611 276.218C480.564 276.218 483.705 279.353 483.705 283.298C483.705 287.242 480.564 290.378 476.611 290.378ZM476.611 277.229C473.267 277.229 470.531 279.96 470.531 283.298C470.531 286.636 473.267 289.366 476.611 289.366C479.956 289.366 482.692 286.636 482.692 283.298C482.692 279.96 479.956 277.229 476.611 277.229Z" fill="black"/>
  <path d="M474.99 299.886C478.012 299.886 480.462 297.441 480.462 294.424C480.462 291.408 478.012 288.963 474.99 288.963C471.968 288.963 469.518 291.408 469.518 294.424C469.518 297.441 471.968 299.886 474.99 299.886Z" fill="black"/>
  <path d="M474.989 300.391C471.645 300.391 469.01 297.762 469.01 294.424C469.01 291.086 471.645 288.457 474.989 288.457C478.333 288.457 480.968 291.086 480.968 294.424C480.968 297.762 478.333 300.391 474.989 300.391ZM474.989 289.468C472.253 289.468 470.023 291.693 470.023 294.424C470.023 297.155 472.253 299.38 474.989 299.38C477.725 299.38 479.955 297.155 479.955 294.424C479.955 291.693 477.725 289.468 474.989 289.468Z" fill="black"/>
  <path d="M472.454 304.943C474.189 304.943 475.596 303.539 475.596 301.808C475.596 300.076 474.189 298.672 472.454 298.672C470.719 298.672 469.312 300.076 469.312 301.808C469.312 303.539 470.719 304.943 472.454 304.943Z" fill="#FEBCB4"/>
  <path d="M469.72 311.618C471.958 311.618 473.773 309.807 473.773 307.573C473.773 305.338 471.958 303.527 469.72 303.527C467.481 303.527 465.666 305.338 465.666 307.573C465.666 309.807 467.481 311.618 469.72 311.618Z" fill="black"/>
  <path d="M469.719 312.124C467.185 312.124 465.158 310.101 465.158 307.572C465.158 305.044 467.185 303.021 469.719 303.021C472.252 303.021 474.279 305.044 474.279 307.572C474.279 310.101 472.252 312.124 469.719 312.124ZM469.719 304.032C467.793 304.032 466.172 305.65 466.172 307.572C466.172 309.494 467.793 311.112 469.719 311.112C471.644 311.112 473.266 309.494 473.266 307.572C473.266 305.65 471.644 304.032 469.719 304.032Z" fill="black"/>
  <path d="M411.044 256.901C414.849 256.901 417.935 253.822 417.935 250.023C417.935 246.225 414.849 243.146 411.044 243.146C407.238 243.146 404.152 246.225 404.152 250.023C404.152 253.822 407.238 256.901 411.044 256.901Z" fill="white"/>
  <path d="M411.042 257.406C406.989 257.406 403.645 254.068 403.645 250.023C403.645 245.977 406.989 242.639 411.042 242.639C415.096 242.639 418.44 245.977 418.44 250.023C418.44 254.068 415.096 257.406 411.042 257.406ZM411.042 243.651C407.495 243.651 404.658 246.483 404.658 250.023C404.658 253.563 407.495 256.395 411.042 256.395C414.589 256.395 417.427 253.563 417.427 250.023C417.427 246.483 414.589 243.651 411.042 243.651Z" fill="black"/>
  <path d="M443.469 300.088C435.261 299.785 428.876 292.907 429.18 284.714L430.092 260.541C430.194 258.923 431.511 257.608 433.133 257.709L459.887 254.372L458.873 285.726C458.569 294.02 451.678 300.392 443.469 300.088Z" fill="white"/>
  <path d="M444.079 300.594C443.877 300.594 443.674 300.594 443.471 300.594C439.316 300.391 435.567 298.672 432.831 295.739C429.993 292.704 428.574 288.861 428.777 284.714L429.689 260.541C429.79 258.619 431.412 257.102 433.236 257.203L459.889 253.865C460.091 253.865 460.193 253.865 460.294 253.967C460.395 254.068 460.497 254.169 460.497 254.371L459.483 285.725C459.281 289.872 457.558 293.716 454.619 296.447C451.579 299.178 447.93 300.594 444.079 300.594ZM433.033 258.215C431.716 258.215 430.702 259.226 430.601 260.541L429.689 284.714C429.588 288.557 430.905 292.199 433.54 295.031C436.175 297.863 439.722 299.481 443.573 299.582C447.424 299.784 451.072 298.368 453.91 295.739C456.747 293.109 458.369 289.569 458.47 285.725L459.483 254.978L433.337 258.215C433.135 258.215 433.135 258.215 433.033 258.215Z" fill="black"/>
  <path d="M457.661 259.935C458.168 260.238 458.776 260.44 459.384 260.643C459.384 260.643 459.384 260.643 459.485 260.643V260.44C459.992 258.62 460.195 256.698 460.296 254.675C460.397 251.742 460.093 248.91 459.283 246.28C456.242 247.089 454.013 249.921 453.912 253.158C453.608 256.091 455.229 258.62 457.661 259.935Z" fill="black"/>
  <path d="M459.484 261.148H459.382C459.281 261.148 459.281 261.148 459.18 261.148C458.572 260.946 457.964 260.743 457.356 260.44C454.619 258.923 452.998 256.192 453.302 253.158C453.403 249.719 455.734 246.684 459.078 245.875C459.382 245.774 459.585 245.976 459.687 246.179C460.497 248.707 460.801 251.64 460.7 254.776C460.599 257.203 460.295 259.024 459.889 260.642V260.743C459.991 260.946 459.788 261.148 459.484 261.148ZM458.977 246.887C456.342 247.797 454.518 250.326 454.417 253.158C454.113 255.787 455.532 258.215 457.862 259.428C458.166 259.631 458.572 259.833 458.977 259.934C459.382 258.417 459.585 256.799 459.687 254.574C459.889 251.843 459.585 249.213 458.977 246.887Z" fill="black"/>
  <path d="M442.054 278.95C439.622 279.658 436.886 279.961 434.251 279.961C420.367 279.455 409.422 267.824 409.929 253.866C410.436 240.01 422.09 229.086 436.075 229.592C446.412 229.997 455.026 236.47 458.573 245.37C459.384 245.067 460.194 244.966 461.106 244.966C464.856 245.067 467.795 248.303 467.694 252.046C467.592 255.788 464.349 258.721 460.6 258.62C460.397 258.62 460.296 258.62 460.093 258.62L458.978 284.108" fill="white"/>
  <path d="M459.484 284.107H458.47L459.585 258.619C459.585 258.316 459.788 258.114 460.092 258.114H460.598C464.145 258.215 467.084 255.484 467.185 252.045C467.185 250.326 466.577 248.707 465.463 247.494C464.348 246.28 462.726 245.572 461.105 245.471C460.193 245.471 459.484 245.572 458.774 245.875C458.47 245.977 458.267 245.875 458.166 245.572C454.619 236.57 445.904 230.502 436.074 230.097C422.494 229.591 410.941 240.313 410.434 253.866C409.928 267.419 420.67 278.949 434.25 279.455C436.986 279.455 439.621 279.151 441.85 278.443L442.154 279.455C439.823 280.163 437.087 280.466 434.25 280.466C420.062 279.961 408.914 268.026 409.421 253.866C409.928 239.706 421.886 228.58 436.074 229.086C446.106 229.49 455.025 235.559 458.875 244.763C459.585 244.561 460.294 244.459 461.105 244.459C463.03 244.561 464.855 245.37 466.172 246.786C467.489 248.202 468.199 250.123 468.199 252.045C468.098 253.967 467.287 255.787 465.868 257.102C464.449 258.417 462.524 259.125 460.598 259.125L459.484 284.107Z" fill="black"/>
  <path d="M459.992 248.405C461.917 248.506 463.336 250.023 463.234 251.945C463.133 253.866 461.613 255.282 459.688 255.181" fill="white"/>
  <path d="M459.89 255.686C459.789 255.686 459.789 255.686 459.688 255.686L459.789 254.674C460.6 254.674 461.309 254.472 461.917 253.966C462.424 253.461 462.829 252.753 462.829 251.943C462.93 250.325 461.714 249.01 460.093 248.909L460.194 247.898C462.424 247.999 464.045 249.718 463.944 251.943C463.842 253.056 463.437 253.966 462.728 254.674C461.816 255.382 460.904 255.686 459.89 255.686Z" fill="black"/>
  <path d="M423.422 254.356C423.534 253.244 422.812 252.262 421.809 252.162C420.807 252.061 419.904 252.881 419.792 253.993C419.68 255.104 420.402 256.087 421.405 256.187C422.407 256.287 423.31 255.468 423.422 254.356Z" fill="black"/>
  <path d="M418.34 248.404L417.631 247.696C417.631 247.696 420.874 244.763 425.13 247.292L424.623 248.202C421.076 245.977 418.442 248.303 418.34 248.404Z" fill="black"/>
  <path d="M441.053 256.065C441.165 254.953 440.443 253.971 439.44 253.87C438.438 253.77 437.535 254.59 437.423 255.701C437.311 256.813 438.033 257.795 439.036 257.896C440.038 257.996 440.941 257.176 441.053 256.065Z" fill="black"/>
  <path d="M436.077 250.125L435.367 249.417C435.367 249.417 438.61 246.484 442.866 249.012L442.36 249.922C438.813 247.697 436.178 250.024 436.077 250.125Z" fill="black"/>
  <path d="M433.033 273.285L432.932 272.274C437.391 271.768 437.188 267.723 437.188 267.52L438.201 267.419C438.1 267.52 438.404 272.577 433.033 273.285Z" fill="black"/>
  <path d="M428.979 264.993C428.472 264.993 427.155 264.892 426.344 264.083C425.838 263.577 425.635 262.97 425.736 262.161C425.838 261.453 426.142 260.846 426.648 260.442C427.358 259.936 428.27 259.835 428.878 259.835L429.689 251.845L430.702 251.946L429.891 260.442C429.891 260.543 429.79 260.745 429.689 260.745C429.587 260.745 429.486 260.846 429.283 260.846C429.283 260.846 428.067 260.644 427.358 261.251C427.054 261.453 426.851 261.858 426.851 262.262C426.851 262.768 426.952 263.072 427.155 263.375C427.662 263.982 428.878 263.982 429.182 263.982L429.283 264.993C429.182 264.993 429.081 264.993 428.979 264.993Z" fill="black"/>
  <path d="M417.428 215.634C408.915 214.117 400.909 219.781 399.389 228.176C397.869 236.571 403.544 244.662 411.955 246.179C420.367 247.696 428.474 242.032 429.994 233.638" fill="black"/>
  <path d="M414.692 246.887C413.78 246.887 412.766 246.785 411.854 246.583C403.139 244.965 397.261 236.671 398.882 227.973C400.504 219.275 408.814 213.509 417.529 215.027L417.327 216.038C409.219 214.622 401.315 219.983 399.896 228.175C398.376 236.267 403.848 244.156 412.057 245.572C420.164 247.089 428.069 241.627 429.488 233.435L430.501 233.637C429.69 237.784 427.359 241.526 423.812 243.953C421.076 245.976 417.935 246.887 414.692 246.887Z" fill="black"/>
  <path d="M423.712 238.797C424.016 239.403 424.32 239.909 424.624 240.516C428.981 247.495 437.089 251.945 445.905 251.136C458.37 250.023 467.491 238.999 466.376 226.659C465.262 214.219 453.202 214.32 440.737 215.432C431.414 216.242 425.029 213.308 422.293 221.602" fill="black"/>
  <path d="M443.877 251.742C435.973 251.742 428.372 247.595 424.116 240.818C423.913 240.515 423.812 240.211 423.609 239.908C423.406 239.605 423.305 239.301 423.102 238.998L424.014 238.593C424.116 238.897 424.318 239.2 424.42 239.402C424.623 239.706 424.724 240.009 424.927 240.313C429.284 247.291 437.493 251.438 445.701 250.629C451.579 250.123 456.95 247.291 460.7 242.74C464.45 238.189 466.274 232.525 465.767 226.658C464.652 214.723 453.302 214.723 440.634 215.937C438.202 216.139 436.074 216.139 434.047 216.038C428.271 215.937 424.521 215.836 422.596 221.702L421.684 221.399C423.812 214.825 428.372 214.926 434.149 215.027C436.074 215.027 438.304 215.128 440.634 214.926C453.302 213.813 465.666 213.813 466.78 226.658C467.287 232.727 465.463 238.795 461.511 243.448C457.558 248.202 451.985 251.135 445.803 251.641C445.296 251.742 444.587 251.742 443.877 251.742Z" fill="black"/>
  <path d="M450.363 216.342C449.552 207.138 441.343 200.26 432.121 201.07C422.899 201.879 416.008 210.071 416.819 219.275C417.021 220.995 417.427 222.613 418.035 224.13C418.542 225.344 419.15 226.456 419.96 227.569C420.872 228.783 421.886 229.895 423.001 230.806" fill="black"/>
  <path d="M422.696 231.21C421.581 230.3 420.567 229.187 419.554 227.872C418.743 226.76 418.135 225.647 417.527 224.332C416.919 222.815 416.514 221.096 416.311 219.376C415.5 209.869 422.594 201.474 432.12 200.564C436.681 200.159 441.241 201.575 444.788 204.609C448.335 207.542 450.565 211.79 450.97 216.342L449.957 216.443C449.551 212.094 447.524 208.25 444.18 205.418C440.836 202.586 436.579 201.272 432.323 201.676C423.304 202.485 416.717 210.374 417.527 219.376C417.73 220.994 418.135 222.613 418.743 224.13C419.25 225.344 419.858 226.456 420.567 227.468C421.48 228.681 422.493 229.794 423.506 230.603L422.696 231.21Z" fill="black"/>
  <path d="M464.857 251.238C471.909 251.238 477.626 245.532 477.626 238.494C477.626 231.455 471.909 225.75 464.857 225.75C457.805 225.75 452.088 231.455 452.088 238.494C452.088 245.532 457.805 251.238 464.857 251.238Z" fill="black"/>
  <path d="M464.856 251.742C457.559 251.742 451.58 245.775 451.58 238.492C451.58 231.21 457.559 225.243 464.856 225.243C472.152 225.243 478.132 231.21 478.132 238.492C478.132 245.775 472.152 251.742 464.856 251.742ZM464.856 226.254C458.066 226.254 452.593 231.716 452.593 238.492C452.593 245.269 458.066 250.731 464.856 250.731C471.646 250.731 477.118 245.269 477.118 238.492C477.118 231.716 471.646 226.254 464.856 226.254Z" fill="black"/>
  <path d="M447.019 232.222C449.349 234.244 452.187 235.458 455.025 235.66C459.18 235.964 463.537 234.447 466.476 231.008C471.543 225.344 471.037 216.544 465.26 211.487C459.585 206.43 450.768 206.936 445.701 212.701" fill="black"/>
  <path d="M456.037 236.165C455.632 236.165 455.328 236.165 454.922 236.165C451.983 235.963 449.045 234.648 446.612 232.625L447.322 231.816C449.551 233.738 452.287 234.952 455.024 235.154C459.28 235.457 463.435 233.839 466.07 230.704C468.401 228.074 469.617 224.635 469.414 221.095C469.211 217.555 467.59 214.217 464.955 211.891C462.32 209.565 458.875 208.351 455.328 208.553C451.781 208.756 448.436 210.374 446.106 213.004L445.295 212.296C447.828 209.363 451.375 207.744 455.226 207.441C459.077 207.239 462.726 208.452 465.563 210.981C468.401 213.509 470.123 217.049 470.427 220.893C470.63 224.736 469.414 228.377 466.881 231.209C464.246 234.446 460.293 236.165 456.037 236.165Z" fill="black"/>
  <path d="M517.454 391.522C516.947 393.545 514.718 394.759 512.286 394.354C509.651 393.95 507.827 391.725 508.131 389.398C508.131 389.297 509.246 381.206 507.928 370.687C507.624 368.361 509.55 366.439 512.083 366.338C514.617 366.237 517.049 368.057 517.353 370.383C518.772 382.015 517.657 390.713 517.555 391.017C517.555 391.219 517.454 391.421 517.454 391.522Z" fill="white"/>
  <path d="M513.196 394.961C512.892 394.961 512.486 394.961 512.182 394.86C509.345 394.455 507.318 391.927 507.622 389.297V389.196C507.825 387.173 508.534 379.79 507.419 370.687C507.318 369.574 507.622 368.36 508.331 367.45C509.244 366.439 510.561 365.832 511.98 365.731C514.817 365.63 517.452 367.652 517.756 370.181C519.074 381.307 518.162 389.803 517.959 390.915C517.959 391.118 517.959 391.219 517.857 391.32V391.421C517.452 393.646 515.527 394.961 513.196 394.961ZM512.284 366.843C512.182 366.843 512.182 366.843 512.081 366.843C510.865 366.843 509.852 367.349 509.142 368.158C508.534 368.866 508.331 369.675 508.433 370.586C509.548 379.79 508.94 387.274 508.635 389.297V389.398C508.331 391.421 510.054 393.444 512.385 393.747C514.513 394.152 516.54 393.039 516.945 391.32C516.945 391.219 516.945 391.118 517.047 391.118C517.047 391.016 517.047 391.016 517.047 390.915C517.047 390.814 517.047 390.814 517.047 390.713C517.249 390.005 518.162 381.408 516.844 370.282C516.54 368.462 514.513 366.843 512.284 366.843Z" fill="black"/>
  <path d="M508.843 390.814C508.336 392.837 506.107 394.051 503.674 393.646C501.04 393.242 499.215 391.017 499.519 388.69C499.519 388.589 500.634 380.498 499.317 369.979C499.013 367.653 500.938 365.731 503.472 365.63C506.107 365.529 508.437 367.349 508.741 369.675C510.16 381.307 509.046 390.005 508.944 390.309C508.843 390.511 508.843 390.713 508.843 390.814Z" fill="white"/>
  <path d="M504.585 394.253C504.281 394.253 503.875 394.253 503.571 394.152C500.734 393.747 498.707 391.219 499.011 388.589V388.488C499.213 386.465 499.923 379.082 498.808 369.979C498.707 368.866 499.011 367.652 499.72 366.742C500.632 365.731 501.95 365.124 503.368 365.023C506.206 364.922 508.841 366.944 509.145 369.473C510.564 381.104 509.449 389.904 509.348 390.308C509.246 390.511 509.246 390.612 509.246 390.612V390.713C508.841 392.938 506.915 394.253 504.585 394.253ZM503.672 366.135C503.571 366.135 503.571 366.135 503.47 366.135C502.254 366.135 501.24 366.641 500.531 367.45C499.923 368.158 499.72 368.967 499.821 369.878C500.936 379.082 500.328 386.566 500.024 388.589V388.69C499.72 390.713 501.443 392.736 503.774 393.039C505.902 393.444 507.929 392.331 508.334 390.612C508.334 390.511 508.334 390.207 508.537 389.904C508.638 389.196 509.652 380.7 508.334 369.574C507.929 367.754 505.902 366.135 503.672 366.135Z" fill="black"/>
  <path d="M500.122 390.915C499.615 392.938 497.386 394.151 494.954 393.747C492.319 393.342 490.495 391.117 490.799 388.791C490.799 388.69 491.914 380.598 490.596 370.079C490.292 367.753 492.218 365.831 494.751 365.73C497.285 365.629 499.717 367.45 500.021 369.776C501.44 381.407 500.325 390.106 500.223 390.409C500.223 390.611 500.122 390.814 500.122 390.915Z" fill="white"/>
  <path d="M495.868 394.354C495.564 394.354 495.158 394.354 494.854 394.253C492.017 393.848 489.99 391.32 490.294 388.69V388.589C490.497 386.566 491.206 379.183 490.091 370.08C489.99 368.967 490.294 367.753 491.003 366.843C491.915 365.832 493.233 365.225 494.652 365.124C497.489 365.023 500.124 367.045 500.428 369.574C501.745 380.7 500.833 389.196 500.631 390.308C500.631 390.511 500.529 390.612 500.529 390.713V390.814C500.124 393.039 498.199 394.354 495.868 394.354ZM494.956 366.236C494.854 366.236 494.854 366.236 494.753 366.236C493.537 366.236 492.523 366.742 491.814 367.551C491.206 368.259 491.003 369.068 491.105 369.979C492.219 379.183 491.611 386.667 491.307 388.69V388.791C491.003 390.814 492.726 392.837 495.057 393.14C497.185 393.545 499.212 392.432 499.617 390.713C499.617 390.612 499.617 390.511 499.719 390.511C499.719 390.409 499.719 390.409 499.719 390.308C499.719 390.207 499.719 390.207 499.719 390.106C499.921 389.398 500.833 380.801 499.516 369.675C499.212 367.855 497.185 366.236 494.956 366.236Z" fill="black"/>
  <path d="M491.511 391.522C491.004 393.545 488.775 394.759 486.342 394.354C483.708 393.95 481.883 391.725 482.187 389.398C482.187 389.297 483.302 381.206 481.985 370.687C481.681 368.361 483.606 366.439 486.14 366.338C488.775 366.237 491.105 368.057 491.409 370.383C492.828 382.015 491.713 390.713 491.612 391.017C491.511 391.219 491.511 391.421 491.511 391.522Z" fill="white"/>
  <path d="M487.254 394.961C486.95 394.961 486.545 394.961 486.241 394.86C483.403 394.455 481.377 391.927 481.681 389.297V389.196C481.883 387.173 482.593 379.79 481.478 370.687C481.377 369.574 481.681 368.36 482.39 367.45C483.302 366.439 484.62 365.832 486.038 365.731C488.876 365.63 491.511 367.652 491.815 370.181C493.234 381.914 492.119 390.612 492.017 391.016C491.916 391.219 491.916 391.32 491.916 391.32V391.421C491.511 393.646 489.585 394.961 487.254 394.961ZM486.342 366.843C486.241 366.843 486.241 366.843 486.14 366.843C484.924 366.843 483.91 367.349 483.201 368.158C482.593 368.866 482.39 369.675 482.491 370.586C483.606 379.79 482.998 387.274 482.694 389.297V389.398C482.39 391.421 484.113 393.444 486.444 393.747C488.572 394.152 490.599 393.039 491.004 391.32C491.004 391.219 491.004 390.915 491.207 390.612C491.308 389.904 492.322 381.408 491.004 370.282C490.599 368.462 488.572 366.843 486.342 366.843Z" fill="black"/>
  <path d="M414.085 386.262C413.983 389.195 413.679 390.914 413.679 391.117C413.679 391.218 413.578 391.42 413.578 391.622C413.071 393.645 410.842 394.859 408.41 394.454C406.687 394.151 405.268 393.038 404.66 391.724C404.356 391.016 404.255 390.308 404.356 389.6C404.356 389.6 404.559 388.386 404.66 386.363C404.761 385.048 404.761 383.329 404.761 381.407C404.761 378.474 404.66 374.833 404.153 370.888C404.052 370.079 404.255 369.371 404.559 368.663C405.268 367.449 406.586 366.539 408.308 366.438C410.943 366.337 413.274 368.157 413.578 370.484C414.287 376.957 414.287 382.52 414.085 386.262Z" fill="white"/>
  <path d="M409.322 395.061C409.018 395.061 408.613 395.061 408.309 394.96C406.485 394.656 404.863 393.443 404.154 391.926C403.85 391.116 403.647 390.307 403.85 389.498C403.85 389.498 404.052 388.284 404.154 386.262C404.255 384.947 404.255 383.227 404.255 381.306C404.255 378.878 404.154 375.035 403.647 370.888C403.546 369.876 403.85 369.067 404.052 368.359C404.965 366.842 406.485 365.932 408.207 365.831C411.045 365.73 413.68 367.752 413.984 370.281C414.795 377.563 414.693 383.328 414.491 386.16C414.389 388.386 414.187 390.004 414.085 390.712C414.085 390.914 414.085 391.015 414.085 391.015C414.085 391.116 414.085 391.218 413.984 391.319C413.984 391.42 413.984 391.42 413.984 391.521V391.622C413.579 393.746 411.653 395.061 409.322 395.061ZM408.511 366.943C408.41 366.943 408.41 366.943 408.309 366.943C406.89 367.044 405.674 367.752 404.965 368.966C404.762 369.472 404.559 370.079 404.66 370.888C405.167 375.136 405.269 378.979 405.269 381.508C405.269 383.43 405.269 385.149 405.167 386.464C405.066 388.487 404.863 389.7 404.863 389.7C404.762 390.307 404.863 390.914 405.167 391.521C405.775 392.735 407.093 393.645 408.511 393.948C410.64 394.353 412.666 393.24 413.072 391.521C413.072 391.319 413.173 391.218 413.173 391.117C413.173 391.015 413.173 390.914 413.275 390.611C413.376 389.903 413.579 388.386 413.68 386.16C413.781 383.43 413.984 377.664 413.173 370.483C412.768 368.562 410.741 366.943 408.511 366.943Z" fill="black"/>
  <path d="M405.369 386.262C405.268 388.79 405.065 390.307 404.964 390.409C404.964 390.51 404.863 390.712 404.863 390.914C404.761 391.218 404.66 391.42 404.559 391.622C403.748 393.14 401.823 394.05 399.694 393.746C398.073 393.443 396.755 392.533 396.046 391.319C395.641 390.611 395.438 389.701 395.539 388.891C395.539 388.891 395.641 387.981 395.742 386.363C395.843 384.947 395.945 383.126 395.945 380.8C395.945 377.867 395.843 374.226 395.337 370.18C395.235 369.573 395.337 368.966 395.539 368.359C396.147 366.842 397.566 365.831 399.492 365.73C401.62 365.629 403.545 366.842 404.356 368.562C404.559 368.966 404.66 369.371 404.66 369.775C405.673 376.653 405.673 382.519 405.369 386.262Z" fill="white"/>
  <path d="M400.506 394.354C400.202 394.354 399.898 394.354 399.594 394.253C397.871 393.95 396.351 392.938 395.54 391.623C395.033 390.814 394.831 389.803 394.932 388.892C394.932 388.892 395.033 387.982 395.135 386.364C395.236 385.15 395.337 383.228 395.337 380.801C395.337 378.374 395.236 374.53 394.729 370.282C394.628 369.675 394.729 368.967 394.932 368.259C395.641 366.54 397.263 365.427 399.29 365.326C401.519 365.225 403.749 366.439 404.661 368.462C404.863 368.967 404.965 369.372 404.965 369.878C406.181 377.969 405.877 384.139 405.674 386.364C405.573 388.488 405.471 389.904 405.269 390.511C405.269 390.612 405.269 390.713 405.167 390.814C405.167 390.915 405.167 390.915 405.167 391.016C405.167 391.118 405.167 391.118 405.167 391.219C405.066 391.522 404.965 391.724 404.863 392.028C404.154 393.343 402.431 394.354 400.506 394.354ZM399.695 366.236C399.594 366.236 399.594 366.236 399.492 366.236C397.769 366.338 396.553 367.147 395.945 368.563C395.743 369.17 395.743 369.675 395.743 370.08C396.249 374.429 396.351 378.272 396.351 380.801C396.351 383.228 396.249 385.15 396.148 386.364C396.047 387.982 395.945 388.892 395.945 388.892C395.844 389.6 396.047 390.41 396.351 391.016C396.959 392.129 398.175 392.938 399.695 393.242C401.519 393.545 403.242 392.736 404.053 391.421C404.154 391.219 404.255 391.118 404.255 390.814C404.255 390.713 404.357 390.511 404.357 390.41C404.357 390.308 404.357 390.207 404.458 390.106C404.559 389.803 404.661 388.488 404.762 386.162C404.965 383.936 405.269 377.868 404.053 369.776C404.053 369.372 403.951 369.068 403.749 368.765C403.141 367.248 401.519 366.236 399.695 366.236ZM404.559 390.005C404.559 390.106 404.559 390.106 404.559 390.005C404.559 390.106 404.559 390.106 404.559 390.005Z" fill="black"/>
  <path d="M396.755 386.262C396.653 388.79 396.451 390.307 396.349 390.51C396.349 390.611 396.248 390.813 396.248 391.015C396.248 391.117 396.147 391.218 396.147 391.319C395.437 393.139 393.41 394.252 391.08 393.847C389.559 393.544 388.343 392.735 387.634 391.622C387.127 390.813 386.823 389.903 387.026 388.891C387.026 388.891 387.127 387.88 387.229 386.262C387.33 384.846 387.431 383.025 387.431 380.8C387.431 377.867 387.33 374.226 386.823 370.18C386.722 369.674 386.823 369.169 386.925 368.663C387.431 367.045 388.951 365.831 390.978 365.73C393.005 365.629 394.829 366.741 395.741 368.258C396.045 368.764 396.147 369.169 396.248 369.775C397.059 376.653 396.957 382.519 396.755 386.262Z" fill="white"/>
  <path d="M391.994 394.455C391.69 394.455 391.285 394.455 390.981 394.354C389.36 394.05 388.042 393.14 387.231 391.926C386.522 390.915 386.319 389.903 386.522 388.791C386.522 388.791 386.623 387.779 386.725 386.262C386.826 385.049 386.927 383.127 386.927 380.801C386.927 378.373 386.826 374.53 386.319 370.282C386.218 369.675 386.319 369.169 386.421 368.562C387.029 366.641 388.752 365.326 390.981 365.225C393.109 365.123 395.136 366.236 396.251 367.955C396.555 368.562 396.757 368.967 396.859 369.675C397.467 375.137 397.67 380.699 397.365 386.262C397.264 387.982 397.163 390.005 396.96 390.611C396.96 390.713 396.96 390.713 396.96 390.814C396.96 390.915 396.96 390.915 396.96 391.016C396.96 391.218 396.859 391.319 396.859 391.421V391.522C395.947 393.342 394.123 394.455 391.994 394.455ZM391.285 366.236C391.184 366.236 391.082 366.236 391.082 366.236C389.36 366.337 387.941 367.349 387.535 368.866C387.434 369.27 387.333 369.776 387.434 370.181C387.941 374.631 388.042 378.373 388.042 380.902C388.042 383.228 387.941 385.15 387.839 386.363C387.738 387.982 387.637 388.993 387.637 388.993C387.434 389.802 387.637 390.611 388.143 391.421C388.751 392.432 389.866 393.14 391.285 393.443C393.21 393.747 395.136 392.938 395.744 391.319C395.744 391.218 395.845 391.117 395.845 391.117C395.845 390.915 395.947 390.814 395.947 390.713C395.947 390.611 395.947 390.51 396.048 390.409C396.048 390.308 396.251 388.993 396.352 386.363C396.656 380.902 396.453 375.339 395.845 369.978C395.744 369.473 395.643 369.068 395.44 368.663C394.427 367.146 392.906 366.236 391.285 366.236Z" fill="black"/>
  <path d="M388.143 386.262C388.041 389.195 387.737 390.914 387.737 391.117C387.737 391.218 387.636 391.42 387.636 391.622C387.028 393.645 384.9 394.859 382.467 394.454C379.833 394.05 378.008 391.825 378.312 389.498C378.312 389.498 378.515 388.285 378.616 386.262C378.718 384.947 378.718 383.329 378.718 381.407C378.718 379.687 378.616 377.766 378.515 375.642C378.414 374.529 378.312 373.315 378.211 372.102C378.211 371.697 378.11 371.293 378.11 370.787C377.806 368.461 379.731 366.539 382.265 366.438C383.582 366.336 384.9 366.842 385.812 367.651C385.913 367.752 385.913 367.753 386.014 367.854C386.318 368.157 386.622 368.461 386.825 368.764C387.129 369.27 387.433 369.876 387.433 370.483C388.345 376.957 388.345 382.519 388.143 386.262Z" fill="white"/>
  <path d="M383.379 395.061C383.075 395.061 382.771 395.061 382.366 394.96C379.528 394.556 377.502 392.027 377.806 389.397C377.806 389.397 378.008 388.184 378.11 386.161C378.211 384.846 378.211 383.228 378.211 381.306C378.211 379.789 378.11 377.968 378.008 376.148V375.642C377.907 374.529 377.806 373.316 377.704 372.102C377.704 371.9 377.704 371.697 377.704 371.495C377.704 371.293 377.603 370.989 377.603 370.686C377.502 369.573 377.806 368.461 378.515 367.551C379.427 366.539 380.745 365.932 382.163 365.831C383.582 365.73 385.001 366.236 386.116 367.146L386.318 367.348C386.622 367.652 386.926 367.955 387.23 368.36C387.534 368.865 387.94 369.573 387.94 370.383C388.852 376.957 388.852 382.621 388.649 386.161C388.548 388.386 388.345 390.004 388.244 390.712C388.244 390.915 388.244 391.016 388.244 391.016C388.244 391.117 388.244 391.218 388.142 391.319C388.142 391.42 388.142 391.42 388.142 391.521V391.623C387.534 393.747 385.609 395.061 383.379 395.061ZM382.569 366.944C382.467 366.944 382.366 366.944 382.265 366.944C381.049 366.944 379.934 367.449 379.326 368.259C378.718 368.967 378.515 369.776 378.616 370.686C378.616 370.989 378.616 371.192 378.718 371.394C378.718 371.596 378.718 371.799 378.718 372.001C378.819 373.215 378.92 374.428 379.022 375.541V376.148C379.123 378.069 379.224 379.789 379.224 381.407C379.224 383.329 379.224 384.947 379.123 386.262C379.022 388.285 378.819 389.499 378.819 389.499C378.515 391.521 380.238 393.544 382.569 393.848C384.697 394.252 386.622 393.241 387.129 391.42C387.129 391.218 387.23 391.117 387.23 391.016C387.23 390.915 387.23 390.813 387.332 390.51C387.433 389.802 387.636 388.285 387.737 386.06C387.94 382.52 387.94 376.957 387.028 370.383C387.028 369.776 386.724 369.27 386.521 368.865C386.318 368.663 386.116 368.36 385.812 368.056L385.609 367.854C384.697 367.348 383.582 366.944 382.569 366.944Z" fill="black"/>
  <path d="M426.042 350.963H424.421C415.705 350.963 408.611 343.883 408.611 335.185V316.676H441.851V335.185C441.75 343.883 434.757 350.963 426.042 350.963Z" fill="#3F2AFF"/>
  <path d="M430.4 323.148H408.611V324.16H430.4V323.148Z" fill="black"/>
</svg>
