<svg width="628" height="407" viewBox="0 0 628 407" fill="none" xmlns="http://www.w3.org/2000/svg">
  <path d="M204.611 247.675C204.611 247.675 244.603 271.65 285.715 284.755C326.826 297.86 344.736 293.593 346.059 285.974C347.382 278.355 315.938 248.59 315.938 248.59L238.905 233.859L204.611 247.675Z" fill="black"/>
  <path d="M328.454 293.694C319.601 293.694 305.965 291.764 285.511 285.262C244.807 272.259 204.713 248.386 204.306 248.182C204.102 248.081 204.001 247.878 204.102 247.674C204.102 247.471 204.204 247.268 204.408 247.268L238.701 233.351C238.803 233.351 238.905 233.351 239.006 233.351L316.039 248.081C316.141 248.081 316.243 248.182 316.243 248.182C317.566 249.401 347.891 278.252 346.466 285.973C346.161 287.802 344.838 289.529 342.803 290.748C340.971 292.068 336.697 293.694 328.454 293.694ZM205.731 247.776C211.836 251.332 248.572 272.462 285.816 284.246C312.885 292.881 333.949 295.014 342.396 289.935C344.227 288.818 345.245 287.497 345.55 285.871C346.568 279.878 324.486 257.325 315.734 248.995L239.006 234.366L205.731 247.776Z" fill="black"/>
  <path d="M241.955 376.185H277.571H338.933L328.961 296.845C329.062 295.321 329.062 293.797 328.961 292.274C328.757 286.991 327.841 281.81 326.315 276.832C325.399 273.886 324.178 270.94 322.753 268.096C322.753 268.096 322.753 267.994 322.652 267.994C320.922 264.54 318.886 261.289 316.444 258.343C312.984 253.975 308.914 250.013 304.131 246.661C303.928 246.559 303.826 246.356 303.622 246.254C302.808 245.645 301.994 245.137 301.078 244.629C300.264 244.121 299.348 243.613 298.432 243.105C298.229 243.003 298.025 242.902 297.822 242.8C292.734 240.057 287.34 238.127 281.845 237.111H281.744C281.337 237.01 281.031 237.01 280.624 236.908C278.589 236.502 276.554 236.299 274.417 236.095C273.603 235.994 272.89 235.994 272.076 235.994C270.753 235.994 269.532 235.892 268.311 235.994C266.479 236.095 264.648 236.197 262.816 236.4C252.844 237.619 243.278 241.378 235.137 247.372C232.288 249.403 229.744 251.74 227.302 254.381C223.842 258.038 220.789 262.204 218.347 266.877C213.055 276.731 212.444 287.499 211.529 297.962C211.325 300.197 212.037 351.601 212.139 376.287L241.955 376.185Z" fill="black"/>
  <path d="M241.956 376.794H212.14C211.834 376.794 211.631 376.591 211.631 376.286C211.631 365.213 211.427 348.451 211.224 333.619C211.02 315.13 210.919 299.08 211.02 297.861L211.224 295.829C212.038 286.076 212.954 275.918 217.94 266.571C220.281 262 223.333 257.835 226.997 253.975C229.643 251.13 232.187 248.794 234.934 246.863C243.075 240.87 252.742 237.009 262.817 235.79C264.648 235.587 266.48 235.486 268.312 235.384C269.228 235.282 270.042 235.384 270.856 235.384C271.263 235.384 271.67 235.384 272.179 235.384C272.993 235.384 273.705 235.384 274.621 235.486C276.961 235.689 278.895 235.892 280.828 236.298C281.032 236.298 281.235 236.4 281.337 236.4C281.541 236.4 281.642 236.4 281.846 236.501C287.443 237.517 292.938 239.448 298.026 242.292L298.637 242.597C299.552 243.105 300.468 243.613 301.282 244.121C302.3 244.629 303.114 245.136 303.826 245.746C303.928 245.746 304.03 245.949 304.132 245.949L304.233 246.051C308.914 249.302 313.087 253.263 316.75 257.835C319.091 260.679 321.126 263.727 322.957 267.384C323.059 267.486 323.161 267.587 323.161 267.689C324.687 270.635 325.807 273.581 326.723 276.425C328.249 281.505 329.165 286.787 329.368 291.968C329.47 293.492 329.47 295.016 329.368 296.641L339.341 375.88C339.341 375.982 339.341 376.185 339.239 376.286C339.137 376.388 339.036 376.49 338.832 376.49H242.159C242.159 376.794 242.057 376.794 241.956 376.794ZM212.649 375.778H241.65C241.752 375.677 241.854 375.677 241.956 375.677H338.323L328.453 296.946C328.554 295.321 328.554 293.797 328.453 292.375C328.249 287.194 327.333 282.114 325.807 277.035C324.891 274.191 323.772 271.346 322.347 268.4C322.245 268.4 322.245 268.298 322.245 268.197C320.413 264.54 318.378 261.39 316.139 258.648C312.578 254.076 308.406 250.216 303.928 247.067C303.826 247.067 303.725 246.863 303.623 246.762L303.521 246.66C302.707 246.051 301.893 245.543 300.977 245.035C300.163 244.527 299.247 244.019 298.331 243.511L297.721 243.206C292.633 240.463 287.341 238.533 281.846 237.517H281.744C281.541 237.517 281.439 237.416 281.235 237.416C281.032 237.416 280.828 237.314 280.625 237.314C278.691 236.908 276.758 236.705 274.519 236.501C273.705 236.4 272.993 236.4 272.179 236.4C271.772 236.4 271.263 236.4 270.856 236.4C270.042 236.4 269.228 236.4 268.414 236.4C266.582 236.501 264.75 236.603 262.918 236.806C252.946 238.025 243.482 241.784 235.443 247.676C232.797 249.606 230.253 251.841 227.709 254.584C224.148 258.343 221.196 262.508 218.856 266.978C213.971 276.121 213.056 286.076 212.242 295.829L212.038 297.861C211.936 299.08 212.14 315.842 212.242 333.518C212.445 348.248 212.547 364.705 212.649 375.778Z" fill="black"/>
  <path d="M204.611 247.675L237.684 247.167C254.372 246.863 270.959 248.793 287.038 253.263C307.695 259.053 336.087 264.742 346.059 285.974L357.762 176.361C361.018 162.951 352.674 149.338 339.139 146.189L265.363 128.614C251.93 125.364 238.294 133.694 235.14 147.205L204.611 247.675Z" fill="white"/>
  <path d="M346.058 286.481C345.855 286.481 345.651 286.38 345.55 286.177C336.595 267.18 312.477 260.678 293.041 255.396C290.904 254.786 288.869 254.278 286.833 253.669C271.162 249.3 254.677 247.269 237.581 247.573L204.509 248.081C204.305 248.081 204.204 247.98 204.102 247.878C204 247.777 204 247.573 204 247.472L234.528 147.001C236.055 140.398 240.125 134.709 246.027 131.154C251.828 127.598 258.747 126.481 265.362 128.106L339.139 145.681C345.753 147.205 351.452 151.268 355.013 157.16C358.575 162.951 359.694 169.859 358.066 176.462L346.567 286.075C346.567 286.278 346.364 286.481 346.058 286.481C346.16 286.481 346.058 286.481 346.058 286.481ZM241.041 246.659C257.017 246.659 272.485 248.691 287.139 252.754C289.174 253.262 291.209 253.872 293.346 254.481C312.477 259.662 336.086 266.062 345.753 284.247L357.252 176.36C358.778 169.96 357.761 163.357 354.301 157.77C350.841 152.182 345.448 148.22 339.037 146.798L265.26 129.223C258.849 127.7 252.235 128.716 246.638 132.17C241.041 135.624 237.072 141.008 235.648 147.408L205.323 247.269L237.683 246.761C238.802 246.659 239.922 246.659 241.041 246.659Z" fill="black"/>
  <path d="M198.304 119.877C198.304 119.877 180.699 150.862 193.521 182.76L215.603 171.281L222.421 132.068L198.304 119.877Z" fill="black"/>
  <path d="M193.52 183.269C193.418 183.269 193.418 183.269 193.316 183.269C193.214 183.269 193.113 183.065 193.011 182.964C180.291 151.167 197.692 119.979 197.794 119.675C197.895 119.471 198.201 119.37 198.506 119.471L222.623 131.662C222.827 131.764 222.929 131.967 222.929 132.17L216.111 171.383C216.111 171.586 216.009 171.688 215.805 171.789L193.723 183.269C193.723 183.269 193.621 183.269 193.52 183.269ZM198.506 120.589C196.471 124.348 182.428 152.995 193.825 182.05L215.195 170.977L221.911 132.373L198.506 120.589Z" fill="black"/>
  <path d="M92.9804 122.317C151.9 170.165 235.547 167.625 239.516 167.523C250.099 167.117 258.342 158.279 257.935 147.714C257.528 137.149 248.675 128.92 238.091 129.326C236.667 129.326 145.286 131.663 100.511 75.9928C98.1702 73.1483 94.7103 77.7198 93.2857 78.3293C90.7416 79.5483 90.8434 80.1579 85.4501 84.4246C77.2074 91.1294 63.9785 91.7389 70.6947 99.9675C77.5127 108.399 85.043 115.815 92.9804 122.317Z" fill="white"/>
  <path d="M235.853 168.031C217.434 168.031 144.98 165.186 92.6752 122.621C84.3308 115.916 76.8005 108.399 70.2878 100.272C68.6596 98.3416 68.0491 96.6146 68.4561 95.1923C69.0667 92.551 72.4248 91.0272 76.2917 89.0971C79.141 87.7764 82.3973 86.151 85.1449 84.0177C87.3836 82.2907 88.6048 81.1732 89.5206 80.3605C90.8435 79.1415 91.4541 78.6335 93.0822 77.8208C93.3875 77.7192 93.8963 77.3129 94.4051 76.8049C95.728 75.6875 97.3562 74.3668 98.9844 74.4684C99.6967 74.57 100.409 74.8748 100.918 75.5859C143.454 128.513 228.424 128.818 237.888 128.716H238.092C243.281 128.513 248.369 130.342 252.135 133.897C256.002 137.453 258.24 142.329 258.444 147.51C258.851 158.278 250.405 167.421 239.516 167.828H239.415C238.702 168.031 237.481 168.031 235.853 168.031ZM93.2858 121.91C149.967 167.929 230.358 167.218 239.415 167.015C249.794 166.609 257.833 157.974 257.426 147.713C257.223 142.735 255.086 138.164 251.524 134.71C247.861 131.358 243.18 129.529 238.193 129.732H237.99C228.424 129.834 143.047 129.529 100.206 76.1954C99.7985 75.7891 99.3914 75.4843 98.9844 75.4843C97.7633 75.3827 96.2368 76.6018 95.2192 77.516C94.6087 78.024 94.0999 78.4303 93.5911 78.6335C92.1664 79.3446 91.6576 79.751 90.3347 80.97C89.4189 81.7827 88.096 82.9002 85.959 84.6272C83.2114 86.8621 79.8533 88.4875 76.9023 89.8082C73.2389 91.5352 70.0843 93.059 69.5755 95.1923C69.2702 96.4114 69.8808 97.732 71.2036 99.459C77.6146 107.688 85.0431 115.205 93.2858 121.91Z" fill="black"/>
  <path d="M193.521 182.761L244.605 186.621C262.007 187.942 277.169 174.939 278.492 157.567C279.815 140.195 266.789 125.059 249.388 123.738L198.304 119.878L199.017 123.332C202.782 143.243 200.95 163.865 193.521 182.761Z" fill="white"/>
  <path d="M247.047 187.23C246.233 187.23 245.419 187.23 244.604 187.129L193.52 183.268C193.317 183.268 193.215 183.167 193.113 183.065C193.012 182.964 193.012 182.76 193.113 182.659C200.44 163.967 202.374 143.446 198.609 123.535L197.896 120.081C197.896 119.878 197.896 119.776 197.998 119.674C198.1 119.573 198.303 119.471 198.405 119.471L249.489 123.332C258.037 123.941 265.873 127.903 271.368 134.405C276.964 140.906 279.712 149.135 279 157.668C277.677 174.43 263.634 187.23 247.047 187.23ZM194.233 182.354L244.604 186.113C261.7 187.433 276.659 174.633 277.982 157.567C278.593 149.338 275.947 141.313 270.554 135.014C265.16 128.716 257.63 124.957 249.285 124.246L198.914 120.385L199.524 123.23C203.29 143.141 201.458 163.56 194.233 182.354Z" fill="black"/>
  <path d="M93.4891 84.5257C94.812 85.6432 96.7455 85.948 98.4754 85.2368C100.918 84.1194 101.935 81.3765 100.918 78.9384C100.816 78.7352 93.9979 63.2939 93.4891 51.5097C93.3873 48.8684 91.1486 46.8366 88.5028 46.9382C85.857 47.0398 83.8218 49.2747 83.9236 51.916C84.5341 65.5288 91.8609 81.986 92.1662 82.6971C92.4715 83.4083 92.8785 84.0178 93.4891 84.5257Z" fill="white"/>
  <path d="M96.5405 86.1506C95.3193 86.1506 94.0982 85.7442 93.1823 84.9315C92.5718 84.4236 92.063 83.7125 91.7577 82.8998V82.7982C90.4348 79.8522 84.1256 64.614 83.5151 51.9155C83.4133 48.9694 85.652 46.5313 88.6031 46.4298C90.0278 46.3282 91.3507 46.8361 92.3683 47.852C93.3859 48.7663 93.9964 50.0869 94.0982 51.5091C94.5052 63.1917 101.323 78.5315 101.323 78.7347C102.443 81.4776 101.323 84.5252 98.6774 85.7442C97.9651 85.9474 97.2528 86.1506 96.5405 86.1506ZM88.7049 47.4456C88.6031 47.4456 88.6031 47.4456 88.5013 47.4456C86.1608 47.5472 84.3291 49.579 84.4309 51.9155C85.0415 64.4108 91.3507 79.5474 92.5718 82.3918V82.4934C92.8771 83.2045 93.2841 83.7125 93.7929 84.1188C95.014 85.1347 96.744 85.3379 98.2704 84.7284C100.407 83.7125 101.323 81.2744 100.407 79.141C100.306 79.0394 93.4876 63.4965 92.9788 51.5091C92.9788 50.3917 92.47 49.2742 91.5542 48.5631C90.8418 47.852 89.8242 47.4456 88.7049 47.4456Z" fill="black"/>
  <path d="M85.9573 87.776C87.6872 89.1983 90.1295 89.1983 91.9612 87.776C93.9964 86.1506 94.4034 83.103 92.7753 81.0712C92.6735 80.9697 80.971 66.0362 75.3741 55.1663C74.153 52.8298 71.3037 51.9155 68.9632 53.1346C66.6227 54.3536 65.7069 57.1981 66.928 59.5346C72.9319 71.2172 84.8379 86.3538 85.3467 86.9633C85.4485 87.2681 85.652 87.4713 85.9573 87.776Z" fill="white"/>
  <path d="M88.9088 89.2995C87.6877 89.2995 86.5683 88.8932 85.6525 88.0805L86.0595 87.6741L85.5507 88.0805C85.2454 87.7757 85.0419 87.5725 84.8384 87.1662C84.0243 86.0487 72.4235 71.4201 66.5214 59.7375C65.9108 58.5184 65.7073 57.0962 66.2161 55.7755C66.6232 54.4549 67.539 53.3374 68.8619 52.7279C70.083 52.1184 71.5077 51.9152 72.8306 52.4231C74.1535 52.8295 75.2728 53.7438 75.8834 55.0644C81.4803 66.0359 93.081 80.7662 93.1828 80.8677C94.0986 81.9852 94.4039 83.3058 94.3021 84.7281C94.0986 86.1503 93.3863 87.3694 92.3687 88.2837C91.2493 88.9948 90.1299 89.2995 88.9088 89.2995ZM86.263 87.3694C87.7894 88.5884 89.9264 88.5884 91.6563 87.3694C93.488 85.9471 93.7933 83.2043 92.3687 81.3757C92.3687 81.3757 80.5644 66.4423 74.8658 55.3692C74.357 54.3533 73.4411 53.6422 72.4235 53.2358C71.3042 52.9311 70.1848 53.0327 69.1672 53.5406C68.1496 54.0485 67.4372 54.9628 67.0302 55.9787C66.7249 57.0962 66.8267 58.2136 67.3355 59.2295C73.5429 71.2169 85.5507 86.4551 85.6525 86.5567C85.6525 86.5567 85.7542 86.6582 85.7542 86.7598C85.856 86.963 86.0595 87.1662 86.263 87.3694Z" fill="black"/>
  <path d="M78.4282 110.128C80.2599 111.652 83.0075 111.55 84.8392 109.823C86.7726 107.994 86.7726 104.947 84.9409 103.017C84.8392 102.915 78.3265 96.2103 72.1191 85.9499C70.6944 83.715 67.7433 83.0039 65.5046 84.3245C63.2659 85.6452 62.5535 88.5912 63.8764 90.9277C70.6944 102.306 77.8177 109.518 78.123 109.823C78.123 109.925 78.3265 110.026 78.4282 110.128Z" fill="white"/>
  <path d="M81.3787 111.752C80.1576 111.752 79.0382 111.345 78.0206 110.533C78.0206 110.533 78.0206 110.533 77.9189 110.431C77.8171 110.329 77.7153 110.228 77.6136 110.126C76.7995 109.314 69.8797 102.101 63.367 91.2309C61.9424 88.6913 62.7565 85.3389 65.1987 83.9166C67.641 82.4944 70.8973 83.3071 72.5255 85.7452C78.7329 96.0056 85.2456 102.71 85.2456 102.71C86.2633 103.726 86.7721 105.148 86.7721 106.469C86.7721 107.891 86.1615 109.212 85.1439 110.228C84.1263 111.244 82.8034 111.752 81.3787 111.752ZM78.7329 109.72C80.3611 111.041 82.8034 110.939 84.4316 109.415C85.2456 108.602 85.7545 107.587 85.7545 106.368C85.7545 105.25 85.3474 104.133 84.5333 103.32C84.5333 103.32 77.9189 96.6151 71.7114 86.2531C70.4903 84.323 67.7428 83.6119 65.8093 84.8309C63.8758 86.05 63.1635 88.6913 64.3846 90.723C71.2026 102.101 78.4277 109.415 78.5294 109.415L78.6312 109.517C78.6312 109.618 78.7329 109.72 78.7329 109.72Z" fill="black"/>
  <path d="M80.6665 96.2073C82.4982 97.7311 85.2458 97.6295 87.0775 95.9025C89.0109 94.0739 89.0109 91.0263 87.1792 89.0961C87.0775 89.0961 80.5648 82.3913 74.3573 72.131C72.9327 69.7944 69.9816 69.0833 67.7429 70.5056C65.5041 71.8262 64.7918 74.7722 66.1147 77.1088C72.9327 88.4866 80.056 95.6994 80.3612 96.0041C80.463 96.0041 80.5648 96.1057 80.6665 96.2073Z" fill="white"/>
  <path d="M83.6168 97.8323C82.3957 97.8323 81.2763 97.4259 80.2587 96.6132C80.2587 96.6132 80.2587 96.6132 80.1569 96.5117C80.0552 96.5117 79.9534 96.4101 79.9534 96.4101C79.9534 96.3085 72.6266 88.8926 65.7069 77.4131C64.2822 74.8734 65.0963 71.521 67.5386 70.0988C68.6579 69.3877 70.0826 69.0829 71.5073 69.3877C72.9319 69.6925 74.153 70.6068 74.8654 71.8258C80.6657 81.4767 86.9749 88.0799 87.5855 88.5878C87.5855 88.5878 87.6872 88.5878 87.6872 88.6894C89.7225 90.8227 89.7225 94.1751 87.5855 96.2069C86.3643 97.3244 85.0415 97.8323 83.6168 97.8323ZM80.971 95.8005C82.5992 97.1212 85.0415 97.0196 86.6696 95.4958C88.3996 93.8704 88.3996 91.1275 86.7714 89.4005C85.245 88.1815 79.1393 81.1719 73.8478 72.4353C73.2372 71.4195 72.2196 70.7083 71.1002 70.4036C69.9808 70.0988 68.8615 70.302 67.9456 70.9115C65.9104 72.1306 65.2998 74.7719 66.521 76.8036C72.9319 87.5719 79.7499 94.5815 80.564 95.4958C80.7675 95.5974 80.8693 95.6989 80.971 95.8005Z" fill="black"/>
  <path d="M110.892 93.669C113.13 92.2467 113.741 89.1991 112.215 87.0658C110.586 84.5261 105.397 76.8054 98.2734 78.3292C90.4378 79.9546 87.792 91.5356 87.1815 95.0912C86.8762 96.8182 87.5885 98.5452 88.9114 99.6627C89.522 100.171 90.2343 100.475 91.1501 100.679C93.7959 101.085 96.2382 99.3579 96.6452 96.8182C97.2558 93.0594 98.9857 88.8943 100.207 87.8785C100.716 88.1832 102.14 89.0975 104.277 92.4499" fill="white"/>
  <path d="M91.8608 101.288C91.5555 101.288 91.352 101.288 91.0467 101.186C90.0291 100.983 89.215 100.576 88.6044 100.069C87.078 98.8495 86.3657 96.8177 86.671 94.9892C87.2815 91.4336 89.9273 79.5478 98.1699 77.8208C101.63 77.1097 107.023 78.024 112.62 86.7605C113.434 87.878 113.739 89.3002 113.434 90.7225C113.129 92.1447 112.315 93.3638 111.094 94.0749L110.585 93.2622C111.501 92.6526 112.213 91.6368 112.416 90.5193C112.62 89.4018 112.416 88.2844 111.704 87.3701C107.532 80.7669 102.851 77.8208 98.2717 78.8367C90.6396 80.4621 88.0956 92.7542 87.6886 95.1923C87.3833 96.7162 87.9938 98.24 89.215 99.2558C89.7238 99.6622 90.3343 99.967 91.2502 100.17C93.5907 100.475 95.7277 98.9511 96.1347 96.7162C96.7453 92.9574 98.4752 88.5891 99.8999 87.4717C100.103 87.3701 100.307 87.2685 100.51 87.4717C101.833 88.2844 103.258 89.8082 104.784 92.2463L103.97 92.7542C102.647 90.7225 101.528 89.3002 100.409 88.5891C99.3911 89.8082 97.8647 93.4653 97.2541 96.9193C96.7453 99.459 94.5065 101.288 91.8608 101.288Z" fill="black"/>
  <path d="M339.954 113.377C345.686 113.377 350.333 108.738 350.333 103.015C350.333 97.292 345.686 92.6528 339.954 92.6528C334.221 92.6528 329.574 97.292 329.574 103.015C329.574 108.738 334.221 113.377 339.954 113.377Z" fill="black"/>
  <path d="M339.953 113.884C333.949 113.884 329.064 109.008 329.064 103.014C329.064 97.0207 333.949 92.1445 339.953 92.1445C345.957 92.1445 350.841 97.0207 350.841 103.014C350.841 109.008 345.957 113.884 339.953 113.884ZM339.953 93.1604C334.56 93.1604 330.082 97.6303 330.082 103.014C330.082 108.399 334.56 112.868 339.953 112.868C345.346 112.868 349.824 108.399 349.824 103.014C349.824 97.6303 345.346 93.1604 339.953 93.1604Z" fill="black"/>
  <path d="M340.131 117.37C341.049 111.721 337.206 106.399 331.548 105.482C325.889 104.565 320.558 108.401 319.639 114.05C318.721 119.699 322.564 125.022 328.222 125.938C333.881 126.855 339.212 123.019 340.131 117.37Z" fill="black"/>
  <path d="M329.879 126.582C323.875 126.582 318.99 121.705 318.99 115.712C318.99 109.718 323.875 104.842 329.879 104.842C335.883 104.842 340.767 109.718 340.767 115.712C340.767 121.705 335.883 126.582 329.879 126.582ZM329.879 105.858C324.485 105.858 320.008 110.328 320.008 115.712C320.008 121.096 324.485 125.566 329.879 125.566C335.272 125.566 339.749 121.096 339.749 115.712C339.749 110.328 335.272 105.858 329.879 105.858Z" fill="black"/>
  <path d="M286.02 107.484C289.897 107.484 293.041 104.346 293.041 100.474C293.041 96.6031 289.897 93.4648 286.02 93.4648C282.142 93.4648 278.998 96.6031 278.998 100.474C278.998 104.346 282.142 107.484 286.02 107.484Z" fill="white"/>
  <path d="M286.019 107.992C281.846 107.992 278.488 104.64 278.488 100.475C278.488 96.3094 281.846 92.957 286.019 92.957C290.191 92.957 293.549 96.3094 293.549 100.475C293.549 104.64 290.191 107.992 286.019 107.992ZM286.019 93.9729C282.457 93.9729 279.506 96.919 279.506 100.475C279.506 104.03 282.457 106.976 286.019 106.976C289.58 106.976 292.531 104.03 292.531 100.475C292.531 96.919 289.58 93.9729 286.019 93.9729Z" fill="black"/>
  <path d="M311.46 156.654C303.116 155.131 297.621 147.105 299.249 138.775L304.235 112.159C304.337 111.651 304.846 111.245 305.354 111.346L333.542 116.629C334.051 116.73 334.458 117.238 334.356 117.746L329.37 144.362C327.742 152.692 319.703 158.178 311.46 156.654Z" fill="white"/>
  <path d="M314.206 157.365C313.29 157.365 312.273 157.263 311.357 157.06C307.185 156.247 303.521 153.911 301.181 150.457C298.84 147.003 297.925 142.736 298.739 138.571L303.725 111.955C303.928 111.142 304.641 110.634 305.455 110.736L333.643 116.019C334.457 116.222 334.966 116.933 334.864 117.746L329.878 144.362C328.351 152.082 321.635 157.365 314.206 157.365ZM305.15 111.853C304.946 111.853 304.743 112.057 304.641 112.26L299.756 138.876C299.044 142.736 299.756 146.698 301.995 149.949C304.234 153.2 307.592 155.435 311.561 156.146C319.498 157.67 327.334 152.285 328.86 144.26L333.846 117.644C333.846 117.441 333.643 117.136 333.439 117.136L305.15 111.853C305.251 111.853 305.251 111.853 305.15 111.853Z" fill="black"/>
  <path d="M332.118 117.747C332.627 118.153 333.136 118.458 333.747 118.661V118.458C334.561 116.63 335.069 114.699 335.477 112.668C335.985 109.722 336.087 106.776 335.782 103.931C332.525 104.338 329.778 106.776 329.167 110.128C328.659 113.176 329.88 116.122 332.118 117.747Z" fill="black"/>
  <path d="M333.745 119.168C333.643 119.168 333.643 119.168 333.541 119.168C332.931 118.964 332.32 118.66 331.811 118.152C329.369 116.425 328.148 113.174 328.657 110.025C329.267 106.469 332.117 103.828 335.678 103.421C335.78 103.421 335.984 103.421 336.085 103.523C336.187 103.625 336.289 103.726 336.289 103.828C336.594 106.774 336.492 109.72 335.984 112.666C335.475 115.104 334.966 116.831 334.254 118.456V118.558C334.254 118.761 334.152 118.863 334.05 118.964C333.948 119.168 333.847 119.168 333.745 119.168ZM335.373 104.539C332.524 105.148 330.285 107.383 329.674 110.228C329.166 112.971 330.285 115.815 332.422 117.339C332.727 117.644 333.033 117.847 333.44 117.948C334.05 116.425 334.559 114.799 334.966 112.564C335.475 109.821 335.577 107.18 335.373 104.539Z" fill="black"/>
  <path d="M313.293 134.813C310.647 135.219 307.899 135.118 305.152 134.61C291.007 131.968 281.747 118.356 284.393 104.336C287.038 90.2157 300.674 80.9712 314.819 83.6124C325.3 85.5426 333.034 93.4665 335.375 103.219C336.799 102.914 338.326 103.117 339.75 103.828C342.091 104.946 343.719 107.486 343.719 110.127C343.719 114.698 339.649 117.949 335.375 117.136C335.171 117.136 335.069 117.035 334.866 117.035C334.662 117.848 329.473 144.565 329.473 144.565" fill="white"/>
  <path d="M329.982 144.665L328.964 144.462C329.167 143.344 334.154 117.744 334.357 116.932C334.459 116.728 334.663 116.525 334.866 116.525C335.07 116.525 335.171 116.525 335.273 116.627H335.477C337.41 117.033 339.344 116.525 340.87 115.205C342.396 113.985 343.21 112.055 343.21 110.024C343.21 107.585 341.684 105.249 339.547 104.233C338.224 103.624 336.8 103.42 335.477 103.624C335.171 103.725 334.968 103.522 334.866 103.217C332.526 93.3632 324.588 85.8457 314.717 84.0171C308.001 82.798 301.183 84.2203 295.586 87.979C289.989 91.8394 286.123 97.6299 284.901 104.335C283.68 111.039 285.105 117.744 288.87 123.332C292.737 128.919 298.537 132.678 305.254 133.998C308.001 134.506 310.749 134.608 313.191 134.201L313.395 135.217C310.749 135.624 308.001 135.522 305.05 135.014C298.13 133.694 292.025 129.833 288.056 123.941C284.087 118.049 282.561 111.039 283.884 104.131C285.207 97.2235 289.175 91.1282 294.976 87.1663C300.878 83.2044 307.899 81.6806 314.921 83.0012C324.995 84.8298 333.136 92.5505 335.782 102.506C337.207 102.303 338.631 102.608 340.056 103.217C342.6 104.436 344.33 107.179 344.33 109.922C344.33 112.259 343.312 114.392 341.582 115.814C339.852 117.236 337.614 117.846 335.375 117.439C334.663 120.589 331.61 136.132 329.982 144.665Z" fill="black"/>
  <path d="M336.288 106.367C338.221 106.774 339.442 108.602 339.137 110.431C338.832 112.259 336.898 113.58 335.066 113.275" fill="white"/>
  <path d="M335.575 113.782C335.372 113.782 335.168 113.782 334.965 113.782L335.168 112.766C335.881 112.867 336.695 112.664 337.407 112.258C338.119 111.75 338.526 111.14 338.628 110.328C338.933 108.702 337.814 107.179 336.186 106.874L336.389 105.858C338.526 106.366 339.951 108.398 339.646 110.531C339.442 111.547 338.832 112.461 338.018 113.071C337.204 113.579 336.389 113.782 335.575 113.782Z" fill="black"/>
  <path d="M299.342 106.789C299.578 105.75 298.968 104.727 297.982 104.505C296.995 104.283 296.004 104.946 295.768 105.986C295.533 107.026 296.142 108.049 297.129 108.27C298.116 108.492 299.107 107.829 299.342 106.789Z" fill="black"/>
  <path d="M301.285 100.88C298.13 98.3404 295.281 100.271 295.179 100.372L294.568 99.5595C294.568 99.5595 298.13 97.0198 301.895 100.067L301.285 100.88Z" fill="black"/>
  <path d="M316.284 110.693C316.519 109.653 315.91 108.631 314.923 108.409C313.936 108.187 312.945 108.85 312.71 109.89C312.474 110.93 313.083 111.952 314.07 112.174C315.057 112.396 316.048 111.733 316.284 110.693Z" fill="black"/>
  <path d="M318.279 104.742C315.124 102.203 312.275 104.133 312.173 104.234L311.562 103.422C311.562 103.422 315.124 100.882 318.889 103.93L318.279 104.742Z" fill="black"/>
  <path d="M306.473 126.279C306.371 126.279 306.371 126.279 306.27 126.279V125.263C310.645 125.364 310.951 121.402 310.951 121.301H311.968C311.968 121.402 311.663 126.279 306.473 126.279Z" fill="black"/>
  <path d="M303.728 106.063L301.285 114.8C300.98 116.222 301.896 117.644 303.321 117.949L303.728 118.05" fill="white"/>
  <path d="M303.626 118.558L303.219 118.457C301.489 118.05 300.471 116.425 300.776 114.698L303.219 105.961L304.236 106.266L301.794 115.003C301.591 116.12 302.303 117.238 303.422 117.542L303.829 117.644L303.626 118.558Z" fill="black"/>
  <path d="M326.808 79.213C328.192 71.3671 322.944 63.8862 315.084 62.504C307.225 61.1217 299.732 66.3615 298.347 74.2074C296.962 82.0532 302.211 89.5341 310.07 90.9164C317.929 92.2987 325.423 87.0589 326.808 79.213Z" fill="black"/>
  <path d="M312.58 91.6354C304.337 91.6354 297.621 84.9306 297.621 76.702C297.621 68.4734 304.337 61.7686 312.58 61.7686C320.823 61.7686 327.539 68.4734 327.539 76.702C327.539 84.9306 320.823 91.6354 312.58 91.6354ZM312.58 62.7844C304.846 62.7844 298.639 68.9813 298.639 76.702C298.639 84.4227 304.846 90.6195 312.58 90.6195C320.314 90.6195 326.521 84.4227 326.521 76.702C326.521 68.9813 320.314 62.7844 312.58 62.7844Z" fill="black"/>
  <path d="M330.795 105.148C339.562 105.148 346.669 98.0523 346.669 89.2998C346.669 80.5474 339.562 73.4521 330.795 73.4521C322.027 73.4521 314.92 80.5474 314.92 89.2998C314.92 98.0523 322.027 105.148 330.795 105.148Z" fill="black"/>
  <path d="M330.794 105.654C321.737 105.654 314.41 98.3398 314.41 89.2985C314.41 80.2572 321.737 72.9429 330.794 72.9429C339.85 72.9429 347.177 80.2572 347.177 89.2985C347.177 98.3398 339.85 105.654 330.794 105.654ZM330.794 73.9587C322.348 73.9587 315.428 80.8667 315.428 89.2985C315.428 97.7303 322.348 104.638 330.794 104.638C339.24 104.638 346.16 97.7303 346.16 89.2985C346.16 80.8667 339.24 73.9587 330.794 73.9587Z" fill="black"/>
  <path d="M295.892 96.2066C303.479 96.2066 309.63 90.0664 309.63 82.4922C309.63 74.918 303.479 68.7778 295.892 68.7778C288.305 68.7778 282.154 74.918 282.154 82.4922C282.154 90.0664 288.305 96.2066 295.892 96.2066Z" fill="black"/>
  <path d="M295.891 96.7141C288.055 96.7141 281.645 90.3141 281.645 82.4918C281.645 74.6696 288.055 68.2695 295.891 68.2695C303.727 68.2695 310.138 74.6696 310.138 82.4918C310.138 90.3141 303.727 96.7141 295.891 96.7141ZM295.891 69.2854C288.564 69.2854 282.662 75.1775 282.662 82.4918C282.662 89.8062 288.564 95.6983 295.891 95.6983C303.218 95.6983 309.12 89.8062 309.12 82.4918C309.12 75.1775 303.218 69.2854 295.891 69.2854Z" fill="black"/>
  <path d="M343.62 385.734H372.316H459.729C460.441 382.077 460.543 378.318 460.034 374.661C459.017 367.753 456.981 356.375 453.42 349.975C450.876 345.404 447.721 341.239 444.261 337.582C441.819 335.042 439.173 332.705 436.324 330.775C428.081 324.883 418.516 321.327 408.543 320.21C406.712 320.007 404.88 319.905 403.048 319.905C401.827 319.905 400.504 319.905 399.283 320.007C398.469 320.007 397.757 320.108 396.942 320.21C394.907 320.413 392.872 320.718 390.735 321.124C390.328 321.226 390.023 321.226 389.616 321.327H389.514C384.121 322.547 378.727 324.477 373.639 327.321C373.436 327.423 373.232 327.524 373.029 327.626C372.113 328.134 371.299 328.642 370.383 329.15C369.569 329.658 368.653 330.267 367.839 330.877C367.635 330.978 367.534 331.08 367.33 331.283C362.649 334.737 358.579 338.699 355.22 343.169C352.88 346.217 350.845 349.569 349.217 352.921C349.217 353.023 349.115 353.023 349.115 353.023C347.792 355.867 346.571 358.813 345.757 361.759C344.23 366.737 343.416 372.02 343.314 377.201C343.314 378.623 343.314 380.147 343.416 381.569C343.62 381.671 343.62 385.531 343.62 385.734Z" fill="black"/>
  <path d="M459.728 386.242H343.619C343.314 386.242 343.11 386.039 343.11 385.734C343.11 383.804 343.008 382.178 343.008 381.873C343.008 381.772 342.906 381.772 342.906 381.67C342.805 380.248 342.805 378.724 342.805 377.302C342.906 372.019 343.721 366.635 345.247 361.759C345.959 359.219 347.079 356.375 348.605 352.921C348.605 352.819 348.707 352.819 348.707 352.718C350.437 349.264 352.472 345.911 354.711 342.965C358.069 338.495 362.139 334.534 366.922 330.978C367.024 330.775 367.227 330.673 367.533 330.572C368.448 329.861 369.364 329.251 370.077 328.845C370.585 328.54 370.992 328.337 371.4 328.032C371.807 327.727 372.315 327.524 372.722 327.219L373.333 326.914C378.116 324.172 383.509 322.14 389.309 320.921H389.411C389.615 320.921 389.818 320.819 390.022 320.819C390.225 320.819 390.327 320.819 390.531 320.718C392.769 320.311 394.805 320.006 396.84 319.803H397.043C397.756 319.702 398.468 319.6 399.18 319.6C400.401 319.499 401.724 319.499 402.945 319.499C404.777 319.499 406.609 319.6 408.542 319.803C418.718 320.921 428.386 324.578 436.527 330.47C439.172 332.299 441.92 334.635 444.566 337.378C448.229 341.238 451.384 345.505 453.826 349.873C456.573 354.75 458.812 363.08 460.542 374.762C461.051 378.521 460.949 382.28 460.237 386.039C460.135 386.039 459.932 386.242 459.728 386.242ZM344.128 385.226H459.321C459.932 381.772 460.033 378.216 459.524 374.762C457.896 363.486 455.556 354.953 453.012 350.28C450.57 345.911 447.517 341.848 443.955 337.988C441.411 335.245 438.765 333.01 436.119 331.283C428.08 325.594 418.617 321.937 408.542 320.819C406.711 320.616 404.879 320.514 403.149 320.514C401.928 320.514 400.605 320.514 399.384 320.616C398.671 320.616 398.061 320.718 397.349 320.819H397.043C395.11 321.022 393.075 321.327 390.836 321.733C390.632 321.733 390.429 321.835 390.225 321.835C390.022 321.835 389.92 321.835 389.716 321.937H389.615C383.916 323.257 378.625 325.187 373.842 327.829L373.231 328.134C372.824 328.337 372.315 328.641 371.908 328.845C371.501 329.149 370.992 329.353 370.585 329.657C369.975 330.064 369.059 330.673 368.143 331.384C367.94 331.486 367.838 331.587 367.736 331.791C362.953 335.346 358.985 339.308 355.627 343.575C353.388 346.419 351.353 349.772 349.724 353.226C349.724 353.327 349.623 353.429 349.521 353.53C347.995 356.883 346.977 359.524 346.265 362.064C344.738 366.94 343.924 372.223 343.822 377.404C343.822 378.826 343.822 380.248 343.924 381.569C344.026 381.772 344.128 382.686 344.128 385.226Z" fill="black"/>
  <path d="M447.213 284.451L464.41 289.428C483.745 279.574 481.71 230.203 481.71 230.203L481.405 230.304L455.354 240.869C455.354 240.869 447.009 252.044 450.876 265.555C451.69 268.298 448.027 277.441 447.213 284.451Z" fill="black"/>
  <path d="M464.41 289.936H464.308L447.11 284.958C446.907 284.856 446.703 284.653 446.703 284.45C447.11 281.301 448.026 277.644 448.84 274.393C449.858 270.634 450.774 267.079 450.367 265.758C446.5 252.145 454.844 240.767 454.946 240.666C455.048 240.564 455.048 240.564 455.149 240.463L481.505 229.796C481.607 229.796 481.811 229.796 481.912 229.897C482.014 229.999 482.116 230.101 482.116 230.304C482.218 232.336 483.948 280.082 464.511 290.037C464.613 289.936 464.511 289.936 464.41 289.936ZM447.721 284.044L464.308 288.818C481.709 279.676 481.302 236.907 481.2 230.812L455.658 241.174C454.844 242.393 447.823 252.958 451.384 265.352C451.893 266.977 450.977 270.329 449.858 274.495C449.044 277.644 448.128 281.098 447.721 284.044Z" fill="black"/>
  <path d="M526.789 295.828C536.66 295.828 546.225 291.968 553.45 284.958C563.219 275.409 567.086 261.187 563.524 247.98C563.423 247.676 563.321 247.269 563.219 246.965L543.274 186.418C539.814 175.955 528.62 170.266 518.139 173.72C510.202 176.361 510.812 186.113 510.303 193.834C510.1 196.374 504.605 196.272 505.521 198.812L522.209 249.606C523.024 251.942 520.785 254.279 518.343 253.568L460.542 236.806C449.654 233.657 438.257 240.158 435.611 251.333C433.169 261.796 439.681 272.26 450.061 275.206L516.409 294.305C519.767 295.32 523.329 295.828 526.789 295.828Z" fill="white"/>
  <path d="M526.787 296.337C523.226 296.337 519.562 295.829 516.306 294.813L449.958 275.715C439.171 272.667 432.658 261.899 435.202 251.232C436.525 245.746 439.883 241.175 444.768 238.33C449.652 235.486 455.351 234.775 460.744 236.4L518.545 253.162C519.562 253.467 520.478 253.162 521.19 252.451C521.903 251.74 522.106 250.724 521.801 249.911L505.112 199.117C504.502 197.39 506.13 196.578 507.554 195.968C508.674 195.46 509.793 194.952 509.895 194.038C509.997 193.124 509.997 192.209 509.997 191.194C510.302 184.082 510.709 175.955 518.036 173.517C523.226 171.79 528.721 172.197 533.605 174.635C538.49 177.073 542.051 181.34 543.781 186.521L563.726 247.067C563.828 247.27 563.828 247.372 563.93 247.575C563.93 247.778 564.032 247.88 564.032 248.083C567.695 261.492 563.727 275.918 553.856 285.569C546.529 292.375 536.862 296.337 526.787 296.337ZM454.944 236.502C451.586 236.502 448.228 237.416 445.175 239.143C440.596 241.886 437.339 246.153 436.118 251.435C433.778 261.594 439.985 271.753 450.263 274.699L516.611 293.797C519.868 294.813 523.429 295.321 526.889 295.321C536.76 295.321 546.02 291.461 553.245 284.553C562.912 275.105 566.678 261.188 563.218 248.083C563.218 247.981 563.116 247.778 563.014 247.575C563.014 247.372 562.912 247.27 562.912 247.067L542.764 186.622C541.136 181.644 537.676 177.682 533.096 175.346C528.517 173.009 523.226 172.603 518.239 174.228C511.625 176.463 511.218 183.879 510.913 190.99C510.913 192.006 510.811 192.921 510.811 193.835C510.709 195.359 509.183 196.07 507.86 196.679C506.333 197.39 505.621 197.797 505.926 198.609L522.615 249.403C523.022 250.622 522.717 252.045 521.801 253.061C520.885 254.076 519.46 254.483 518.138 254.076L460.337 237.314C458.607 236.807 456.776 236.502 454.944 236.502Z" fill="black"/>
  <path d="M518.75 259.561C518.75 256.107 522.21 251.942 522.21 251.942C522.21 251.942 521.09 254.583 522.108 257.428" fill="white"/>
  <path d="M519.258 259.562H518.24C518.24 256.007 521.7 251.842 521.802 251.639C522.005 251.435 522.209 251.435 522.412 251.537C522.616 251.639 522.718 251.943 522.616 252.146C522.616 252.146 521.598 254.686 522.514 257.226L521.598 257.531C521.191 256.312 521.09 255.194 521.191 254.178C520.275 255.702 519.258 257.734 519.258 259.562Z" fill="black"/>
  <path d="M534.727 187.435C532.896 182.254 528.215 168.743 526.79 159.397C526.485 157.772 525.467 156.451 524.043 155.841C523.228 155.537 522.414 155.435 521.499 155.537C518.954 155.943 517.225 158.28 517.632 160.819C519.158 170.876 523.839 184.692 525.773 190.178" fill="white"/>
  <path d="M525.263 190.38C522.821 183.472 518.547 170.571 517.123 160.92C516.715 158.177 518.649 155.536 521.396 155.028C522.414 154.926 523.33 155.028 524.246 155.333C525.874 156.044 526.993 157.466 527.299 159.295C528.011 163.764 529.944 172.298 535.236 187.231L534.32 187.536C529.029 172.501 527.095 163.866 526.383 159.396C526.077 157.974 525.162 156.755 523.94 156.247C523.228 155.942 522.516 155.841 521.702 155.942C519.463 156.348 517.937 158.38 518.242 160.615C519.667 170.164 523.941 183.066 526.383 189.872L525.263 190.38Z" fill="black"/>
  <path d="M525.463 189.364C525.361 189.161 518.543 171.383 516.508 159.701C516.203 158.075 515.083 156.755 513.659 156.247C512.844 155.942 512.03 155.84 511.115 155.942C508.57 156.348 506.942 158.786 507.349 161.326C509.588 173.821 515.796 192.006 516.101 192.818" fill="white"/>
  <path d="M515.593 193.023C514.982 191.499 508.978 173.518 506.841 161.429C506.332 158.584 508.266 155.943 511.013 155.435C512.031 155.333 512.947 155.435 513.863 155.74C515.491 156.349 516.712 157.772 517.017 159.6C519.053 171.283 525.871 188.959 525.972 189.162L525.056 189.569C524.955 189.467 518.137 171.588 516.101 159.803C515.796 158.381 514.88 157.162 513.557 156.756C512.845 156.451 512.031 156.349 511.217 156.451C509.08 156.756 507.554 158.991 507.859 161.226C509.996 173.213 516 191.092 516.61 192.616L515.593 193.023Z" fill="black"/>
  <path d="M516.101 192.718C514.065 187.029 510.097 175.347 508.57 166.813C508.265 165.188 507.146 163.867 505.721 163.359C504.907 163.055 504.093 162.953 503.177 163.055C500.633 163.461 499.005 165.899 499.412 168.439C501.651 180.934 508.774 200.236 509.079 201.049" fill="white"/>
  <path d="M508.571 201.25C508.469 201.047 501.142 181.339 498.904 168.539C498.395 165.695 500.328 163.053 503.076 162.545C504.093 162.444 505.009 162.545 505.925 162.85C507.553 163.46 508.775 164.882 509.08 166.711C510.606 175.142 514.473 186.52 516.61 192.514L515.694 192.819C513.557 186.723 509.69 175.345 508.164 166.812C507.859 165.39 506.943 164.171 505.62 163.764C504.908 163.46 504.093 163.358 503.279 163.46C501.142 163.764 499.616 165.999 499.921 168.234C502.16 180.933 509.487 200.539 509.589 200.742L508.571 201.25Z" fill="black"/>
  <path d="M546.836 197.287C546.734 197.084 540.527 178.494 539.001 166.71C538.797 165.084 537.779 163.764 536.355 163.052C535.642 162.748 534.727 162.544 533.811 162.646C531.267 162.951 529.435 165.287 529.74 167.827C530.554 174.227 532.488 182.151 534.32 188.653" fill="white"/>
  <path d="M546.427 197.492C546.325 197.39 540.118 178.698 538.591 166.711C538.388 165.289 537.574 164.07 536.251 163.46C535.844 163.257 534.928 162.952 534.012 163.054C531.773 163.358 530.145 165.39 530.349 167.625C531.265 174.432 533.3 182.66 534.928 188.349L533.91 188.654C532.282 182.965 530.145 174.635 529.331 167.727C529.026 164.882 531.061 162.343 533.809 161.936C535.03 161.835 536.047 162.139 536.658 162.343C538.286 163.155 539.405 164.679 539.609 166.406C541.135 178.292 547.343 196.679 547.445 196.882L546.427 197.492Z" fill="black"/>
  <path d="M519.666 214.864C519.564 216.489 518.649 218.013 517.02 218.724C514.68 219.842 511.932 218.826 510.813 216.591C510.813 216.489 507.862 208.362 494.022 196.375C492.089 194.648 491.885 191.804 493.615 189.873C495.04 188.248 497.279 187.842 499.009 188.756C499.416 188.959 499.721 189.162 500.128 189.467C506.946 195.359 509.999 199.524 513.255 203.689L515.189 206.127" fill="white"/>
  <path d="M514.983 219.638C513.05 219.638 511.218 218.622 510.302 216.794V216.692C510.201 216.387 507.25 208.463 493.715 196.781C492.698 195.866 492.087 194.647 491.985 193.225C491.884 191.905 492.393 190.584 493.308 189.568C494.835 187.841 497.379 187.333 499.312 188.349C499.719 188.552 500.126 188.755 500.533 189.06C506.843 194.546 509.997 198.508 512.948 202.368L515.594 205.822L514.78 206.432L512.134 202.978C509.183 199.117 506.13 195.155 499.821 189.771C499.516 189.568 499.211 189.365 498.803 189.162C497.175 188.349 495.242 188.755 494.021 190.178C493.308 190.99 492.901 192.108 493.003 193.124C493.105 194.241 493.614 195.155 494.428 195.968C507.453 207.244 510.811 214.965 511.32 216.387C512.338 218.419 514.78 219.232 516.815 218.317C518.24 217.708 519.054 216.387 519.156 214.863L520.173 214.965C520.072 216.895 518.952 218.521 517.222 219.232C516.51 219.536 515.798 219.638 514.983 219.638Z" fill="black"/>
  <path d="M395.314 246.356C395.314 259.765 404.168 272.159 417.702 276.019L447.213 284.451L464.41 289.429C464.817 270.025 469.905 251.029 479.369 234.063L481.404 230.305L481.506 230.101L434.798 216.692C418.414 212.019 401.217 221.466 396.536 237.822C395.722 240.667 395.314 243.511 395.314 246.356Z" fill="white"/>
  <path d="M464.409 289.936H464.307L447.11 284.959L417.599 276.527C404.167 272.666 394.805 260.273 394.805 246.355C394.805 243.511 395.212 240.565 396.026 237.72C400.809 221.161 418.21 211.511 434.898 216.285L481.607 229.695C481.709 229.695 481.912 229.796 481.912 230C482.014 230.101 482.014 230.304 481.912 230.406L481.81 230.609L479.775 234.368C470.413 251.13 465.325 270.228 464.918 289.53C464.918 289.733 464.816 289.835 464.714 289.936C464.613 289.936 464.511 289.936 464.409 289.936ZM426.249 215.98C413.02 215.98 400.809 224.615 397.043 237.923C396.229 240.666 395.822 243.511 395.822 246.355C395.822 259.866 404.879 271.854 417.803 275.511L447.313 283.943L463.9 288.717C464.409 269.416 469.599 250.52 478.859 233.758L480.691 230.406L434.593 217.2C431.846 216.387 428.996 215.98 426.249 215.98Z" fill="black"/>
  <path d="M320.113 352.313C320.113 352.313 365.499 362.675 408.747 362.37C451.894 362.066 467.667 352.415 466.547 344.796C465.428 337.177 426.25 318.688 426.25 318.688L348.403 328.542L320.113 352.313Z" fill="black"/>
  <path d="M406.914 362.876C364.684 362.876 320.519 352.92 320.011 352.819C319.807 352.819 319.705 352.616 319.604 352.412C319.604 352.209 319.604 352.006 319.807 351.904L348.097 328.133C348.198 328.031 348.3 328.031 348.402 328.031L426.249 318.177C426.351 318.177 426.453 318.177 426.554 318.177C428.182 318.888 466.038 336.869 467.157 344.692C467.462 346.52 466.75 348.552 465.223 350.279C462.069 353.936 450.265 362.571 408.848 362.774C408.136 362.876 407.525 362.876 406.914 362.876ZM321.232 352.006C328.151 353.53 369.568 362.063 408.746 361.86C437.137 361.657 457.897 357.085 464.308 349.669C465.732 348.044 466.241 346.419 466.037 344.895C465.122 338.901 437.036 324.374 426.147 319.193L348.605 329.047L321.232 352.006Z" fill="black"/>
  <path d="M320.112 352.311L351.352 341.543C367.125 336.159 383.509 332.705 400.096 332.095C421.567 331.181 450.264 327.727 466.342 344.794L443.344 237.009C442.225 223.193 430.115 212.933 416.276 214.05L340.667 220.247C326.828 221.364 316.55 233.453 317.669 247.269L320.112 352.311Z" fill="white"/>
  <path d="M320.111 352.819C320.009 352.819 319.908 352.819 319.806 352.717C319.704 352.616 319.602 352.514 319.602 352.311L317.16 247.269C316.041 233.25 326.522 220.856 340.667 219.739L416.275 213.542C423.093 213.034 429.708 215.167 434.999 219.536C440.189 224.005 443.344 230.101 443.954 237.009L466.952 344.692C466.952 344.895 466.85 345.098 466.647 345.2C466.443 345.301 466.24 345.301 466.036 345.098C451.688 329.86 426.757 331.181 406.71 332.196C404.471 332.298 402.334 332.4 400.197 332.501C384.628 333.111 368.244 336.26 351.555 341.949L320.315 352.717C320.213 352.819 320.213 352.819 320.111 352.819ZM418.31 214.456C417.598 214.456 416.988 214.456 416.275 214.558L340.667 220.755C327.133 221.872 317.058 233.758 318.178 247.269L320.62 351.6L351.25 341.035C367.939 335.346 384.424 332.095 400.095 331.587C402.232 331.485 404.369 331.384 406.608 331.282C426.35 330.266 450.67 328.946 465.528 343.168L442.937 237.11C442.428 230.507 439.375 224.513 434.389 220.348C429.809 216.488 424.213 214.456 418.31 214.456Z" fill="black"/>
  <path d="M287.953 294.001C287.953 294.001 315.836 316.451 349.62 308.934L341.785 285.264L303.93 272.159L287.953 294.001Z" fill="black"/>
  <path d="M335.68 310.964C308.612 310.964 287.954 294.608 287.649 294.405C287.446 294.202 287.446 293.897 287.547 293.694L303.524 271.853C303.626 271.649 303.931 271.649 304.134 271.649L341.989 284.754C342.091 284.856 342.295 284.957 342.295 285.059L350.13 308.729C350.13 308.831 350.13 309.034 350.13 309.135C350.029 309.237 349.927 309.338 349.825 309.338C344.941 310.456 340.158 310.964 335.68 310.964ZM288.667 293.897C292.127 296.538 318.177 315.129 349.011 308.526L341.481 285.669L304.236 272.767L288.667 293.897Z" fill="black"/>
  <path d="M291.721 324.476H330.695C336.903 287.194 352.472 258.14 352.981 257.327C358.069 248.082 354.711 236.4 345.45 231.219C336.19 226.038 324.488 229.492 319.298 238.736C319.094 239.143 318.28 240.565 317.161 242.8C311.564 253.974 297.012 285.568 291.721 324.476Z" fill="white"/>
  <path d="M330.696 324.984H291.722C291.62 324.984 291.416 324.882 291.315 324.781C291.213 324.679 291.213 324.476 291.213 324.374C296.403 286.076 310.751 254.38 316.653 242.494C317.467 240.971 318.078 239.751 318.485 239.04C318.688 238.736 318.79 238.532 318.79 238.431C321.334 233.859 325.608 230.507 330.696 228.983C335.784 227.561 341.076 228.069 345.655 230.71C355.119 235.993 358.579 248.082 353.389 257.529C353.185 257.834 337.412 286.888 331.205 324.476C331.205 324.781 330.9 324.984 330.696 324.984ZM292.332 323.968H330.289C336.598 286.38 352.371 257.326 352.575 257.021C357.459 248.082 354.203 236.704 345.248 231.624C340.872 229.186 335.886 228.577 331.001 229.999C326.219 231.421 322.25 234.57 319.706 238.939C319.604 239.04 319.502 239.244 319.401 239.548C318.994 240.259 318.383 241.377 317.569 243.002C311.769 254.786 297.522 286.076 292.332 323.968Z" fill="black"/>
  <path d="M349.622 308.935L361.732 259.055C365.904 242.09 355.423 224.921 338.327 220.858C321.333 216.693 304.135 227.156 300.065 244.223L287.955 294.103L291.517 294.001C311.869 293.29 332.018 298.471 349.622 308.935Z" fill="white"/>
  <path d="M349.621 309.44C349.519 309.44 349.418 309.44 349.316 309.339C331.813 298.875 311.766 293.796 291.516 294.507L287.954 294.608C287.751 294.608 287.649 294.507 287.547 294.405C287.445 294.304 287.445 294.101 287.445 293.999L299.555 244.119C301.59 235.687 306.678 228.678 314.107 224.106C321.433 219.637 330.083 218.316 338.428 220.348C346.874 222.379 353.895 227.459 358.474 234.875C362.952 242.189 364.275 250.824 362.24 259.154L350.13 309.034C350.13 309.237 350.028 309.339 349.825 309.339C349.723 309.44 349.723 309.44 349.621 309.44ZM295.281 293.389C314.208 293.389 332.831 298.469 349.316 308.12L361.222 258.951C363.257 250.926 361.934 242.494 357.559 235.383C353.183 228.272 346.365 223.294 338.224 221.364C330.083 219.332 321.739 220.652 314.615 225.021C307.492 229.389 302.506 236.195 300.572 244.322L288.565 293.593L291.414 293.491C292.737 293.491 293.958 293.389 295.281 293.389Z" fill="black"/>
  <path d="M346.467 190.686C350.345 190.686 353.488 187.548 353.488 183.677C353.488 179.805 350.345 176.667 346.467 176.667C342.589 176.667 339.445 179.805 339.445 183.677C339.445 187.548 342.589 190.686 346.467 190.686Z" fill="white"/>
  <path d="M346.468 191.194C342.296 191.194 338.938 187.841 338.938 183.676C338.938 179.511 342.296 176.159 346.468 176.159C350.64 176.159 353.998 179.511 353.998 183.676C353.998 187.841 350.64 191.194 346.468 191.194ZM346.468 177.175C342.906 177.175 339.955 180.121 339.955 183.676C339.955 187.232 342.906 190.178 346.468 190.178C350.029 190.178 352.981 187.232 352.981 183.676C352.981 180.121 350.029 177.175 346.468 177.175Z" fill="black"/>
  <path d="M380.76 234.471C372.314 234.369 365.598 227.36 365.801 219.029L366.208 194.344C366.208 192.617 367.735 191.194 369.465 191.194L393.582 191.601C395.312 191.601 396.737 193.125 396.737 194.852L396.33 219.537C396.126 227.868 389.206 234.572 380.76 234.471Z" fill="white"/>
  <path d="M380.965 234.979C380.863 234.979 380.863 234.979 380.762 234.979C376.589 234.979 372.621 233.252 369.67 230.204C366.719 227.157 365.192 223.195 365.294 219.03L365.701 194.344C365.701 192.414 367.431 190.687 369.466 190.687L393.583 191.093C395.517 191.093 397.247 192.82 397.247 194.852L396.84 219.537C396.636 228.071 389.513 234.979 380.965 234.979ZM369.466 191.702C367.94 191.702 366.718 192.921 366.718 194.344L366.311 219.03C366.21 222.89 367.634 226.649 370.382 229.493C373.129 232.338 376.793 233.963 380.762 233.963C380.863 233.963 380.863 233.963 380.965 233.963C389.004 233.963 395.619 227.563 395.822 219.537L396.229 194.852C396.229 193.328 395.008 192.109 393.583 192.109L369.466 191.702Z" fill="black"/>
  <path d="M394.497 192.92C395.005 193.225 395.616 193.428 396.226 193.53C396.226 193.53 396.226 193.53 396.328 193.53V193.326C396.735 191.396 397.041 189.466 397.041 187.434C397.142 184.488 396.634 181.542 395.819 178.799C392.767 179.714 390.426 182.558 390.426 186.012C390.324 189.06 392.054 191.599 394.497 192.92Z" fill="black"/>
  <path d="M396.329 194.038H396.227C395.413 193.937 394.803 193.733 394.294 193.327C391.546 191.803 389.817 188.959 389.918 185.911C389.918 182.457 392.259 179.206 395.719 178.19C395.82 178.19 396.024 178.19 396.126 178.19C396.228 178.292 396.329 178.394 396.329 178.495C397.245 181.543 397.652 184.59 397.55 187.333C397.55 189.568 397.143 191.702 396.838 193.225V193.327C396.838 193.835 396.635 194.038 396.329 194.038ZM395.515 179.409C392.768 180.425 390.936 183.067 390.936 186.013C390.834 188.654 392.259 191.194 394.701 192.514C395.006 192.718 395.413 192.819 395.82 192.921C396.126 191.397 396.431 189.467 396.431 187.435C396.635 184.895 396.228 182.254 395.515 179.409Z" fill="black"/>
  <path d="M397.654 177.582C397.349 177.582 397.044 177.582 396.637 177.683V170.775C396.637 156.655 385.138 145.277 371.095 145.277C356.95 145.277 345.553 156.756 345.553 170.775L345.655 188.249C345.655 193.43 347.079 198.61 350.132 202.877C354.711 209.379 362.242 213.747 370.891 213.95C373.639 213.95 376.386 213.645 378.93 212.833C387.58 210.192 394.398 203.08 396.535 194.242C396.535 194.141 396.535 194.141 396.535 194.039C396.738 193.226 396.84 192.515 396.942 191.703C397.146 191.703 397.247 191.703 397.451 191.703C401.318 191.804 404.472 188.655 404.574 184.795C404.676 180.833 401.521 177.683 397.654 177.582Z" fill="white"/>
  <path d="M370.89 214.457C362.444 214.254 354.507 210.089 349.724 203.181C346.773 199.015 345.145 193.835 345.145 188.247L345.043 170.774C345.043 156.45 356.745 144.768 371.094 144.768C385.442 144.768 397.145 156.45 397.145 170.774V177.073C397.348 177.073 397.45 177.073 397.653 177.073C401.826 177.174 405.184 180.628 405.082 184.793C404.98 186.825 404.166 188.654 402.742 190.076C401.317 191.498 399.383 192.209 397.45 192.209C397.348 192.819 397.246 193.428 397.145 194.139V194.241V194.342C395.008 203.282 388.088 210.596 379.235 213.339C376.691 214.05 373.943 214.457 370.89 214.457ZM371.094 145.783C357.254 145.783 346.061 156.958 346.061 170.774L346.162 188.247C346.162 193.631 347.689 198.609 350.538 202.571C355.219 209.174 362.851 213.238 370.89 213.441C373.841 213.441 376.487 213.035 378.726 212.323C387.274 209.682 393.888 202.774 396.025 194.139V194.038V193.936C396.229 193.225 396.331 192.514 396.432 191.701C396.432 191.498 396.636 191.295 396.941 191.295H397.45C399.18 191.295 400.808 190.685 402.029 189.466C403.25 188.247 403.963 186.622 404.064 184.895C404.166 181.339 401.317 178.292 397.653 178.19C397.348 178.19 397.145 178.19 396.738 178.292C396.636 178.292 396.432 178.292 396.331 178.19C396.229 178.088 396.127 177.987 396.127 177.784V170.876C396.127 156.958 384.933 145.783 371.094 145.783Z" fill="black"/>
  <path d="M396.737 181.137C398.67 181.137 400.196 182.762 400.196 184.692C400.196 186.622 398.568 188.146 396.635 188.146" fill="white"/>
  <path d="M396.635 188.654V187.638C398.365 187.638 399.688 186.318 399.688 184.692C399.688 182.965 398.365 181.645 396.737 181.645V180.629C398.975 180.629 400.705 182.457 400.705 184.692C400.705 186.927 398.873 188.654 396.635 188.654Z" fill="black"/>
  <path d="M403.554 167.626C403.656 167.423 403.758 167.321 403.859 167.219C405.691 164.68 406.607 161.53 406.302 158.178C405.793 153.099 402.231 148.73 397.449 147.003C394.599 145.987 391.953 145.987 389.613 146.699C388.392 141.416 383.609 137.353 377.91 137.353C374.552 137.353 371.499 138.775 369.261 141.01C363.155 137.86 343.922 129.733 337.613 146.8C330.286 166.711 363.562 170.47 377.402 161.327C377.503 161.327 377.707 161.327 377.809 161.327C378.317 161.327 378.725 161.327 379.233 161.226C379.437 161.327 379.64 161.429 379.844 161.53C380.76 167.219 385.237 171.689 390.834 172.604C391.241 173.823 391.546 175.042 391.546 176.464C391.546 186.419 385.339 195.461 377.402 196.172C369.464 196.883 365.597 193.023 361.527 194.14C355.218 195.969 348.909 194.851 346.059 192.515C343.312 190.178 348.4 214.966 363.766 215.27C376.282 215.474 382.998 216.388 391.139 206.432C392.666 204.604 393.887 202.47 394.803 200.337C396.431 196.477 397.245 192.21 397.245 187.943V183.778C397.245 179.816 398.161 175.854 399.687 172.197C400.094 171.384 400.908 170.47 401.722 169.556C402.435 168.845 403.045 168.235 403.554 167.626Z" fill="#3F2AFF"/>
  <path d="M356.972 179.207C357.083 178.034 356.265 176.998 355.146 176.894C354.027 176.789 353.03 177.655 352.919 178.828C352.808 180.001 353.626 181.037 354.745 181.141C355.864 181.246 356.861 180.38 356.972 179.207Z" fill="black"/>
  <path d="M351.249 172.706L350.537 171.995C350.537 171.995 353.997 168.744 358.678 171.487L358.169 172.401C354.201 169.963 351.453 172.503 351.249 172.706Z" fill="black"/>
  <path d="M376.415 181.037C376.526 179.864 375.708 178.828 374.589 178.723C373.47 178.618 372.473 179.484 372.363 180.657C372.252 181.83 373.069 182.866 374.188 182.971C375.307 183.076 376.304 182.21 376.415 181.037Z" fill="black"/>
  <path d="M370.687 174.431L369.975 173.72C369.975 173.72 373.434 170.469 378.115 173.212L377.607 174.127C373.638 171.688 370.89 174.228 370.687 174.431Z" fill="black"/>
  <path d="M364.071 200.743C363.155 200.743 362.035 200.54 360.916 199.93L361.425 199.016C365.801 201.353 368.039 197.594 368.141 197.391L369.057 197.899C368.955 197.899 367.225 200.743 364.071 200.743Z" fill="black"/>
  <path d="M363.563 191.5H363.054C361.121 191.297 359.696 189.57 359.798 187.741L361.223 177.684L362.24 177.786L360.816 187.843C360.714 189.164 361.732 190.383 363.156 190.484H363.563V191.5Z" fill="black"/>
  <path d="M269.028 335.754L228.73 367.043L228.527 367.246L226.492 368.872C226.186 369.176 225.779 369.38 225.474 369.684C225.576 370.396 225.677 371.005 225.779 371.716C225.881 372.021 225.881 372.326 225.983 372.631C226.492 375.678 227.204 378.827 227.916 382.18C228.12 383.399 228.425 384.516 228.73 385.735H169.505L168.386 378.929C167.572 373.951 167.47 368.872 167.979 363.996C169.607 348.351 177.545 333.722 190.163 323.868C190.57 323.564 191.079 323.157 191.486 322.852L233.615 290.141C238.296 286.484 243.791 284.452 249.286 284.147C249.998 284.046 250.711 284.046 251.423 284.046C251.525 284.046 251.525 284.046 251.626 284.046H251.728C259.259 284.147 266.687 287.094 272.182 292.782C272.895 293.494 273.607 294.306 274.217 295.119C283.885 307.817 281.646 326.002 269.028 335.754Z" fill="white"/>
  <path d="M228.729 386.243H169.504C169.301 386.243 168.996 386.04 168.996 385.837L167.876 379.03C167.062 374.154 166.96 369.075 167.469 363.995C169.097 348.046 177.238 333.316 189.857 323.563C190.06 323.36 190.264 323.258 190.569 323.055C190.772 322.852 190.976 322.75 191.18 322.547L233.309 289.836C237.99 286.179 243.485 284.046 249.285 283.741C249.997 283.639 250.71 283.639 251.422 283.639H251.626H251.727C259.665 283.741 267.093 286.89 272.588 292.579C273.301 293.29 274.013 294.103 274.624 294.915C284.494 307.817 282.052 326.408 269.332 336.262L229.035 367.449L228.831 367.652L226.796 369.278C226.694 369.379 226.491 369.582 226.287 369.684C226.185 369.786 226.084 369.786 225.982 369.887C225.982 370.09 226.084 370.395 226.084 370.598C226.185 370.903 226.185 371.309 226.287 371.614C226.287 371.716 226.389 371.919 226.389 372.021C226.389 372.122 226.389 372.224 226.491 372.427C226.898 374.967 227.406 377.405 228.017 380.046L228.424 381.976C228.628 382.992 228.831 383.906 229.035 384.922L229.136 385.532C229.136 385.633 229.136 385.837 229.035 385.938C228.933 386.04 228.933 386.243 228.729 386.243ZM169.911 385.227H228.017C227.813 384.211 227.508 383.297 227.305 382.281L226.898 380.351C226.287 377.709 225.778 375.17 225.371 372.732C225.371 372.63 225.269 372.427 225.269 372.325C225.269 372.224 225.269 372.122 225.168 371.919C225.066 371.513 225.066 371.106 224.964 370.801C224.964 370.497 224.862 370.192 224.862 369.786C224.862 369.582 224.862 369.481 224.964 369.379C225.168 369.176 225.371 369.075 225.575 368.871C225.778 368.77 225.88 368.668 225.982 368.567L228.221 366.738L268.518 335.449C280.831 325.9 283.171 308.02 273.606 295.525C272.995 294.712 272.283 294.001 271.571 293.29C266.279 287.804 259.156 284.757 251.422 284.655H251.117C250.404 284.655 249.692 284.655 249.082 284.757C243.485 285.061 238.193 287.093 233.614 290.649L191.485 323.36C191.281 323.462 191.078 323.665 190.874 323.868C190.671 324.071 190.365 324.274 190.162 324.376C177.849 334.027 169.81 348.554 168.182 364.198C167.673 369.176 167.774 374.154 168.589 379.03L169.911 385.227Z" fill="black"/>
  <path d="M215.5 381.468L214.584 381.062C216.416 376.49 222.929 373.341 225.778 372.122C223.844 371.614 219.978 371.309 214.991 373.849L214.482 372.935C222.013 368.973 227.203 371.512 227.508 371.614C227.711 371.716 227.813 371.919 227.813 372.122C227.813 372.325 227.711 372.528 227.508 372.528C227.304 372.63 217.637 376.084 215.5 381.468Z" fill="black"/>
  <path d="M348.401 310.256L345.857 365.215L345.145 379.538V380.148V380.25V380.758L344.942 385.735H227.713L227.916 382.18L228.629 367.348V367.043L230.053 337.278L231.58 304.871C232.089 294.408 239.822 286.078 249.693 284.351C250.304 284.249 250.914 284.147 251.525 284.147H251.627C252.543 284.046 253.56 284.046 254.476 284.046L272.081 284.859L301.795 286.281L305.764 286.484L314.922 286.89L324.284 287.297L327.642 287.5C329.169 287.601 330.593 287.805 332.018 288.211C332.73 288.414 333.341 288.617 334.053 288.821C334.46 288.922 334.867 289.125 335.376 289.328C335.987 289.633 336.699 289.938 337.309 290.243C344.127 294.002 348.808 301.722 348.401 310.256Z" fill="white"/>
  <path d="M344.941 386.243H227.712C227.61 386.243 227.407 386.142 227.305 386.04C227.203 385.939 227.203 385.837 227.203 385.634L227.407 382.078L228.119 367.247V366.942L231.07 304.77C231.579 294.205 239.211 285.57 249.591 283.741C250.201 283.64 250.812 283.538 251.524 283.538H251.626C252.542 283.437 253.559 283.437 254.475 283.437L327.641 286.891C329.371 286.992 330.796 287.195 332.119 287.602C332.424 287.703 332.831 287.805 333.136 287.906C333.442 288.008 333.849 288.11 334.154 288.211C334.459 288.313 334.765 288.414 335.07 288.516C335.172 288.618 335.375 288.618 335.477 288.719C335.782 288.922 336.189 289.024 336.494 289.227C336.8 289.329 337.105 289.532 337.512 289.633C344.839 293.697 349.316 301.722 348.909 310.154L346.365 365.113L345.653 379.437V380.656L345.449 385.634C345.449 386.04 345.246 386.243 344.941 386.243ZM228.221 385.228H344.432L344.635 379.539L345.348 365.215L347.892 310.256C348.299 302.23 344.025 294.51 337.105 290.751C336.8 290.649 336.494 290.446 336.189 290.345C335.884 290.141 335.477 290.04 335.172 289.837C335.07 289.837 334.866 289.735 334.764 289.633C334.459 289.532 334.154 289.43 333.95 289.329C333.543 289.227 333.238 289.125 332.933 289.024C332.628 288.922 332.322 288.821 331.915 288.719C330.694 288.313 329.269 288.11 327.641 288.008L324.283 287.805L301.794 286.789L254.475 284.554C253.559 284.554 252.643 284.554 251.728 284.656H251.524C250.913 284.656 250.303 284.757 249.794 284.859C239.821 286.586 232.596 294.814 232.088 304.872L229.137 367.043V367.348L228.221 385.228Z" fill="black"/>
  <path d="M402.944 385.635H341.989C343.108 383.806 344.126 381.876 345.144 380.149C345.245 380.048 345.245 379.946 345.347 379.743C345.245 379.641 345.245 379.54 345.144 379.438C344.94 379.133 344.736 378.93 344.635 378.625L315.429 333.419C306.78 320.009 310.647 302.13 324.079 293.393C327.641 291.158 331.406 289.736 335.273 289.127C336.697 288.923 338.224 288.822 339.75 288.822C349.214 288.822 358.576 293.495 364.173 302.028L393.073 346.828C400.909 358.308 404.267 372.124 402.944 385.635Z" fill="white"/>
  <path d="M402.944 386.143H341.989C341.785 386.143 341.684 386.041 341.582 385.838C341.48 385.635 341.48 385.432 341.582 385.33C342.192 384.314 342.803 383.197 343.414 382.079C343.821 381.266 344.228 380.555 344.736 379.844C344.736 379.844 344.736 379.743 344.838 379.743C344.838 379.743 344.838 379.641 344.736 379.641C344.635 379.539 344.635 379.438 344.533 379.438C344.431 379.235 344.228 379.031 344.126 378.828L315.022 333.723C306.271 320.11 310.24 301.825 323.774 292.987C327.335 290.752 331.202 289.228 335.171 288.618C336.596 288.415 338.122 288.313 339.75 288.313C349.825 288.313 359.085 293.291 364.58 301.723L393.48 346.523C401.214 357.901 404.775 371.819 403.453 385.635C403.453 385.939 403.249 386.143 402.944 386.143ZM342.905 385.127H402.537C403.758 371.717 400.298 358.206 392.666 347.133L363.766 302.333C358.474 294.206 349.417 289.329 339.75 289.329C338.224 289.329 336.697 289.431 335.374 289.634C331.508 290.244 327.844 291.666 324.384 293.799C311.257 302.333 307.39 320.009 315.938 333.114L345.144 378.32C345.144 378.32 345.144 378.422 345.245 378.422C345.245 378.524 345.347 378.727 345.551 378.828C345.652 378.93 345.652 379.031 345.754 379.133C345.754 379.133 345.856 379.235 345.856 379.336C346.059 379.539 346.059 379.743 345.958 379.946C345.958 380.047 345.958 380.047 345.856 380.047C345.856 380.149 345.754 380.251 345.652 380.352C345.245 381.063 344.838 381.774 344.431 382.587C343.821 383.501 343.414 384.314 342.905 385.127Z" fill="black"/>
  <path d="M349.519 381.875C346.364 381.875 344.431 380.96 344.227 380.859C344.024 380.757 343.922 380.554 343.922 380.351C343.922 380.148 344.024 379.944 344.227 379.944C344.329 379.944 355.319 375.982 357.761 369.786L358.677 370.192C356.54 375.576 348.908 379.132 345.855 380.452C347.992 381.062 352.572 381.57 358.372 378.522L358.881 379.436C355.217 381.367 351.961 381.875 349.519 381.875Z" fill="black"/>
  <path d="M257.529 247.372C262.868 247.372 267.196 243.051 267.196 237.721C267.196 232.391 262.868 228.07 257.529 228.07C252.19 228.07 247.861 232.391 247.861 237.721C247.861 243.051 252.19 247.372 257.529 247.372Z" fill="black"/>
  <path d="M311.36 267.387C318.722 267.387 324.691 261.428 324.691 254.078C324.691 246.729 318.722 240.771 311.36 240.771C303.998 240.771 298.029 246.729 298.029 254.078C298.029 261.428 303.998 267.387 311.36 267.387Z" fill="black"/>
  <path d="M311.361 267.893C303.729 267.893 297.521 261.696 297.521 254.077C297.521 246.458 303.729 240.261 311.361 240.261C318.993 240.261 325.2 246.458 325.2 254.077C325.2 261.696 318.993 267.893 311.361 267.893ZM311.361 241.277C304.339 241.277 298.539 247.067 298.539 254.077C298.539 261.086 304.339 266.877 311.361 266.877C318.382 266.877 324.183 261.086 324.183 254.077C324.183 247.067 318.382 241.277 311.361 241.277Z" fill="black"/>
  <path d="M317.569 278.357C322.065 278.357 325.709 274.718 325.709 270.23C325.709 265.741 322.065 262.103 317.569 262.103C313.073 262.103 309.428 265.741 309.428 270.23C309.428 274.718 313.073 278.357 317.569 278.357Z" fill="black"/>
  <path d="M317.568 278.864C312.785 278.864 308.918 275.004 308.918 270.229C308.918 265.455 312.785 261.594 317.568 261.594C322.35 261.594 326.217 265.455 326.217 270.229C326.217 275.004 322.35 278.864 317.568 278.864ZM317.568 262.61C313.395 262.61 309.936 266.064 309.936 270.229C309.936 274.394 313.395 277.848 317.568 277.848C321.74 277.848 325.2 274.394 325.2 270.229C325.2 266.064 321.74 262.61 317.568 262.61Z" fill="black"/>
  <path d="M319.704 288.922C323.357 288.922 326.319 285.965 326.319 282.319C326.319 278.672 323.357 275.715 319.704 275.715C316.051 275.715 313.09 278.672 313.09 282.319C313.09 285.965 316.051 288.922 319.704 288.922Z" fill="black"/>
  <path d="M319.703 289.428C315.735 289.428 312.58 286.279 312.58 282.317C312.58 278.355 315.735 275.206 319.703 275.206C323.672 275.206 326.827 278.355 326.827 282.317C326.827 286.279 323.672 289.428 319.703 289.428ZM319.703 276.221C316.345 276.221 313.598 278.964 313.598 282.317C313.598 285.669 316.345 288.412 319.703 288.412C323.061 288.412 325.809 285.669 325.809 282.317C325.809 278.964 323.061 276.221 319.703 276.221Z" fill="black"/>
  <path d="M318.079 298.98C321.114 298.98 323.574 296.524 323.574 293.494C323.574 290.464 321.114 288.008 318.079 288.008C315.044 288.008 312.584 290.464 312.584 293.494C312.584 296.524 315.044 298.98 318.079 298.98Z" fill="black"/>
  <path d="M318.078 299.486C314.72 299.486 312.074 296.845 312.074 293.493C312.074 290.14 314.72 287.499 318.078 287.499C321.436 287.499 324.082 290.14 324.082 293.493C324.082 296.845 321.436 299.486 318.078 299.486ZM318.078 288.515C315.331 288.515 313.092 290.75 313.092 293.493C313.092 296.236 315.331 298.471 318.078 298.471C320.826 298.471 323.064 296.236 323.064 293.493C323.064 290.75 320.826 288.515 318.078 288.515Z" fill="black"/>
  <path d="M315.532 304.057C317.274 304.057 318.686 302.647 318.686 300.908C318.686 299.169 317.274 297.759 315.532 297.759C313.789 297.759 312.377 299.169 312.377 300.908C312.377 302.647 313.789 304.057 315.532 304.057Z" fill="#FEBCB4"/>
  <path d="M312.684 310.762C314.932 310.762 316.754 308.943 316.754 306.699C316.754 304.455 314.932 302.635 312.684 302.635C310.436 302.635 308.613 304.455 308.613 306.699C308.613 308.943 310.436 310.762 312.684 310.762Z" fill="black"/>
  <path d="M312.685 311.269C310.141 311.269 308.105 309.237 308.105 306.697C308.105 304.158 310.141 302.126 312.685 302.126C315.229 302.126 317.264 304.158 317.264 306.697C317.264 309.237 315.229 311.269 312.685 311.269ZM312.685 303.142C310.751 303.142 309.123 304.767 309.123 306.697C309.123 308.628 310.751 310.253 312.685 310.253C314.618 310.253 316.246 308.628 316.246 306.697C316.246 304.767 314.618 303.142 312.685 303.142Z" fill="black"/>
  <path d="M253.867 255.803C257.689 255.803 260.787 252.71 260.787 248.895C260.787 245.08 257.689 241.987 253.867 241.987C250.045 241.987 246.947 245.08 246.947 248.895C246.947 252.71 250.045 255.803 253.867 255.803Z" fill="white"/>
  <path d="M253.866 256.311C249.796 256.311 246.438 252.958 246.438 248.895C246.438 244.831 249.796 241.479 253.866 241.479C257.936 241.479 261.295 244.831 261.295 248.895C261.295 252.958 257.936 256.311 253.866 256.311ZM253.866 242.495C250.304 242.495 247.455 245.339 247.455 248.895C247.455 252.45 250.304 255.295 253.866 255.295C257.428 255.295 260.277 252.45 260.277 248.895C260.277 245.339 257.428 242.495 253.866 242.495Z" fill="black"/>
  <path d="M286.431 299.182C278.188 298.878 271.777 291.97 272.083 283.741L272.999 259.461C273.1 257.836 274.423 256.515 276.051 256.617L302.916 253.265L301.899 284.757C301.492 293.087 294.674 299.487 286.431 299.182Z" fill="white"/>
  <path d="M287.04 299.688C286.837 299.688 286.633 299.688 286.43 299.688C277.983 299.384 271.267 292.171 271.573 283.739L272.488 259.46C272.59 258.545 272.895 257.631 273.608 257.022C274.32 256.412 275.134 256.107 276.05 256.107L302.813 252.755C302.915 252.755 303.118 252.755 303.22 252.856C303.322 252.958 303.424 253.06 303.424 253.263L302.406 284.755C301.999 293.288 295.283 299.688 287.04 299.688ZM275.948 257.123C275.236 257.123 274.727 257.326 274.32 257.733C273.811 258.139 273.608 258.749 273.506 259.46L272.59 283.739C272.285 291.663 278.492 298.368 286.43 298.673C294.367 298.977 300.981 292.882 301.388 284.755L302.406 253.872L276.152 257.123C276.05 257.123 276.05 257.123 275.948 257.123Z" fill="black"/>
  <path d="M300.677 258.851C301.186 259.156 301.796 259.359 302.407 259.562C302.407 259.562 302.407 259.562 302.509 259.562V259.359C303.017 257.53 303.221 255.6 303.323 253.569C303.424 250.622 303.119 247.778 302.305 245.137C299.252 245.949 297.013 248.794 296.912 252.045C296.606 254.889 298.235 257.53 300.677 258.851Z" fill="black"/>
  <path d="M302.509 260.07H302.408C302.306 260.07 302.306 260.07 302.204 260.07C301.594 259.867 300.983 259.664 300.372 259.359C297.625 257.835 295.997 254.991 296.404 252.045C296.506 248.591 298.846 245.543 302.204 244.731C302.509 244.629 302.713 244.832 302.815 245.035C303.629 247.575 303.934 250.521 303.832 253.67C303.731 256.108 303.425 257.937 303.018 259.461V259.562C303.018 259.867 302.815 260.07 302.509 260.07ZM302.001 245.747C299.355 246.661 297.523 249.2 297.421 252.045C297.116 254.585 298.541 257.124 300.881 258.343C301.187 258.547 301.594 258.75 302.001 258.851C302.408 257.327 302.611 255.702 302.713 253.467C302.916 250.724 302.611 248.083 302.001 245.747Z" fill="black"/>
  <path d="M285.006 277.951C282.563 278.662 279.816 278.967 277.17 278.967C263.229 278.459 252.239 266.776 252.747 252.757C253.256 238.839 264.959 227.868 279.002 228.376C289.381 228.782 298.031 235.284 301.593 244.224C302.407 243.919 303.221 243.817 304.137 243.817C307.902 243.919 310.853 247.17 310.751 250.928C310.649 254.687 307.393 257.633 303.628 257.532C303.424 257.532 303.323 257.532 303.119 257.532L302 283.132" fill="white"/>
  <path d="M302.509 283.131H301.492L302.611 257.53C302.611 257.226 302.815 257.022 303.12 257.022H303.629C305.359 257.124 306.987 256.413 308.208 255.295C309.429 254.178 310.141 252.553 310.243 250.927C310.345 247.372 307.597 244.426 304.137 244.324C303.222 244.324 302.509 244.426 301.797 244.73C301.492 244.832 301.288 244.73 301.186 244.426C297.625 235.384 288.873 229.289 279.002 228.883C265.265 228.375 253.766 239.143 253.257 252.756C252.748 266.369 263.535 277.95 277.171 278.458C279.918 278.458 282.564 278.153 284.803 277.442L285.108 278.458C282.768 279.169 280.02 279.473 277.171 279.473C262.924 278.965 251.731 266.978 252.239 252.756C252.748 238.533 264.756 227.359 279.002 227.867C289.077 228.273 298.032 234.368 301.899 243.613C302.611 243.41 303.323 243.308 304.137 243.308C308.208 243.41 311.362 246.864 311.261 250.927C311.159 252.857 310.345 254.686 308.92 256.007C307.496 257.327 305.562 258.038 303.629 258.038L302.509 283.131Z" fill="black"/>
  <path d="M303.016 247.272C304.95 247.374 306.374 248.898 306.273 250.828C306.171 252.758 304.644 254.18 302.711 254.079" fill="white"/>
  <path d="M302.914 254.585C302.813 254.585 302.813 254.585 302.711 254.585L302.813 253.57C304.441 253.671 305.764 252.452 305.866 250.827C305.866 250.014 305.662 249.303 305.153 248.693C304.644 248.185 303.932 247.779 303.118 247.779L303.22 246.763C304.339 246.865 305.255 247.271 305.967 247.982C306.68 248.693 306.985 249.709 306.985 250.827C306.68 253.062 305.051 254.585 302.914 254.585Z" fill="black"/>
  <path d="M266.304 253.217C266.416 252.1 265.691 251.114 264.685 251.013C263.678 250.912 262.771 251.736 262.659 252.852C262.546 253.969 263.271 254.956 264.278 255.056C265.284 255.157 266.191 254.333 266.304 253.217Z" fill="black"/>
  <path d="M261.191 247.27L260.479 246.559C260.479 246.559 263.735 243.613 268.009 246.152L267.5 247.067C263.938 244.832 261.293 247.168 261.191 247.27Z" fill="black"/>
  <path d="M284.003 255.034C284.115 253.918 283.39 252.931 282.384 252.831C281.377 252.73 280.47 253.554 280.358 254.67C280.245 255.787 280.97 256.773 281.977 256.874C282.983 256.975 283.891 256.151 284.003 255.034Z" fill="black"/>
  <path d="M278.999 248.995L278.287 248.284C278.287 248.284 281.543 245.338 285.817 247.877L285.309 248.792C281.747 246.557 279.101 248.893 278.999 248.995Z" fill="black"/>
  <path d="M275.846 272.259L275.744 271.243C280.222 270.735 280.018 266.672 280.018 266.469L281.036 266.367C280.934 266.469 281.239 271.548 275.846 272.259Z" fill="black"/>
  <path d="M271.877 263.929C271.369 263.929 270.046 263.827 269.232 263.014C268.723 262.506 268.519 261.897 268.621 261.084C268.723 260.373 269.028 259.763 269.537 259.357C270.249 258.849 271.165 258.748 271.776 258.748L272.59 250.722L273.607 250.824L272.793 259.357C272.793 259.459 272.692 259.662 272.59 259.662C272.488 259.763 272.386 259.763 272.183 259.763C272.183 259.763 270.962 259.56 270.249 260.17C269.944 260.373 269.741 260.779 269.741 261.186C269.741 261.694 269.842 261.998 270.046 262.303C270.555 262.913 271.776 262.913 272.081 262.913L272.183 263.929C272.081 263.929 271.979 263.929 271.877 263.929Z" fill="black"/>
  <path d="M260.275 214.357C251.727 212.833 243.688 218.522 242.161 226.954C240.635 235.487 246.334 243.513 254.78 245.036C263.328 246.56 271.367 240.871 272.893 232.439" fill="black"/>
  <path d="M257.529 245.746C256.613 245.746 255.697 245.644 254.679 245.543C245.928 243.917 240.127 235.587 241.654 226.851C243.282 218.114 251.626 212.323 260.378 213.847L260.174 214.863C252.033 213.441 244.096 218.825 242.671 227.054C241.247 235.181 246.64 243.105 254.883 244.527C263.024 245.949 270.961 240.565 272.386 232.336L273.403 232.539C271.979 240.26 265.161 245.746 257.529 245.746Z" fill="black"/>
  <path d="M266.585 237.621C266.89 238.23 267.195 238.738 267.501 239.348C271.876 246.357 280.017 250.827 288.87 250.014C301.387 248.897 310.546 237.824 309.426 225.43C308.307 212.935 296.197 213.036 283.681 214.154C274.319 214.966 267.908 212.02 265.16 220.351" fill="black"/>
  <path d="M286.835 250.622C278.897 250.622 271.265 246.457 266.991 239.65C266.788 239.345 266.686 239.041 266.482 238.736C266.279 238.431 266.177 238.126 265.974 237.822L266.89 237.415C266.991 237.72 267.195 238.025 267.297 238.228C267.5 238.533 267.602 238.838 267.805 239.142C272.181 246.152 280.424 250.317 288.666 249.504C294.568 248.996 299.962 246.152 303.727 241.58C307.492 237.009 309.324 231.32 308.815 225.428C307.696 213.441 296.298 213.441 283.578 214.66C281.136 214.863 278.999 214.863 276.964 214.761C271.163 214.66 267.398 214.558 265.465 220.45L264.447 220.145C266.584 213.542 271.163 213.644 276.964 213.745C278.897 213.745 281.136 213.847 283.477 213.644C296.197 212.526 308.611 212.526 309.731 225.428C310.24 231.523 308.408 237.618 304.439 242.292C300.471 247.066 294.874 250.012 288.666 250.52C288.259 250.622 287.547 250.622 286.835 250.622Z" fill="black"/>
  <path d="M293.346 215.066C292.532 205.822 284.289 198.914 275.029 199.727C265.768 200.539 258.849 208.768 259.663 218.012C259.866 219.739 260.273 221.365 260.884 222.889C261.393 224.108 262.003 225.225 262.817 226.343C263.733 227.562 264.751 228.679 265.87 229.593" fill="black"/>
  <path d="M265.567 230C264.448 229.085 263.43 227.968 262.412 226.647C261.598 225.53 260.988 224.412 260.377 223.092C259.767 221.568 259.36 219.841 259.156 218.114C258.342 208.565 265.363 200.133 275.031 199.219C284.596 198.406 293.042 205.517 293.856 215.066L292.839 215.168C292.025 206.127 284.087 199.523 275.031 200.336C265.974 201.149 259.36 209.073 260.174 218.114C260.377 219.739 260.784 221.365 261.395 222.889C261.904 224.108 262.514 225.225 263.226 226.241C264.142 227.46 265.16 228.577 266.177 229.39L265.567 230Z" fill="black"/>
  <path d="M307.902 250.116C314.983 250.116 320.724 244.385 320.724 237.316C320.724 230.247 314.983 224.516 307.902 224.516C300.821 224.516 295.08 230.247 295.08 237.316C295.08 244.385 300.821 250.116 307.902 250.116Z" fill="black"/>
  <path d="M307.901 250.623C300.574 250.623 294.57 244.629 294.57 237.315C294.57 230.001 300.574 224.007 307.901 224.007C315.228 224.007 321.232 230.001 321.232 237.315C321.232 244.629 315.228 250.623 307.901 250.623ZM307.901 225.023C301.083 225.023 295.588 230.508 295.588 237.315C295.588 244.121 301.083 249.607 307.901 249.607C314.719 249.607 320.214 244.121 320.214 237.315C320.214 230.508 314.719 225.023 307.901 225.023Z" fill="black"/>
  <path d="M289.991 231.018C292.331 233.049 295.181 234.268 298.03 234.472C302.202 234.776 306.578 233.253 309.529 229.799C314.617 224.11 314.108 215.271 308.308 210.192C302.609 205.113 293.756 205.621 288.668 211.411" fill="black"/>
  <path d="M299.046 234.979C298.639 234.979 298.334 234.979 297.927 234.979C294.976 234.776 292.025 233.455 289.583 231.423L290.295 230.61C292.534 232.541 295.281 233.76 298.029 233.963C302.303 234.268 306.475 232.642 309.121 229.493C311.461 226.852 312.682 223.398 312.479 219.842C312.275 216.287 310.647 212.934 308.001 210.598C305.356 208.261 301.896 207.042 298.334 207.245C294.772 207.448 291.414 209.074 289.074 211.715L288.26 211.004C290.804 208.058 294.365 206.433 298.232 206.128C302.099 205.925 305.763 207.144 308.612 209.683C311.461 212.223 313.191 215.779 313.496 219.639C313.7 223.499 312.479 227.156 309.935 230.001C307.289 233.252 303.32 234.979 299.046 234.979Z" fill="black"/>
  <path d="M360.716 391.016C360.208 393.048 357.969 394.267 355.527 393.861C352.881 393.454 351.049 391.219 351.354 388.883C351.354 388.781 352.474 380.654 351.151 370.089C350.846 367.753 352.779 365.822 355.323 365.721C357.867 365.619 360.309 367.448 360.615 369.784C362.039 381.467 360.92 390.204 360.818 390.508C360.818 390.711 360.716 390.813 360.716 391.016Z" fill="white"/>
  <path d="M356.441 394.47C356.135 394.47 355.728 394.47 355.423 394.369C352.574 393.962 350.538 391.423 350.844 388.782V388.68C351.047 386.648 351.76 379.232 350.64 370.089C350.538 368.972 350.844 367.753 351.556 366.839C352.472 365.823 353.795 365.213 355.219 365.112C358.069 365.01 360.715 367.042 361.02 369.581C362.343 380.756 361.427 389.289 361.223 390.407C361.223 390.61 361.223 390.712 361.122 390.813V391.016C360.715 393.15 358.781 394.47 356.441 394.47ZM355.525 366.229C355.423 366.229 355.423 366.229 355.321 366.229C354.1 366.229 353.082 366.737 352.37 367.55C351.76 368.261 351.556 369.073 351.658 369.988C352.777 379.232 352.167 386.75 351.861 388.782V388.883C351.556 390.915 353.286 392.947 355.626 393.251C357.763 393.658 359.799 392.54 360.206 390.813C360.206 390.712 360.206 390.509 360.307 390.509C360.307 390.407 360.307 390.305 360.307 390.305C360.511 389.594 361.427 380.959 360.104 369.785C359.799 367.854 357.763 366.229 355.525 366.229Z" fill="black"/>
  <path d="M352.066 390.306C351.557 392.338 349.318 393.557 346.876 393.151C344.23 392.744 342.399 390.509 342.704 388.173C342.704 388.071 343.823 379.944 342.501 369.379C342.195 367.043 344.129 365.112 346.673 365.011C349.319 364.909 351.659 366.738 351.964 369.074C353.389 380.757 352.27 389.494 352.168 389.798C352.066 390.001 352.066 390.205 352.066 390.306Z" fill="white"/>
  <path d="M347.79 393.76C347.485 393.76 347.078 393.76 346.773 393.658C343.923 393.252 341.888 390.712 342.193 388.071V387.969C342.397 385.938 343.109 378.522 341.99 369.379C341.888 368.261 342.193 367.042 342.906 366.128C343.821 365.112 345.144 364.503 346.569 364.401C349.418 364.3 352.064 366.331 352.369 368.871C353.794 380.655 352.675 389.392 352.573 389.798C352.471 390.001 352.471 390.103 352.471 390.103V390.204C352.064 392.439 350.131 393.76 347.79 393.76ZM346.874 365.519C346.773 365.519 346.773 365.519 346.671 365.519C345.45 365.519 344.432 366.027 343.72 366.839C343.109 367.55 342.906 368.363 343.007 369.277C344.127 378.522 343.516 386.039 343.211 388.071V388.173C342.906 390.204 344.636 392.236 346.976 392.541C349.113 392.947 351.148 391.83 351.555 390.103C351.555 390.001 351.555 389.696 351.759 389.392C351.861 388.681 352.878 380.147 351.555 368.973C351.148 367.144 349.113 365.519 346.874 365.519Z" fill="black"/>
  <path d="M343.314 390.407C342.805 392.439 340.567 393.658 338.124 393.252C335.479 392.845 333.647 390.61 333.952 388.274C333.952 388.172 335.071 380.045 333.749 369.48C333.443 367.144 335.377 365.214 337.921 365.112C340.465 365.01 342.907 366.839 343.212 369.175C344.637 380.858 343.518 389.595 343.416 389.899C343.416 390.103 343.314 390.306 343.314 390.407Z" fill="white"/>
  <path d="M339.038 393.862C338.733 393.862 338.326 393.862 338.021 393.76C335.171 393.354 333.136 390.814 333.441 388.173V388.071C333.645 386.039 334.357 378.623 333.238 369.48C333.136 368.363 333.441 367.144 334.154 366.23C335.07 365.214 336.392 364.604 337.817 364.503C340.666 364.401 343.312 366.433 343.617 368.973C344.94 380.147 344.024 388.681 343.821 389.798C343.821 390.001 343.719 390.103 343.719 390.204V390.306C343.312 392.541 341.379 393.862 339.038 393.862ZM338.122 365.62C338.021 365.62 338.021 365.62 337.919 365.62C336.698 365.62 335.68 366.128 334.968 366.941C334.357 367.652 334.154 368.465 334.255 369.379C335.375 378.623 334.764 386.141 334.459 388.173V388.274C334.154 390.306 335.884 392.338 338.224 392.643C340.361 393.049 342.396 391.931 342.803 390.204C342.803 390.103 342.803 390.001 342.905 390.001C342.905 389.9 342.905 389.9 342.905 389.798C342.905 389.696 342.905 389.696 342.905 389.595C343.109 388.884 344.024 380.249 342.702 369.074C342.396 367.246 340.361 365.62 338.122 365.62Z" fill="black"/>
  <path d="M334.664 391.016C334.155 393.048 331.916 394.267 329.474 393.861C326.828 393.454 324.996 391.219 325.302 388.883C325.302 388.781 326.421 380.654 325.098 370.089C324.793 367.753 326.726 365.822 329.27 365.721C331.916 365.619 334.257 367.448 334.562 369.784C335.987 381.467 334.867 390.204 334.765 390.508C334.664 390.711 334.664 390.813 334.664 391.016Z" fill="white"/>
  <path d="M330.388 394.47C330.083 394.47 329.676 394.47 329.37 394.369C326.521 393.962 324.486 391.423 324.791 388.782V388.68C324.994 386.648 325.707 379.232 324.587 370.089C324.486 368.972 324.791 367.753 325.503 366.839C326.419 365.823 327.742 365.213 329.167 365.112C332.016 365.01 334.662 367.042 334.967 369.581C336.392 381.366 335.272 390.102 335.171 390.509C335.069 390.712 335.069 390.712 335.069 390.813V390.915C334.662 393.15 332.728 394.47 330.388 394.47ZM329.472 366.229C329.37 366.229 329.37 366.229 329.268 366.229C328.047 366.229 327.03 366.737 326.317 367.55C325.707 368.261 325.503 369.073 325.605 369.988C326.724 379.232 326.114 386.75 325.809 388.782V388.883C325.503 390.915 327.233 392.947 329.574 393.251C331.711 393.658 333.746 392.54 334.153 390.813C334.153 390.61 334.153 390.407 334.357 390.102C334.458 389.391 335.476 380.858 334.153 369.683C333.746 367.854 331.711 366.229 329.472 366.229Z" fill="black"/>
  <path d="M256.919 385.735C256.817 388.681 256.512 390.408 256.512 390.611C256.512 390.713 256.41 390.916 256.41 391.119C255.901 393.151 253.663 394.37 251.22 393.964C249.49 393.659 248.066 392.541 247.455 391.221C247.15 390.51 247.048 389.799 247.15 389.087C247.15 389.087 247.353 387.868 247.455 385.837C247.557 384.516 247.557 382.789 247.557 380.859C247.557 377.913 247.455 374.256 246.946 370.294C246.845 369.481 247.048 368.77 247.353 368.059C248.066 366.84 249.389 365.925 251.119 365.824C253.764 365.722 256.105 367.551 256.41 369.887C257.122 376.287 257.122 381.976 256.919 385.735Z" fill="white"/>
  <path d="M252.135 394.574C251.83 394.574 251.423 394.574 251.117 394.472C249.286 394.168 247.657 392.949 246.945 391.425C246.64 390.612 246.436 389.799 246.64 388.987C246.64 388.987 246.843 387.768 246.945 385.736C247.047 384.415 247.047 382.688 247.047 380.758C247.047 378.32 246.945 374.46 246.436 370.294C246.334 369.279 246.64 368.466 246.843 367.755C247.759 366.231 249.286 365.317 251.015 365.215C253.865 365.113 256.511 367.145 256.816 369.685C257.63 376.898 257.528 382.79 257.325 385.634C257.223 387.869 257.019 389.495 256.918 390.206C256.918 390.409 256.918 390.51 256.918 390.51C256.918 390.612 256.918 390.714 256.816 390.815C256.816 390.917 256.816 390.917 256.816 391.018V391.12C256.409 393.253 254.475 394.574 252.135 394.574ZM251.321 366.333C251.219 366.333 251.219 366.333 251.117 366.333C249.693 366.434 248.471 367.145 247.759 368.364C247.556 368.872 247.352 369.482 247.454 370.294C247.963 374.561 248.064 378.421 248.064 380.961C248.064 382.891 248.064 384.618 247.963 385.939C247.861 387.971 247.657 389.19 247.657 389.19C247.556 389.799 247.657 390.409 247.963 391.018C248.573 392.237 249.896 393.152 251.321 393.457C253.458 393.761 255.493 392.745 255.9 391.018C255.9 390.815 256.002 390.714 256.002 390.612C256.002 390.51 256.002 390.409 256.104 390.104C256.205 389.393 256.409 387.869 256.511 385.634C256.714 382.79 256.816 376.999 256.002 369.888C255.595 367.958 253.559 366.333 251.321 366.333Z" fill="black"/>
  <path d="M248.167 385.735C248.065 388.275 247.862 389.799 247.76 389.9C247.76 390.002 247.658 390.205 247.658 390.408C247.556 390.713 247.455 390.916 247.353 391.119C246.539 392.643 244.605 393.557 242.468 393.253C240.84 392.948 239.517 392.034 238.805 390.815C238.398 390.103 238.194 389.189 238.296 388.376C238.296 388.376 238.398 387.462 238.5 385.837C238.601 384.415 238.703 382.586 238.703 380.249C238.703 377.303 238.601 373.646 238.093 369.583C237.991 368.973 238.093 368.364 238.296 367.754C238.907 366.23 240.331 365.214 242.265 365.113C244.402 365.011 246.335 366.23 247.149 367.957C247.353 368.364 247.455 368.77 247.455 369.176C248.472 376.084 248.371 381.976 248.167 385.735Z" fill="white"/>
  <path d="M243.282 393.862C242.976 393.862 242.671 393.862 242.366 393.76C240.636 393.455 239.11 392.44 238.295 391.119C237.787 390.306 237.583 389.29 237.685 388.376C237.685 388.376 237.787 387.462 237.888 385.836C237.99 384.516 238.092 382.687 238.092 380.249C238.092 377.811 237.99 373.951 237.481 369.684C237.38 369.074 237.481 368.363 237.685 367.652C238.397 365.925 240.025 364.808 242.061 364.706C244.401 364.604 246.538 365.824 247.454 367.855C247.657 368.363 247.759 368.77 247.759 369.278C248.573 374.56 248.777 380.046 248.472 385.836C248.37 387.97 248.268 389.392 248.064 390.002C248.064 390.103 248.064 390.205 247.963 390.306C247.963 390.408 247.963 390.408 247.963 390.509C247.963 390.611 247.963 390.611 247.963 390.713C247.861 391.017 247.759 391.221 247.657 391.525C246.945 392.846 245.215 393.862 243.282 393.862ZM242.468 365.62C242.366 365.62 242.366 365.62 242.264 365.62C240.534 365.722 239.313 366.535 238.702 367.957C238.499 368.566 238.499 369.074 238.499 369.481C239.008 373.951 239.109 377.709 239.109 380.249C239.109 382.687 239.008 384.617 238.906 385.836C238.804 387.462 238.702 388.376 238.702 388.376C238.601 389.087 238.804 389.9 239.109 390.509C239.72 391.627 240.941 392.44 242.468 392.744C244.299 393.049 246.029 392.236 246.843 390.916C246.945 390.713 247.047 390.611 247.047 390.306C247.047 390.205 247.047 390.002 247.149 389.9C247.149 389.798 247.149 389.697 247.25 389.595C247.352 389.29 247.454 387.97 247.556 385.633C247.861 379.944 247.657 374.56 246.843 369.176C246.843 368.77 246.742 368.465 246.538 368.16C245.927 366.636 244.299 365.62 242.468 365.62ZM247.352 389.494C247.352 389.595 247.352 389.595 247.352 389.494C247.352 389.595 247.352 389.595 247.352 389.494Z" fill="black"/>
  <path d="M239.519 385.736C239.417 388.275 239.213 389.799 239.112 390.002C239.112 390.104 239.01 390.307 239.01 390.51C239.01 390.612 238.908 390.714 238.908 390.815C238.196 392.644 236.161 393.761 233.82 393.355C232.294 393.05 231.072 392.237 230.36 391.12C229.851 390.307 229.546 389.393 229.75 388.377C229.75 388.377 229.851 387.361 229.953 385.736C230.055 384.313 230.157 382.485 230.157 380.25C230.157 377.304 230.055 373.647 229.546 369.583C229.444 369.075 229.546 368.567 229.648 368.059C230.157 366.434 231.683 365.215 233.718 365.113C235.753 365.012 237.585 366.129 238.501 367.653C238.806 368.161 238.908 368.567 239.01 369.177C239.722 376.085 239.722 381.977 239.519 385.736Z" fill="white"/>
  <path d="M234.735 393.964C234.43 393.964 234.023 393.964 233.717 393.862C232.089 393.558 230.766 392.643 229.952 391.424C229.24 390.408 229.036 389.392 229.24 388.275C229.24 388.275 229.342 387.259 229.443 385.735C229.545 384.516 229.647 382.586 229.647 380.25C229.647 377.811 229.545 373.951 229.036 369.684C228.935 369.075 229.036 368.567 229.138 367.957C229.749 366.027 231.479 364.707 233.717 364.605C235.854 364.503 237.89 365.621 239.009 367.348C239.314 367.957 239.518 368.364 239.619 369.075C240.434 376.897 240.332 382.891 240.128 385.735C240.026 387.462 239.925 389.494 239.721 390.104C239.721 390.205 239.721 390.205 239.721 390.307C239.721 390.408 239.721 390.408 239.721 390.51C239.721 390.713 239.619 390.815 239.619 390.916V391.018C238.704 392.846 236.872 393.964 234.735 393.964ZM234.023 365.621C233.921 365.621 233.819 365.621 233.819 365.621C232.089 365.722 230.664 366.738 230.257 368.161C230.156 368.567 230.054 369.075 230.156 369.481C230.664 373.951 230.766 377.71 230.766 380.25C230.766 382.586 230.664 384.516 230.563 385.735C230.461 387.361 230.359 388.377 230.359 388.377C230.156 389.189 230.359 390.002 230.868 390.815C231.479 391.831 232.598 392.542 234.023 392.846C235.956 393.151 237.89 392.338 238.5 390.713C238.5 390.611 238.602 390.51 238.602 390.51C238.602 390.307 238.704 390.205 238.704 390.104C238.704 390.002 238.704 389.9 238.805 389.799C238.805 389.697 239.009 388.377 239.111 385.735C239.314 382.891 239.416 376.999 238.602 369.278C238.5 368.77 238.398 368.364 238.195 367.957C237.177 366.535 235.651 365.621 234.023 365.621Z" fill="black"/>
  <path d="M230.868 385.734C230.766 388.68 230.461 390.407 230.461 390.61C230.461 390.711 230.359 390.915 230.359 391.118C229.748 393.15 227.611 394.369 225.169 393.962C222.523 393.556 220.692 391.321 220.997 388.984C220.997 388.984 221.201 387.765 221.302 385.734C221.404 384.413 221.404 382.788 221.404 380.857C221.404 379.13 221.302 377.2 221.201 375.067C221.099 373.949 220.997 372.73 220.895 371.511C220.895 371.105 220.793 370.699 220.793 370.191C220.488 367.854 222.422 365.924 224.966 365.822C226.289 365.721 227.611 366.229 228.527 367.042C228.629 367.143 228.629 367.143 228.731 367.245C229.036 367.549 229.341 367.854 229.545 368.159C229.85 368.667 230.156 369.276 230.156 369.886C231.071 376.286 231.071 381.975 230.868 385.734Z" fill="white"/>
  <path d="M226.083 394.573C225.778 394.573 225.473 394.573 225.066 394.472C222.216 394.065 220.181 391.526 220.486 388.884C220.486 388.884 220.69 387.665 220.792 385.634C220.893 384.313 220.893 382.688 220.893 380.757C220.893 379.234 220.792 377.405 220.69 375.576V374.967C220.588 373.849 220.486 372.63 220.385 371.411C220.385 371.208 220.385 371.005 220.385 370.802C220.385 370.599 220.283 370.294 220.283 369.989C220.181 368.872 220.486 367.754 221.199 366.84C222.114 365.824 223.437 365.215 224.862 365.113C226.287 365.011 227.711 365.519 228.831 366.434L229.034 366.637C229.339 366.941 229.645 367.246 229.95 367.653C230.255 368.161 230.662 368.872 230.662 369.684C231.578 376.186 231.578 381.976 231.375 385.532C231.273 387.767 231.069 389.392 230.968 390.104C230.968 390.307 230.968 390.408 230.968 390.408C230.968 390.51 230.968 390.611 230.866 390.713C230.866 390.815 230.866 390.815 230.866 390.916V391.018C230.255 393.253 228.322 394.573 226.083 394.573ZM225.269 366.332C225.167 366.332 225.066 366.332 224.964 366.332C223.743 366.332 222.623 366.84 222.013 367.653C221.402 368.364 221.199 369.176 221.3 370.091C221.3 370.395 221.3 370.599 221.402 370.802C221.402 371.005 221.402 371.208 221.402 371.411C221.504 372.63 221.606 373.849 221.707 374.967V375.576C221.809 377.405 221.911 379.234 221.911 380.757C221.911 382.688 221.911 384.313 221.809 385.634C221.707 387.665 221.504 388.884 221.504 388.884C221.199 390.916 222.929 392.948 225.269 393.253C227.406 393.659 229.339 392.643 229.848 390.815C229.848 390.611 229.848 390.51 229.95 390.408C229.95 390.307 229.95 390.205 230.052 389.9C230.154 389.189 230.357 387.665 230.459 385.431C230.662 381.875 230.662 376.186 229.747 369.684C229.747 369.075 229.441 368.567 229.238 368.161C229.034 367.957 228.831 367.653 228.525 367.348L228.322 367.145C227.406 366.738 226.388 366.332 225.269 366.332Z" fill="black"/>
  <path d="M268.923 350.28H267.193C258.442 350.28 251.318 343.168 251.318 334.432V315.841H284.696V334.432C284.696 343.168 277.674 350.28 268.923 350.28Z" fill="#3F2AFF"/>
  <path d="M273.299 322.342H251.42V323.358H273.299V322.342Z" fill="black"/>
  <path fill-rule="evenodd" clip-rule="evenodd" d="M496.055 113.48L508.164 75.3848L481.197 45.8228L442.019 54.3561L430.012 92.4516L456.978 122.014L496.055 113.48Z" fill="#FEBCB4"/>
  <path d="M468.985 107.387C466.644 107.387 464.202 106.981 461.861 106.269C455.857 104.441 451.075 100.377 448.124 94.79C445.173 89.2026 444.664 82.8026 446.597 76.8089C450.566 64.4152 463.795 57.6088 476.108 61.5707C488.523 65.5327 495.341 78.7391 491.372 91.0312C488.217 100.987 478.957 107.387 468.985 107.387ZM469.086 61.3676C459.521 61.3676 450.668 67.4628 447.615 77.0121C445.783 82.8026 446.292 88.8979 449.141 94.282C451.889 99.5646 456.57 103.527 462.268 105.254C474.073 109.012 486.793 102.511 490.558 90.6249C494.323 78.8407 487.81 66.1422 475.904 62.3834C473.564 61.7739 471.325 61.3676 469.086 61.3676Z" fill="black"/>
  <path d="M464.408 106.678C463.492 106.678 462.678 106.576 461.864 106.271C454.843 104.036 452.197 92.1505 456.064 79.7568C458.608 71.7314 463.492 65.0266 468.784 62.2837C471.328 60.9631 473.872 60.6583 476.212 61.3694C483.336 63.706 485.981 75.5917 482.013 87.8839C479.469 95.9093 474.584 102.614 469.293 105.357C467.664 106.17 466.036 106.678 464.408 106.678ZM473.668 61.979C472.244 61.979 470.717 62.3853 469.293 63.0964C464.306 65.6361 459.625 72.1377 457.081 79.96C453.418 91.8458 455.758 103.224 462.271 105.255C464.306 105.865 466.545 105.662 468.886 104.443C473.872 101.903 478.553 95.4014 481.097 87.5791C484.862 75.7949 482.522 64.4171 475.907 62.2837C475.195 62.1821 474.381 61.979 473.668 61.979Z" fill="black"/>
  <path d="M475.544 61.8574L461.621 105.622L462.591 105.929L476.514 62.1649L475.544 61.8574Z" fill="black"/>
  <path d="M447.271 76.4361L446.963 77.4043L490.911 91.2905L491.22 90.3223L447.271 76.4361Z" fill="black"/>
  <path fill-rule="evenodd" clip-rule="evenodd" d="M161.565 41.3526C160.039 32.9209 165.636 24.8954 174.082 23.3716L208.375 17.1747C216.821 15.6509 224.861 21.2382 226.387 29.67C227.913 38.1018 222.317 46.1273 213.87 47.6511L179.577 53.8479C171.131 55.3718 163.092 49.7844 161.565 41.3526Z" fill="white"/>
  <path d="M176.728 54.5583C173.471 54.5583 170.317 53.5424 167.671 51.7139C164.211 49.2757 161.769 45.6186 161.056 41.4535C159.53 32.8185 165.33 24.4883 173.98 22.8629L208.273 16.666C212.446 15.9549 216.72 16.8692 220.281 19.3073C223.741 21.7454 226.183 25.4026 226.896 29.5677C228.422 38.2027 222.622 46.5329 213.972 48.1583L179.679 54.3551C178.661 54.5583 177.745 54.5583 176.728 54.5583ZM211.123 17.4788C210.207 17.4788 209.393 17.5803 208.477 17.6819L174.183 23.8788C170.215 24.5899 166.755 26.8248 164.516 30.0756C162.277 33.3265 161.362 37.2884 162.074 41.2503C162.786 45.2122 165.025 48.6662 168.281 50.9012C171.538 53.1361 175.506 54.0504 179.475 53.3393L213.769 47.1424C221.909 45.7202 227.303 37.8979 225.878 29.7709C224.555 22.5581 218.246 17.4788 211.123 17.4788Z" fill="black"/>
  <path d="M203.242 33.1732L173.918 38.5518L174.102 39.5509L203.426 34.1723L203.242 33.1732Z" fill="black"/>
  <path d="M208.275 38.6098C211.422 38.6098 213.973 36.0628 213.973 32.9209C213.973 29.7789 211.422 27.2319 208.275 27.2319C205.128 27.2319 202.576 29.7789 202.576 32.9209C202.576 36.0628 205.128 38.6098 208.275 38.6098Z" fill="black"/>
  <path d="M208.274 39.1169C204.814 39.1169 202.066 36.374 202.066 32.92C202.066 29.466 204.814 26.7231 208.274 26.7231C211.734 26.7231 214.481 29.466 214.481 32.92C214.481 36.374 211.734 39.1169 208.274 39.1169ZM208.274 27.739C205.425 27.739 203.084 30.0755 203.084 32.92C203.084 35.7645 205.425 38.101 208.274 38.101C211.123 38.101 213.464 35.7645 213.464 32.92C213.464 30.0755 211.123 27.739 208.274 27.739Z" fill="black"/>
  <path fill-rule="evenodd" clip-rule="evenodd" d="M129.207 244.121C130.021 243.817 130.937 243.41 131.853 243.004C138.569 239.652 142.843 234.471 141.215 231.525C139.688 228.579 132.87 228.883 126.154 232.236C125.442 232.642 124.729 232.947 124.119 233.353C123.814 232.642 123.508 231.931 123.101 231.22C119.641 224.515 114.35 220.35 111.297 221.874C108.244 223.398 108.651 230.001 112.213 236.706C112.62 237.518 113.129 238.433 113.638 239.144C112.823 239.448 111.908 239.855 110.992 240.261C104.276 243.614 100.002 248.795 101.63 251.741C103.156 254.687 109.974 254.382 116.69 251.029C117.403 250.623 118.115 250.318 118.726 249.912C119.031 250.623 119.336 251.334 119.743 252.045C123.203 258.75 128.495 262.915 131.547 261.391C134.6 259.868 134.193 253.264 130.632 246.56C130.225 245.747 129.716 244.833 129.207 244.121Z" fill="#FEBCB4"/>
</svg>
